<?xml version="1.0" encoding="UTF-8"?>
<svg version="1.1" xmlns="http://www.w3.org/2000/svg" width="366" height="322">
<path d="M0 0 C68.97 0 137.94 0 209 0 C209 6.12321914 208.85617989 11.11376326 208 17 C204.26660511 15.61850911 201.02893105 13.86558736 197.625 11.8125 C194.26756809 9.98848906 192.40838591 9.0222756 188.5625 8.8125 C187.386875 9.204375 186.21125 9.59625 185 10 C184.08347656 10.19980469 183.16695312 10.39960938 182.22265625 10.60546875 C176.65385186 12.21361025 173.26234137 14.1475361 170.2265625 19.11328125 C167.91944079 23.30836955 165.91504332 27.61377704 164 32 C159.03792158 29.51896079 154.54491218 26.18143852 150 23 C150 32.24 150 41.48 150 51 C142.125 44.25 142.125 44.25 138.5625 40.625 C137.88316406 39.93664063 137.20382813 39.24828125 136.50390625 38.5390625 C136.00761719 38.03117187 135.51132813 37.52328125 135 37 C135.48996005 48.77193496 136.22198422 60.48856666 137.33935547 72.21899414 C137.80150533 77.17378227 138.10296086 82.02355821 138 87 C135.10538382 84.10538382 134.38542173 80.53144741 133.1796875 76.7109375 C132.91616486 75.89251373 132.65264221 75.07408997 132.38113403 74.23086548 C131.54000609 71.61404726 130.70741872 68.99460013 129.875 66.375 C129.30654958 64.60138292 128.73754602 62.82794302 128.16796875 61.0546875 C126.77221687 56.70515566 125.38411901 52.35324696 124 48 C123.1435031 51.01102731 122.82454117 53.79549666 122.70288086 56.92041016 C122.66291489 57.89466949 122.62294891 58.86892883 122.58177185 59.87271118 C122.52389244 61.44005508 122.52389244 61.44005508 122.46484375 63.0390625 C122.42186661 64.11626556 122.37888947 65.19346863 122.33460999 66.30331421 C122.19832529 69.74373535 122.0678931 73.18435104 121.9375 76.625 C121.84607726 78.95053557 121.7542848 81.27605664 121.66210938 83.6015625 C121.49510176 87.84708501 121.32920087 92.09264211 121.16772461 96.33837891 C121.13521103 97.1923526 121.10269745 98.04632629 121.06919861 98.92617798 C121.02390596 100.2835591 121 101.64186344 121 103 C120.34 103 119.68 103 119 103 C118.92652344 104.07314453 118.92652344 104.07314453 118.8515625 105.16796875 C118.4350467 110.71911899 117.84011845 116.14077962 116.875 121.625 C115.41301128 130.83662818 116.67726291 138.34834493 120 147 C120.01417969 146.01 120.02835937 145.02 120.04296875 144 C120.28423585 136.08824114 120.91204529 130.39255849 126 124 C128.56210121 126.56210121 128.81537923 128.53166597 129.69921875 132.0390625 C130.18358398 133.87017578 130.18358398 133.87017578 130.67773438 135.73828125 C131.34865144 138.3023161 131.99765949 140.86945923 132.63867188 143.44140625 C134.76447979 151.37054496 136.99964888 156.42731969 143 162 C144.38089164 163.35339184 145.76174365 164.70682436 147.141922 166.0609436 C148.65474648 167.54124562 150.17268581 169.01604506 151.69335938 170.48828125 C152.20535889 170.98408691 152.7173584 171.47989258 153.24487305 171.99072266 C154.29461282 173.00138942 155.34870618 174.00755269 156.40698242 175.00927734 C163.73290957 181.96128285 167.64172941 186.25866358 168.19140625 196.6015625 C169.3498739 201.47048449 172.10159443 203.37166461 175.9375 206.375 C176.58396484 206.90738281 177.23042969 207.43976563 177.89648438 207.98828125 C181.26733292 210.76814574 181.26733292 210.76814574 185 213 C184.566875 212.19175781 184.13375 211.38351563 183.6875 210.55078125 C183.130625 209.48214844 182.57375 208.41351563 182 207.3125 C181.443125 206.25675781 180.88625 205.20101562 180.3125 204.11328125 C179.00715067 201.01696156 178.88319348 199.28275003 179 196 C185.72229165 197.91900253 192.24004825 200.14538684 198.75 202.6875 C200.59474321 203.39403615 202.43980598 204.09973841 204.28515625 204.8046875 C207.13329035 205.89596025 209.97919499 206.99186533 212.81982422 208.10253906 C223.22426706 212.16130551 233.17554386 215.77304105 244.32946777 217.03344727 C248.70437774 217.56050761 251.27695284 218.38377551 254.4375 221.5 C255.31946296 222.64579804 256.1762605 223.81165449 257 225 C259.69316529 228.68303729 263.44104863 228.96191587 267.6875 229.6875 C268.7403418 229.88182617 268.7403418 229.88182617 269.81445312 230.08007812 C271.54107423 230.39721261 273.27031635 230.70001797 275 231 C273.96939453 230.56300781 273.96939453 230.56300781 272.91796875 230.1171875 C272.01691406 229.70726562 271.11585938 229.29734375 270.1875 228.875 C269.29417969 228.48054687 268.40085937 228.08609375 267.48046875 227.6796875 C264.36853087 225.57239099 263.42693672 223.42275187 262 220 C264.3701929 220.32130569 266.74031925 220.64308753 269.11035156 220.96557617 C271.13554654 221.24062087 273.16094113 221.51419943 275.18652344 221.78637695 C280.55631335 222.5118735 285.9028406 223.30894781 291.25 224.1875 C303.77169798 225.96994811 316.54919885 225.09708623 329.12915039 224.35620117 C336.79100233 223.92548498 344.2749094 224 352 224 C352 248.42 352 272.84 352 298 C342.998939 300.25026525 342.998939 300.25026525 339.48120117 300.24291992 C338.2900621 300.24745934 338.2900621 300.24745934 337.07485962 300.25209045 C336.23933563 300.24495529 335.40381165 300.23782013 334.54296875 300.23046875 C333.65008148 300.23046371 332.75719421 300.23045868 331.83724976 300.23045349 C328.95385038 300.22697116 326.07082389 300.20812228 323.1875 300.1875 C321.19718516 300.17929958 319.20686937 300.17132551 317.21655273 300.16357422 C306.32942689 300.10818343 295.44424044 299.98541737 284.5625 299.625 C283.55533936 299.5943042 282.54817871 299.5636084 281.51049805 299.53198242 C274.24372402 299.23461295 267.16566914 298.22167373 260 297 C260.82373047 294.55786133 260.82373047 294.55786133 262 292 C264.8203125 291.07421875 264.8203125 291.07421875 268.125 290.6875 C269.22070312 290.54699219 270.31640625 290.40648437 271.4453125 290.26171875 C272.70988281 290.13216797 272.70988281 290.13216797 274 290 C265.1389259 287.98168301 265.1389259 287.98168301 256.74468994 290.39271545 C255.99395203 290.95413742 255.24321411 291.51555939 254.46972656 292.09399414 C248.17820635 296.01778568 243.24650332 295.21749043 236.171875 293.93359375 C234.95546326 293.73438828 233.73905151 293.5351828 232.48577881 293.3299408 C219.9294251 291.10467175 207.89630715 287.42929185 195.85302734 283.29467773 C192.24739999 282.06161084 188.62777336 280.87940506 185.00390625 279.70117188 C169.32577668 274.4873804 153.77671338 268.2962774 140 259 C139.67 258.34 139.34 257.68 139 257 C142.7367843 254.50881047 144.74451819 254.7934774 149.1875 254.875 C150.45980469 254.89304688 151.73210937 254.91109375 153.04296875 254.9296875 C154.01878906 254.95289063 154.99460938 254.97609375 156 255 C144.51475671 249.47718375 144.51475671 249.47718375 132.30859375 250.44921875 C125.59020631 252.05208276 119.97193628 248.82686619 114.3125 245.625 C113.52157959 245.18164307 112.73065918 244.73828613 111.91577148 244.28149414 C105.76976016 240.70991824 100.79672377 236.62846079 95.73828125 231.66796875 C92.26671851 228.28554742 88.54975416 225.28816841 84.765625 222.265625 C83.39664063 221.14414062 83.39664063 221.14414062 82 220 C81.39881348 219.60820557 80.79762695 219.21641113 80.17822266 218.81274414 C72.18915145 213.01856924 69.46301433 203.75738805 65.875 194.9375 C65.19338494 193.30451122 64.50980359 191.67234173 63.82421875 190.04101562 C62.49076261 186.86173754 61.17131359 183.67720882 59.86230469 180.48779297 C58.67767314 177.61169821 57.46392787 174.75241846 56.20800781 171.90673828 C55.93046661 171.27546524 55.65292542 170.6441922 55.36697388 169.99378967 C54.62763676 168.32109785 53.88078141 166.65173463 53.13330078 164.98266602 C51.98985077 161.97328886 51.41367264 159.18527933 51 156 C54.81970556 156.2572008 56.55376437 156.56346514 59.3359375 159.28515625 C60.00882813 160.20167969 60.68171875 161.11820313 61.375 162.0625 C62.06335938 162.98160156 62.75171875 163.90070313 63.4609375 164.84765625 C64.22277344 165.91306641 64.22277344 165.91306641 65 167 C61.23518196 156.77891953 57.61727707 147.2531425 50.875 138.625 C46.6259554 132.92506213 45.29559923 127.88980632 44 121 C43.75894531 119.90840576 43.51789062 118.81681152 43.26953125 117.69213867 C40.76961792 105.83737833 40.24307017 94.08355275 39.8125 82 C39.73088937 79.95308199 39.64821384 77.90620615 39.56445312 75.859375 C39.36405367 70.90664917 39.17796339 65.95358066 39 61 C38.360625 61.99 37.72125 62.98 37.0625 64 C36.381875 64.99 35.70125 65.98 35 67 C34.67 67 34.34 67 34 67 C32.4950121 56.37331715 31.3385005 45.75026384 30.375 35.0625 C30.23986461 33.58916688 30.10444911 32.11585943 29.96875 30.64257812 C29.64262283 27.09534031 29.32022076 23.54777649 29 20 C17.36336315 52.45182171 17.36336315 52.45182171 6 85 C5.67 85 5.34 85 5 85 C4.80055833 77.38102297 5.58236442 70.05044993 6.53125 62.49609375 C6.76867397 60.54340164 7.00609261 58.59070886 7.24320221 56.63797855 C7.65763948 53.23726386 8.07916304 49.83742759 8.5 46.4375 C9.00271399 42.37224121 9.50390363 38.30681912 9.9979248 34.24049377 C10.30500848 31.71677669 10.61640963 29.19358009 10.93273926 26.67100525 C11.65560025 20.73127058 12.18097623 14.98375761 12 9 C11.06027344 10.28197266 11.06027344 10.28197266 10.1015625 11.58984375 C9.27625386 12.70588611 8.45072138 13.82176298 7.625 14.9375 C7.2125 15.50146484 6.8 16.06542969 6.375 16.64648438 C3.2265625 20.88671875 3.2265625 20.88671875 1 22 C1.45451184 20.26982492 1.91378857 18.54090123 2.375 16.8125 C2.63023438 15.84957031 2.88546875 14.88664063 3.1484375 13.89453125 C3.94766296 11.17789793 4.9031362 8.60862825 6 6 C5.01 5.195625 4.02 4.39125 3 3.5625 C2.01 2.716875 1.02 1.87125 0 1 C0 0.67 0 0.34 0 0 Z " fill="#000000" transform="translate(14,0)"/>
<path d="M0 0 C0 0.66 0 1.32 0 2 C-2.66622447 2.48173829 -5.33293671 2.96044625 -8 3.4375 C-8.74378906 3.57220703 -9.48757813 3.70691406 -10.25390625 3.84570312 C-12.50022474 4.24613381 -14.74904455 4.62658684 -17 5 C-18.2375 5.20625 -19.475 5.4125 -20.75 5.625 C-26.48597477 6.30714283 -32.24811644 5.84910588 -38 5.5625 C-39.73443359 5.48418945 -39.73443359 5.48418945 -41.50390625 5.40429688 C-44.33627353 5.27555291 -47.16820235 5.14063319 -50 5 C-47.1472604 -0.76665789 -47.1472604 -0.76665789 -45 -3 C-42.21484375 -3.79296875 -42.21484375 -3.79296875 -38.9375 -4.1875 C-37.77734375 -4.331875 -36.6171875 -4.47625 -35.421875 -4.625 C-34.29265625 -4.74875 -33.1634375 -4.8725 -32 -5 C-30.61554688 -5.185625 -30.61554688 -5.185625 -29.203125 -5.375 C-18.34781454 -6.72348577 -10.03870651 -3.82091217 0 0 Z " fill="#000000" transform="translate(343,308)"/>
<path d="M0 0 C0.77128496 3.31727414 1.39985418 6.64775689 2 10 C2.22171875 11.06992188 2.4434375 12.13984375 2.671875 13.2421875 C3.95842029 21.52675946 3.95842029 21.52675946 1.16015625 25.828125 C-1.12096531 28.1794918 -3.26337869 30.19885638 -6 32 C-6.99 32 -7.98 32 -9 32 C-10.06596076 28.92452896 -11.09838661 25.83880623 -12.125 22.75 C-12.42792969 21.87730469 -12.73085938 21.00460938 -13.04296875 20.10546875 C-13.32011719 19.26113281 -13.59726562 18.41679688 -13.8828125 17.546875 C-14.14465332 16.77182617 -14.40649414 15.99677734 -14.67626953 15.19824219 C-15.08538259 12.42022256 -14.52853466 11.31923987 -13 9 C-10.46875 6.640625 -10.46875 6.640625 -7.5 4.25 C-6.5203125 3.45078125 -5.540625 2.6515625 -4.53125 1.828125 C-2 0 -2 0 0 0 Z " fill="#000000" transform="translate(42,71)"/>
<path d="M0 0 C1.65 1.65 3.3 3.3 5 5 C5.56847656 5.54140625 6.13695312 6.0828125 6.72265625 6.640625 C8.90264587 9.2591548 10.12304402 11.39629875 9.85449219 14.89648438 C9.10006587 19.30916663 7.90080238 23.58968823 6.62060547 27.875 C5.64228936 31.22482826 4.82833419 34.61031907 4 38 C3.34 38 2.68 38 2 38 C1.34 25.46 0.68 12.92 0 0 Z " fill="#000000" transform="translate(156,68)"/>
<path d="M0 0 C-7.20807175 14.16053812 -7.20807175 14.16053812 -11.6015625 16.21875 C-14.0625 16.4375 -14.0625 16.4375 -18 16 C-17.71517632 14.58194169 -17.42181856 13.16559621 -17.125 11.75 C-16.96257812 10.96109375 -16.80015625 10.1721875 -16.6328125 9.359375 C-15.96902198 6.8845017 -15.48287939 5.10000584 -14 3 C-11.25 1.69921875 -11.25 1.69921875 -8 0.6875 C-6.9275 0.34074219 -5.855 -0.00601562 -4.75 -0.36328125 C-2 -1 -2 -1 0 0 Z " fill="#000000" transform="translate(203,13)"/>
<path d="M0 0 C3.6841356 3.6841356 4.88559353 9.12220435 6.6875 13.9375 C7.33041992 15.60329102 7.33041992 15.60329102 7.98632812 17.30273438 C8.38658203 18.36685547 8.78683594 19.43097656 9.19921875 20.52734375 C9.75355591 21.99288696 9.75355591 21.99288696 10.3190918 23.48803711 C11 26 11 26 10 29 C-1.3398192 19.02703401 -1.3398192 19.02703401 -2.83203125 14.4453125 C-2.81232494 12.1672629 -2.52479781 10.21346171 -2 8 C-1.84940074 6.66719656 -1.7031938 5.33388545 -1.5625 4 C-1 1 -1 1 0 0 Z " fill="#000000" transform="translate(68,174)"/>
<path d="M0 0 C6.07586548 1.89870796 11.81015499 6.22461765 16 11 C16 11.66 16 12.32 16 13 C16.57234375 13.26554688 17.1446875 13.53109375 17.734375 13.8046875 C20.1076012 15.05676891 22.12213286 16.4936352 24.25 18.125 C24.95640625 18.66382813 25.6628125 19.20265625 26.390625 19.7578125 C26.92171875 20.16773438 27.4528125 20.57765625 28 21 C26 22 26 22 24.12402344 21.43017578 C5.61929444 13.38273326 5.61929444 13.38273326 1.7421875 6.04296875 C1.01627293 4.04479338 0.45704727 2.07536769 0 0 Z " fill="#000000" transform="translate(203,184)"/>
<path d="M0 0 C4.95 0 9.9 0 15 0 C12.02551753 2.97448247 9.85803457 4.42529201 6 6 C3.75 6 3.75 6 2 5 C1.34 3.35 0.68 1.7 0 0 Z " fill="#000000" transform="translate(275,306)"/>
</svg>
