<?xml version="1.0" encoding="UTF-8"?>
<svg version="1.1" xmlns="http://www.w3.org/2000/svg" width="1414" height="148">
<path d="M0 0 C466.62 0 933.24 0 1414 0 C1414 6.6 1414 13.2 1414 20 C1411.669375 19.95875 1409.33875 19.9175 1406.9375 19.875 C1401.25012163 19.82696075 1395.8167066 20.1776262 1390.1875 21 C1381.82554138 22.21835665 1374.56475329 22.84469192 1366.375 20.5 C1361.6243401 19.1973993 1357.20123642 18.77730285 1352.30053711 18.83789062 C1351.19592211 18.84534176 1351.19592211 18.84534176 1350.06899166 18.85294342 C1342.15859967 18.94559085 1334.27378133 19.40924493 1326.38150215 19.92597961 C1323.73331179 20.0991848 1321.08475459 20.26539337 1318.4360199 20.43005371 C1311.86376719 20.8399467 1305.2922325 21.26088377 1298.72070312 21.68218994 C1293.13976103 22.03961917 1287.5585586 22.39234669 1281.97694206 22.73908997 C1279.40363172 22.90076967 1276.83081228 23.06903787 1274.25794983 23.2376709 C1259.01410018 24.20801777 1244.00727364 24.57945342 1228.81640625 22.6875 C1227.66937729 22.55432373 1226.52234833 22.42114746 1225.34056091 22.28393555 C1221.74664947 21.86566099 1218.15453797 21.434045 1214.5625 21 C1210.94533291 20.56742059 1207.32787956 20.13802239 1203.7094574 19.71606445 C1201.47810843 19.45547126 1199.24745544 19.18881428 1197.01771545 18.91479492 C1188.18602862 17.87692456 1179.43605808 17.17575813 1170.6796875 19.09375 C1169.00712891 19.43212891 1169.00712891 19.43212891 1167.30078125 19.77734375 C1165.06925742 20.24807569 1162.83991901 20.72932932 1160.61328125 21.22265625 C1137.18682442 25.88662661 1112.13214559 22.52154491 1088.44885254 21.14575195 C1081.78573859 20.75904325 1075.12220713 20.38013396 1068.45822334 20.00872803 C1066.17404125 19.87975412 1063.89024814 19.74510689 1061.60643005 19.60986328 C1045.11392572 18.657518 1029.08050601 19.18190265 1012.63724327 20.63097572 C961.35424117 25.0786451 911.93404864 29.19206556 861.52742004 16.74235535 C851.79199833 14.38911753 844.31975482 15.71237385 834.79296875 18.28515625 C833.05415968 18.7381035 831.3152233 19.19056228 829.57617188 19.64257812 C826.88270985 20.34991489 824.19062244 21.06166328 821.50073242 21.7824707 C818.87222075 22.48393656 816.23938911 23.16682338 813.60546875 23.84765625 C812.82068649 24.06325699 812.03590424 24.27885773 811.2273407 24.50099182 C801.15450492 27.07488096 791.03240765 26.07585426 780.80078125 25.01171875 C778.62774991 24.79841557 776.45465095 24.58580041 774.28149414 24.3737793 C773.14712921 24.26158051 772.01276428 24.14938171 770.84402466 24.03378296 C749.43997502 21.93501306 728.03972499 20.30990673 706.5625 19.1875 C705.39804352 19.12460785 704.23358704 19.0617157 703.03384399 18.99691772 C695.35786311 18.58760733 687.68218473 18.26589562 680 18 C679.03378723 17.95980743 678.06757446 17.91961487 677.07208252 17.87820435 C658.33282218 17.15413742 640.22206996 19.82690241 621.75 22.5625 C616.53540028 23.33125707 611.31938119 24.08822316 606.10019684 24.82523918 C604.0513414 25.11929509 602.00541699 25.42951111 599.95916748 25.74110413 C589.28810037 27.26411404 579.65082489 26.65110805 569.11328125 24.66015625 C567.6833463 24.39801555 566.25315894 24.13724893 564.82275391 23.87768555 C564.08841125 23.74373383 563.3540686 23.6097821 562.59747314 23.47177124 C537.66596325 19.00618266 514.36482314 15.4030623 489.56201172 22.25097656 C479.27647236 25.00231412 469.35986897 25.96195281 458.75 26.4375 C457.98182953 26.4727478 457.21365906 26.50799561 456.42221069 26.54431152 C451.61570308 26.75452957 446.81051606 26.91200276 442 27 C441.2274588 27.0265567 440.4549176 27.0531134 439.65896606 27.08047485 C433.37064122 27.21811693 427.65552938 26.36606211 421.5234375 25.03125 C419.53261303 24.62079803 417.54172556 24.21065153 415.55078125 23.80078125 C412.46965157 23.15446215 409.38970715 22.50314299 406.31103516 21.84521484 C394.00510432 19.23151337 382.61646553 17.18885669 370 18 C368.47433411 18.09099976 368.47433411 18.09099976 366.91784668 18.18383789 C358.08599716 18.7203184 349.26186734 19.35345468 340.4375 20 C335.22828446 20.38115431 330.01861653 20.75506302 324.80859375 21.125 C323.64565292 21.21249512 322.4827121 21.29999023 321.28453064 21.39013672 C307.79677563 22.34732719 294.85879322 22.14807378 281.46484375 20.25 C280.12991774 20.06951091 278.79483526 19.89017577 277.45960999 19.71191406 C273.28404496 19.15222564 269.11068053 18.57716127 264.9375 18 C260.08607014 17.32965633 255.23386299 16.66615504 250.37948799 16.01745605 C248.47004078 15.75915764 246.5621207 15.48964642 244.65428162 15.21972656 C231.61368425 13.46722084 219.41579043 13.77318091 206.4424572 15.85195923 C204.26329775 16.19971542 202.0822025 16.53175022 199.90003967 16.86010742 C193.70528197 17.79435585 187.5139855 18.7498979 181.32592773 19.72753906 C160.98173132 22.93047494 141.64139596 24.6726338 121 24 C119.43618301 23.96937492 117.87229808 23.94189393 116.30834961 23.91894531 C112.70333931 23.85669274 109.10325785 23.75113505 105.5 23.625 C104.39527344 23.5940625 103.29054688 23.563125 102.15234375 23.53125 C95.990801 23.32834519 89.85707599 23.0010617 83.71020508 22.53662109 C66.03013543 21.2034405 48.4529063 20.59895485 30.73144531 20.39910889 C27.24340733 20.35796654 23.75550445 20.30739959 20.26757812 20.2578125 C13.51181455 20.16306306 6.7559666 20.07894959 0 20 C0 13.4 0 6.8 0 0 Z " fill="#FFFFFF" transform="translate(0,59)"/>
<path d="M0 0 C0.82455185 0.21094299 1.6491037 0.42188599 2.49864197 0.63922119 C5.11237305 1.31274642 7.71240712 2.02569519 10.3125 2.75 C11.24803711 3.0087793 12.18357422 3.26755859 13.14746094 3.53417969 C15.1042044 4.07688304 17.06041788 4.62150064 19.01611328 5.16796875 C22.01781378 6.00496722 25.0224444 6.83081955 28.02734375 7.65625 C29.93508326 8.18682655 31.84264216 8.71805302 33.75 9.25 C34.64887939 9.49588867 35.54775879 9.74177734 36.47387695 9.99511719 C37.30234131 10.22875977 38.13080566 10.46240234 38.984375 10.703125 C39.71366211 10.90583008 40.44294922 11.10853516 41.19433594 11.31738281 C43 12 43 12 45 14 C32.20508536 14.10874843 19.44314968 13.76460212 6.65625 13.34375 C4.54920145 13.27626687 2.44214563 13.20901017 0.33508301 13.14196777 C-5.15569352 12.96666455 -10.64636728 12.78832768 -16.13702393 12.60931396 C-21.76186229 12.42647788 -27.38679437 12.24657302 -33.01171875 12.06640625 C-44.00790506 11.71377277 -55.00398483 11.35792772 -66 11 C-65.67 10.34 -65.34 9.68 -65 9 C-62.85902405 8.32843018 -62.85902405 8.32843018 -59.99633789 7.73144531 C-58.92754898 7.50491272 -57.85876007 7.27838013 -56.75758362 7.04498291 C-55.59105759 6.8084198 -54.42453156 6.57185669 -53.22265625 6.328125 C-52.02700546 6.08205505 -50.83135468 5.83598511 -49.59947205 5.5824585 C-47.0590461 5.06347976 -44.51763129 4.54932236 -41.9753418 4.03955078 C-38.10605667 3.25878906 -34.24372232 2.44857469 -30.38085938 1.63671875 C-27.91182928 1.13618753 -25.44243808 0.63743367 -22.97265625 0.140625 C-21.8243483 -0.10403503 -20.67604034 -0.34869507 -19.49293518 -0.60076904 C-12.36792951 -1.99000274 -6.96393087 -1.99552809 0 0 Z " fill="#FFFFFF" transform="translate(235,75)"/>
<path d="M0 0 C19.42583594 2.43892654 38.70350897 5.71484652 58 9 C58 9.33 58 9.66 58 10 C46.27864593 11.37379596 34.55766145 12.52203148 22.79125977 13.43261719 C20.27519813 13.62789509 17.75967687 13.82932755 15.24414062 14.03125 C13.61721586 14.1592152 11.99026369 14.28683262 10.36328125 14.4140625 C9.2553698 14.50308334 9.2553698 14.50308334 8.12507629 14.59390259 C3.73520474 14.92904958 -0.59724588 15.05415442 -5 15 C-4.54464901 13.43662827 -4.08557224 11.87434151 -3.625 10.3125 C-3.36976562 9.44238281 -3.11453125 8.57226562 -2.8515625 7.67578125 C-2.01843149 5.05791547 -1.05140346 2.53708227 0 0 Z " fill="#FFFFFF" transform="translate(1182,78)"/>
<path d="M0 0 C-7.21952241 2.78158657 -14.52930003 5.26086466 -21.875 7.6875 C-23.09058594 8.10322266 -24.30617188 8.51894531 -25.55859375 8.94726562 C-36.01171785 12.380897 -44.29293353 12.62416501 -55 10.625 C-55.74894531 10.49867187 -56.49789062 10.37234375 -57.26953125 10.2421875 C-62.74424794 9.25575206 -62.74424794 9.25575206 -65 7 C-50.09634268 4.34951398 -35.16763528 2.3358376 -20.125 0.6875 C-19.29714996 0.59464722 -18.46929993 0.50179443 -17.61636353 0.40612793 C-15.24759078 0.14209864 -12.87800252 -0.11233006 -10.5078125 -0.36328125 C-9.79321365 -0.44324844 -9.07861481 -0.52321564 -8.34236145 -0.60560608 C-5.15826715 -0.93038588 -3.0781892 -1.02606307 0 0 Z " fill="#FFFFFF" transform="translate(660,81)"/>
<path d="M0 0 C-2.97086576 3.03028308 -5.97455449 6.02423339 -9 9 C-9.56847656 9.57621094 -10.13695312 10.15242188 -10.72265625 10.74609375 C-12.1875 12.125 -12.1875 12.125 -15 14 C-19.61450505 13.62585094 -23.59549151 12.14056971 -27.875 10.4375 C-29.02742188 9.98246094 -30.17984375 9.52742188 -31.3671875 9.05859375 C-32.23601562 8.70925781 -33.10484375 8.35992187 -34 8 C-33.67 7.34 -33.34 6.68 -33 6 C-30.75612781 5.32128059 -28.47812755 4.75454487 -26.19140625 4.23828125 C-25.50948715 4.08336716 -24.82756805 3.92845306 -24.12498474 3.7688446 C-22.68084016 3.44295389 -21.23573943 3.12127619 -19.78979492 2.8034668 C-17.57260062 2.3147265 -15.35955799 1.80976882 -13.14648438 1.30273438 C-11.74501069 0.98860458 -10.34332437 0.67542163 -8.94140625 0.36328125 C-7.65951416 0.07751221 -6.37762207 -0.20825684 -5.05688477 -0.50268555 C-2 -1 -2 -1 0 0 Z " fill="#FFFFFF" transform="translate(1179,79)"/>
</svg>
