<?xml version="1.0" encoding="UTF-8"?>
<svg version="1.1" xmlns="http://www.w3.org/2000/svg" width="381" height="398">
<path d="M0 0 C0.9354364 0.41155334 0.9354364 0.41155334 1.88977051 0.8314209 C9.38528089 4.25112458 14.92715079 8.23052146 19.75 14.9375 C19.75 12.9575 19.75 10.9775 19.75 8.9375 C22.75 11.9375 25.75 14.9375 28.75 17.9375 C28.62882813 17.34735107 28.50765625 16.75720215 28.3828125 16.14916992 C27.83551754 13.47505518 27.29271037 10.80004877 26.75 8.125 C26.55921875 7.19623047 26.3684375 6.26746094 26.171875 5.31054688 C25.99140625 4.41787109 25.8109375 3.52519531 25.625 2.60546875 C25.45742187 1.78328857 25.28984375 0.9611084 25.1171875 0.11401367 C24.75 -2.0625 24.75 -2.0625 24.75 -5.0625 C25.41 -5.0625 26.07 -5.0625 26.75 -5.0625 C28.16706502 -3.51361498 29.50809496 -1.89488466 30.8125 -0.25 C32.01132812 1.24853516 32.01132812 1.24853516 33.234375 2.77734375 C33.64880859 3.29925293 34.06324219 3.82116211 34.49023438 4.35888672 C36.4893081 6.86392755 38.52773783 9.33642351 40.5625 11.8125 C43.31432588 15.17083031 46.03742216 18.54677771 48.75 21.9375 C49.08 14.6775 49.41 7.4175 49.75 -0.0625 C50.41 -0.0625 51.07 -0.0625 51.75 -0.0625 C52.60677083 1.71223958 53.46354167 3.48697917 54.3203125 5.26171875 C55.16082153 7.00267822 55.16082153 7.00267822 56.01831055 8.77880859 C57.26743441 11.36624676 58.51626236 13.95382749 59.76489258 16.54150391 C62.7462842 22.71957148 65.72902892 28.89696151 68.72039795 35.07020569 C69.98907839 37.68856865 71.2566314 40.30747667 72.52410889 42.92642212 C73.12824195 44.17390745 73.73292872 45.4211248 74.3381958 46.6680603 C75.18913172 48.42124352 76.0379615 50.1754485 76.88671875 51.9296875 C77.40371338 52.98502686 77.92070801 54.04036621 78.45336914 55.12768555 C79.5033802 57.40307197 80.28950684 59.57013869 81.0390625 61.94921875 C83.68266933 66.56647726 87.66149314 67.86607246 92.4375 69.875 C93.33017578 70.27267578 94.22285156 70.67035156 95.14257812 71.08007812 C97.33671269 72.05394534 99.5379863 73.00513734 101.75 73.9375 C100.75 75.9375 100.75 75.9375 98.3449707 76.80712891 C96.77622192 77.23131104 96.77622192 77.23131104 95.17578125 77.6640625 C94.03302734 77.9734375 92.89027344 78.2828125 91.71289062 78.6015625 C90.50826172 78.91867188 89.30363281 79.23578125 88.0625 79.5625 C86.87720703 79.88734375 85.69191406 80.2121875 84.47070312 80.546875 C79.07362576 81.98771001 74.36956058 83.13408738 68.75 82.9375 C70.4 79.9675 72.05 76.9975 73.75 73.9375 C67.48 73.6075 61.21 73.2775 54.75 72.9375 C58.75 68.9375 58.75 68.9375 61.75 66.9375 C60.76257813 67.02128906 59.77515625 67.10507813 58.7578125 67.19140625 C57.47648438 67.29324219 56.19515625 67.39507812 54.875 67.5 C52.96074219 67.65662109 52.96074219 67.65662109 51.0078125 67.81640625 C47.75 67.9375 47.75 67.9375 45.75 66.9375 C47.625 61.1875 47.625 61.1875 48.75 58.9375 C40.83 59.4325 40.83 59.4325 32.75 59.9375 C33.62838794 64.3294397 34.44166135 67.17576294 36.75 70.9375 C38.82690578 71.89794102 38.82690578 71.89794102 40.75 71.9375 C40.75 74.2475 40.75 76.5575 40.75 78.9375 C41.74 78.9375 42.73 78.9375 43.75 78.9375 C44.74 78.9375 45.73 78.9375 46.75 78.9375 C46.75 83.5575 46.75 88.1775 46.75 92.9375 C47.69875 92.1125 48.6475 91.2875 49.625 90.4375 C52.5 87.9375 52.5 87.9375 54.75 87.9375 C53.06240469 93.68676538 50.46892076 98.90265952 47.8125 104.25 C47.36970703 105.16845703 46.92691406 106.08691406 46.47070312 107.03320312 C46.03822266 107.90525391 45.60574219 108.77730469 45.16015625 109.67578125 C44.57439819 110.86747925 44.57439819 110.86747925 43.97680664 112.08325195 C42.75 113.9375 42.75 113.9375 39.75 114.9375 C39.19070801 113.81106079 39.19070801 113.81106079 38.62011719 112.66186523 C37.22024382 109.8449568 35.81849885 107.02898956 34.41552734 104.21362305 C33.51648051 102.40809726 32.61954842 100.60151895 31.72265625 98.79492188 C30.57926544 96.50171672 29.42245338 94.21514604 28.2512207 91.93603516 C26.75 88.9375 26.75 88.9375 25.86401367 86.68505859 C24.58923766 83.68525457 23.15252553 82.13483569 20.24755859 80.71069336 C17.04796855 79.55176043 13.8420998 78.59482444 10.5625 77.6875 C8.36062808 77.03662408 6.15880434 76.38558517 3.95703125 75.734375 C2.90596191 75.43337891 1.85489258 75.13238281 0.77197266 74.82226562 C-3.27593446 73.63712946 -7.2596172 72.30274185 -11.25 70.9375 C-10.25 68.9375 -10.25 68.9375 -8.48413086 68.34326172 C-7.73526611 68.18615723 -6.98640137 68.02905273 -6.21484375 67.8671875 C-5.00151367 67.60615234 -5.00151367 67.60615234 -3.76367188 67.33984375 C-2.91353516 67.16582031 -2.06339844 66.99179688 -1.1875 66.8125 C-0.33349609 66.63074219 0.52050781 66.44898437 1.40039062 66.26171875 C3.51533296 65.81273658 5.63247647 65.37414649 7.75 64.9375 C-7.4567875 54.79964166 -23.66935059 53.90323207 -41.25 55.9375 C-42.38566406 56.02386719 -43.52132812 56.11023438 -44.69140625 56.19921875 C-47.67112551 56.52558914 -50.35784874 57.14090251 -53.25 57.9375 C-53.98186523 58.12538086 -54.71373047 58.31326172 -55.46777344 58.50683594 C-72.9339983 63.2205958 -85.90783123 72.74363169 -95.30273438 88.34667969 C-110.53231431 115.91630813 -116.58871678 148.47839246 -116.28125 179.70068359 C-116.25939943 181.96392447 -116.26134502 184.22746383 -116.28125 186.49072266 C-116.34237203 193.54554171 -116.17635635 200.44014158 -115.25 207.4375 C-115.12971436 208.35241211 -115.00942871 209.26732422 -114.88549805 210.20996094 C-113.3492459 220.3095078 -109.79584881 229.62399891 -105.93676758 239.04003906 C-105.25 240.9375 -105.25 240.9375 -105.25 242.9375 C-97.99 242.9375 -90.73 242.9375 -83.25 242.9375 C-84.57805571 246.25763927 -85.5411468 248.62539582 -87.4140625 251.48828125 C-88.01347656 252.41157227 -88.01347656 252.41157227 -88.625 253.35351562 C-89.24375 254.29227539 -89.24375 254.29227539 -89.875 255.25 C-90.29523438 255.89517578 -90.71546875 256.54035156 -91.1484375 257.20507812 C-92.17838241 258.78510724 -93.21365628 260.36166047 -94.25 261.9375 C-84.55529317 260.44946294 -75.19748618 257.88618067 -65.75 255.3125 C-63.43021911 254.68149648 -61.11011045 254.05188016 -58.78869629 253.4269104 C-57.35535216 253.04099319 -55.9229281 252.65163774 -54.49157715 252.25839233 C-51.64598433 251.49189865 -49.21289891 250.9375 -46.25 250.9375 C-47.6197164 254.93250618 -49.50722422 257.73759492 -52.25 260.9375 C-45.79646385 258.87985079 -39.5138737 256.51366518 -33.25 253.9375 C-33.25 254.5975 -33.25 255.2575 -33.25 255.9375 C-35.25669238 257.63922394 -37.27493113 259.23296573 -39.375 260.8125 C-44.52018549 264.7624325 -49.53639545 268.8132362 -54.4375 273.0625 C-59.6345814 277.56449999 -64.89533716 281.96401405 -70.23828125 286.29296875 C-72.12626649 287.78045825 -72.12626649 287.78045825 -73.25 288.9375 C-65.6674716 287.89697785 -58.13895258 286.8104806 -50.65234375 285.20703125 C-47.73913811 284.88018379 -46.02670798 284.92972084 -43.25 285.9375 C-41.16752982 287.89199715 -39.3495397 289.7844708 -37.5 291.9375 C-36.44563943 293.12514612 -35.38963636 294.311336 -34.33203125 295.49609375 C-33.81334473 296.08116699 -33.2946582 296.66624023 -32.76025391 297.26904297 C-29.99860799 300.31997866 -27.04216733 303.17079761 -24.08984375 306.03515625 C-22.2867791 307.89947151 -20.75691825 309.82969223 -19.25 311.9375 C-12.54184551 310.11205088 -6.31925957 307.75873142 -0.01171875 304.828125 C3.20347025 303.79126065 4.55942685 303.90931779 7.75 304.9375 C9.6027832 306.79516602 9.6027832 306.79516602 11.30078125 309.19140625 C11.91630859 310.04541016 12.53183594 310.89941406 13.16601562 311.77929688 C13.79185547 312.67712891 14.41769531 313.57496094 15.0625 314.5 C15.70767578 315.40169922 16.35285156 316.30339844 17.01757812 317.23242188 C18.60785648 319.45881157 20.18448156 321.69366419 21.75 323.9375 C24.37705804 322.71259462 27.00191416 321.48337323 29.625 320.25 C30.45185303 319.86150879 31.27870605 319.47301758 32.13061523 319.07275391 C37.3696018 316.59241447 42.56255046 314.03556929 47.73046875 311.41015625 C48.90432129 310.81485107 50.07817383 310.2195459 51.28759766 309.60620117 C53.62539449 308.41657703 55.95976101 307.22018604 58.29052734 306.0168457 C59.36125488 305.4724585 60.43198242 304.92807129 61.53515625 304.3671875 C62.49301025 303.87460449 63.45086426 303.38202148 64.43774414 302.87451172 C65.20078857 302.56529785 65.96383301 302.25608398 66.75 301.9375 C67.41 302.2675 68.07 302.5975 68.75 302.9375 C63.47 307.2275 58.19 311.5175 52.75 315.9375 C62.76828548 311.02111916 72.59087369 305.91034672 82.27246094 300.35620117 C83.0874707 299.89705322 83.90248047 299.43790527 84.7421875 298.96484375 C85.46776855 298.54968506 86.19334961 298.13452637 86.94091797 297.70678711 C87.53791504 297.45292236 88.13491211 297.19905762 88.75 296.9375 C89.41 297.2675 90.07 297.5975 90.75 297.9375 C85.33918549 303.99050714 79.87453783 309.98912862 74.36132812 315.94873047 C69.13865395 321.59436769 63.94273589 327.26433382 58.75 332.9375 C62.39830436 332.24839392 65.23519094 330.7044431 68.46484375 328.90234375 C69.61154541 328.26578857 70.75824707 327.6292334 71.93969727 326.97338867 C73.18898706 326.27396547 74.43825403 325.57450149 75.6875 324.875 C76.9840207 324.15356204 78.28081891 323.43262261 79.57788086 322.7121582 C82.28054221 321.21043114 84.98198634 319.70654721 87.68261719 318.20117188 C93.44029161 314.99395737 99.21254819 311.81322865 104.98480225 308.63235474 C106.8028159 307.63033749 108.62046663 306.62766523 110.43798828 305.62475586 C120.5365601 300.05245424 130.64154716 294.4918536 140.75 288.9375 C141.08 289.5975 141.41 290.2575 141.75 290.9375 C141.28440674 291.2778125 140.81881348 291.618125 140.33911133 291.96875 C130.9078257 298.87041821 121.53032526 305.8338486 112.25 312.9375 C103.88595826 319.33901181 95.44556188 325.62696887 86.94921875 331.8515625 C82.8591298 334.84886505 78.79991683 337.88620218 74.75 340.9375 C76.00296875 340.63714844 77.2559375 340.33679688 78.546875 340.02734375 C80.19780557 339.64275197 81.84885349 339.25866365 83.5 338.875 C84.325 338.67583984 85.15 338.47667969 86 338.27148438 C86.79921875 338.08779297 87.5984375 337.90410156 88.421875 337.71484375 C89.1550293 337.54202881 89.88818359 337.36921387 90.64355469 337.19116211 C92.95132783 336.91325572 94.54916037 337.23940759 96.75 337.9375 C92.62762652 339.7767812 88.50168422 341.60791342 84.375 343.4375 C83.199375 343.96214844 82.02375 344.48679687 80.8125 345.02734375 C79.13027344 345.77177734 79.13027344 345.77177734 77.4140625 346.53125 C76.37717285 346.99208984 75.3402832 347.45292969 74.27197266 347.92773438 C71.75 348.9375 71.75 348.9375 69.75 348.9375 C69.75 349.5975 69.75 350.2575 69.75 350.9375 C71.22803204 351.25532317 72.70751712 351.56638865 74.1875 351.875 C75.01121094 352.04902344 75.83492188 352.22304688 76.68359375 352.40234375 C77.69550781 352.57894531 78.70742188 352.75554687 79.75 352.9375 C80.40564941 353.05697998 81.06129883 353.17645996 81.73681641 353.29956055 C88.87285468 354.37826401 94.99567678 352.89368438 101.93359375 351.23242188 C102.81144531 351.04099609 103.68929688 350.84957031 104.59375 350.65234375 C105.36912109 350.46792725 106.14449219 350.28351074 106.94335938 350.09350586 C113.90455201 349.70657109 120.79563567 352.48226573 127.28515625 354.7578125 C128.04928329 355.02133514 128.81341034 355.28485779 129.60069275 355.55636597 C132.00625285 356.38713638 134.40938662 357.22468191 136.8125 358.0625 C138.45752565 358.63196312 140.1027067 359.20097754 141.74804688 359.76953125 C145.75051032 361.15368167 149.75081494 362.54390724 153.75 363.9375 C153.75 364.2675 153.75 364.5975 153.75 364.9375 C148.8 364.6075 143.85 364.2775 138.75 363.9375 C149.145 367.4025 149.145 367.4025 159.75 370.9375 C159.75 371.2675 159.75 371.5975 159.75 371.9375 C42.93 371.9375 -73.89 371.9375 -194.25 371.9375 C-194.25 206.80274823 -194.25 206.80274823 -186.49609375 196.15625 C-185.56925781 195.2590625 -184.64242187 194.361875 -183.6875 193.4375 C-176.38332494 186.2245005 -173.31970172 179.92938791 -170.5 170.1875 C-170.18417969 169.13433594 -169.86835938 168.08117187 -169.54296875 166.99609375 C-167.90425995 162.04833851 -167.90425995 162.04833851 -167.25 156.9375 C-167.6217334 157.526521 -167.9934668 158.11554199 -168.37646484 158.72241211 C-182.68197144 181.22548096 -182.68197144 181.22548096 -194.25 188.9375 C-194.3000552 183.90618277 -194.33602404 178.87501573 -194.35986328 173.84350586 C-194.36981874 172.13775095 -194.38338799 170.43201264 -194.40087891 168.72631836 C-194.54763438 154.0291892 -193.40877242 140.95047337 -188.375 127 C-188.03597656 126.01193359 -187.69695312 125.02386719 -187.34765625 124.00585938 C-185.49933036 118.77362127 -183.58496639 114.37504712 -180.25 109.9375 C-179.57710937 108.93783203 -179.57710937 108.93783203 -178.890625 107.91796875 C-175.64049977 103.72749829 -172.50570531 101.46188258 -167.70019531 99.18261719 C-155.86358144 93.5066127 -150.48191634 84.16887729 -144.25 72.9375 C-147.81590373 74.62383407 -150.40287555 76.70430916 -153.375 79.3125 C-158.38755255 83.4907485 -164.4122976 87.9375 -171.25 87.9375 C-170.58530799 85.93684286 -169.91795935 83.93706864 -169.25 81.9375 C-169.0118457 81.19886719 -168.77369141 80.46023437 -168.52832031 79.69921875 C-164.4513158 67.24473968 -159.87470049 58.03198928 -150.7890625 48.60107422 C-148.14388196 45.74189588 -145.8093328 42.64847279 -143.4375 39.5625 C-142.51996641 38.40460296 -141.60201447 37.24703727 -140.68359375 36.08984375 C-138.2943765 33.07969844 -138.2943765 33.07969844 -136.53515625 30.31640625 C-134.88679973 27.96340878 -133.689804 26.46853297 -131.25 24.9375 C-127.46214997 24.35608889 -123.80285243 24.24787748 -119.97265625 24.1875 C-112.75924344 23.70307354 -107.63312133 19.92624965 -101.875 15.875 C-96.76474891 12.32443057 -91.18648448 10.64511821 -85.25 8.9375 C-94.14252296 8.67552715 -102.49996282 9.3335652 -111.25 10.9375 C-86.69757067 -15.03908417 -30.34930247 -13.39291969 0 0 Z M52.75 33.9375 C52.60294405 40.96993557 52.60294405 40.96993557 55.375 47.2265625 C57.09898961 48.91579425 58.8337562 50.47154848 60.75 51.9375 C62.43550367 48.56649267 60.43863036 45.21735368 59.3125 41.8125 C58.94801758 40.68134766 58.94801758 40.68134766 58.57617188 39.52734375 C57.97404181 37.66192121 57.36286537 35.79942317 56.75 33.9375 C55.43 33.9375 54.11 33.9375 52.75 33.9375 Z " fill="#000000" transform="translate(194.25,26.0625)"/>
<path d="M0 0 C0.33 0 0.66 0 1 0 C3.70858276 24.009088 4.16676609 47.85996748 4 72 C-9.13249009 52.30126487 -5.36598426 22.87516468 -1 1 C-0.67 0.67 -0.34 0.34 0 0 Z " fill="#000000" transform="translate(85,175)"/>
<path d="M0 0 C0 3 0 3 -2.125 5.26953125 C-3.07375 6.10871094 -4.0225 6.94789063 -5 7.8125 C-6.3921875 9.05966797 -6.3921875 9.05966797 -7.8125 10.33203125 C-8.8695459 11.22783003 -9.93235864 12.11685595 -11 13 C-11.56928223 13.4736499 -12.13856445 13.9472998 -12.72509766 14.43530273 C-18.48530691 18.99865352 -24.80266582 22.19890107 -31.375 25.4375 C-32.46683594 25.99115234 -33.55867187 26.54480469 -34.68359375 27.11523438 C-36.24400391 27.89157227 -36.24400391 27.89157227 -37.8359375 28.68359375 C-38.78001465 29.15337646 -39.7240918 29.62315918 -40.69677734 30.10717773 C-41.83687256 30.54912476 -41.83687256 30.54912476 -43 31 C-43.66 30.67 -44.32 30.34 -45 30 C-34.20925274 18.95096357 -24.02093442 11.21448671 -10 4.6875 C-9.03449219 4.23310547 -8.06898438 3.77871094 -7.07421875 3.31054688 C-4.718214 2.20252484 -2.36016394 1.09912732 0 0 Z " fill="#000000" transform="translate(278,305)"/>
<path d="M0 0 C12.88653095 0.11907601 24.57634048 3.16136192 36.9375 6.5625 C38.89223135 7.08917934 40.84730795 7.61457905 42.80273438 8.13867188 C47.53925888 9.41108952 52.27079827 10.70064249 57 12 C57 12.33 57 12.66 57 13 C35.54226068 15.28648042 19.34659122 9.38779856 0 1 C0 0.67 0 0.34 0 0 Z " fill="#000000" transform="translate(322,376)"/>
<path d="M0 0 C3.1257396 0.10962816 6.25024781 0.24031241 9.375 0.375 C10.26445312 0.4059375 11.15390625 0.436875 12.0703125 0.46875 C12.92109375 0.50742187 13.771875 0.54609375 14.6484375 0.5859375 C15.43395996 0.6173584 16.21948242 0.6487793 17.02880859 0.68115234 C19 1 19 1 21 3 C20.76806641 4.97119141 20.76806641 4.97119141 20.1015625 7.3515625 C19.86953125 8.20234375 19.6375 9.053125 19.3984375 9.9296875 C19.14320313 10.81914062 18.88796875 11.70859375 18.625 12.625 C18.3775 13.5221875 18.13 14.419375 17.875 15.34375 C17.26043522 17.56563806 16.63506681 19.78390118 16 22 C11.69116892 17.99837991 8.46583503 13.61716763 5.1875 8.75 C4.68541016 8.0178125 4.18332031 7.285625 3.66601562 6.53125 C0 1.14445153 0 1.14445153 0 0 Z " fill="#000000" transform="translate(160,314)"/>
<path d="M0 0 C4.29340336 0.76135389 8.58434486 1.53582021 12.875 2.3125 C14.07898438 2.52583984 15.28296875 2.73917969 16.5234375 2.95898438 C26.71116772 4.81381569 35.85562077 7.08912967 45 12 C45 12.33 45 12.66 45 13 C40.32361094 12.77207516 35.66324754 12.41137659 31 12 C29.7313208 11.89461914 29.7313208 11.89461914 28.43701172 11.78710938 C9.13279017 10.06370582 9.13279017 10.06370582 1.44921875 2.7421875 C0 1 0 1 0 0 Z " fill="#000000" transform="translate(128,5)"/>
<path d="M0 0 C1.42892578 0.17402344 1.42892578 0.17402344 2.88671875 0.3515625 C4.48966797 0.57972656 4.48966797 0.57972656 6.125 0.8125 C8.02185547 1.07160156 8.02185547 1.07160156 9.95703125 1.3359375 C13.34929378 1.8102356 16.7378424 2.30319017 20.125 2.8125 C19.795 3.4725 19.465 4.1325 19.125 4.8125 C16.25756836 5.22314453 16.25756836 5.22314453 12.46484375 5.4453125 C11.80037735 5.48687469 11.13591095 5.52843689 10.4513092 5.57125854 C8.32213888 5.70235319 6.192463 5.82006083 4.0625 5.9375 C2.62169187 6.02386116 1.18093543 6.11108945 -0.25976562 6.19921875 C-3.79763171 6.41372308 -7.3360705 6.61622589 -10.875 6.8125 C-8.40772811 1.55102571 -6.00179449 -0.7753078 0 0 Z " fill="#000000" transform="translate(106.875,261.1875)"/>
<path d="M0 0 C7.31625835 4.71492205 7.31625835 4.71492205 9 7 C9.29296875 10.13671875 9.29296875 10.13671875 9.1875 13.6875 C9.16042969 14.86699219 9.13335937 16.04648437 9.10546875 17.26171875 C9.07066406 18.16535156 9.03585938 19.06898437 9 20 C8.34 20 7.68 20 7 20 C2.62585268 15.34875737 -0.48405956 10.89333835 -0.4375 4.375 C-0.32732839 2.91353988 -0.19471224 1.4526151 0 0 Z " fill="#000000" transform="translate(178,1)"/>
<path d="M0 0 C2.95164119 2.74807973 5.2946915 5.32012377 7 9 C6.74756206 12.5341312 5.99789249 14.00316126 4 17 C3.34 17 2.68 17 2 17 C-0.67900576 11.64198848 -1.40623948 7.99203232 -1 2 C-0.67 1.34 -0.34 0.68 0 0 Z " fill="#000000" transform="translate(92,163)"/>
<path d="M0 0 C2 1 2 1 2 1 Z " fill="#000000" transform="translate(227,87)"/>
</svg>
