<?xml version="1.0" encoding="UTF-8"?>
<svg version="1.1" xmlns="http://www.w3.org/2000/svg" width="670" height="532">
<path d="M0 0 C221.1 0 442.2 0 670 0 C670 175.56 670 351.12 670 532 C448.9 532 227.8 532 0 532 C0 356.44 0 180.88 0 0 Z M632.89331055 9.19677734 C632.09535568 9.45639252 631.29740082 9.71600769 630.4752655 9.98348999 C629.62104507 10.26479767 628.76682465 10.54610535 627.88671875 10.8359375 C626.06375966 11.4120855 624.24017064 11.98624348 622.41601562 12.55859375 C619.54587654 13.46277975 616.68123379 14.37708143 613.82543945 15.32568359 C611.06389201 16.23865875 608.29087963 17.10332368 605.51171875 17.9609375 C604.23949715 18.4011171 604.23949715 18.4011171 602.9415741 18.85018921 C597.10330598 20.59067012 597.10330598 20.59067012 593.99404907 18.92608643 C591.35902608 16.70653498 589.21702672 14.25987777 587.01171875 11.61914062 C583.94322371 9.14944898 581.67375237 9.74879113 577.8125 10.09375 C577.07837891 10.15485962 576.34425781 10.21596924 575.58789062 10.27893066 C573.05614543 10.49739494 570.52873504 10.74920112 568 11 C566.06650303 11.17296033 564.13290467 11.34479005 562.19921875 11.515625 C556.88870083 11.998669 551.58889359 12.55636384 546.2890625 13.14453125 C544.09783852 13.38134999 541.90504042 13.60403416 539.7109375 13.8125 C527.56138427 14.97236188 516.92586845 16.19921833 506.5625 23.06481934 C502.18584466 25.88281279 499.283709 26.42283015 494.12258911 25.53637695 C491.16214384 24.78827427 488.5488682 23.66977123 485.80859375 22.328125 C459.11079141 10.7771114 435.16678086 18.65251499 408.40820312 27.13916016 C403.14938934 28.70585567 399.09689086 29.09366235 393.6496582 28.24194336 C392.41448456 28.04944504 391.17931091 27.85694672 389.90670776 27.65861511 C384.01485483 26.66533289 378.13657028 25.60823039 372.26447868 24.50505829 C369.33812489 23.95684081 366.40984517 23.4192582 363.48165989 22.88092422 C358.06397763 21.88488135 352.64712571 20.88485597 347.23364258 19.86621094 C343.43308215 19.15148908 339.63021249 18.45049321 335.82544136 17.75855255 C334.38563251 17.49407323 332.94674284 17.22453615 331.50886345 16.94976044 C329.5069569 16.5677937 327.50144746 16.20485858 325.49584961 15.84277344 C324.35893173 15.63118591 323.22201385 15.41959839 322.05064392 15.20159912 C317.3794121 14.89290487 314.19163719 16.75069341 310.328125 19.1640625 C309.66296875 19.56367188 308.9978125 19.96328125 308.3125 20.375 C306.94540623 21.20354168 305.58582388 22.04461514 304.234375 22.8984375 C303.5640625 23.29546875 302.89375 23.6925 302.203125 24.1015625 C301.31608887 24.64804443 301.31608887 24.64804443 300.41113281 25.20556641 C292.72046929 27.73952946 283.54399325 25.39227755 275.75 24.25 C274.49670898 24.07243164 273.24341797 23.89486328 271.95214844 23.71191406 C267.29364857 23.05171819 262.63678682 22.38050803 257.97998047 21.70849609 C253.40427944 21.04880573 248.82730051 20.39851956 244.25 19.75 C243.05600586 19.57500977 241.86201172 19.40001953 240.63183594 19.21972656 C226.86073867 17.21789466 226.86073867 17.21789466 214.25 22.0625 C207.84462484 26.0087851 207.84462484 26.0087851 204.37109375 25.97265625 C200.54600525 24.40355075 197.48385544 21.88430412 194.20703125 19.3984375 C185.48648401 15.59581154 173.99556562 20.60700777 165.27734375 22.91601562 C164.22675781 23.18220703 163.17617187 23.44839844 162.09375 23.72265625 C161.16240234 23.96765869 160.23105469 24.21266113 159.27148438 24.46508789 C149.06975725 26.13314641 138.95421775 24.18323851 128.83984375 22.69921875 C127.16534657 22.45909173 125.49074809 22.21967024 123.8160553 21.98091125 C119.41407393 21.35179336 115.01326414 20.71485025 110.61273193 20.07568359 C82.08719843 15.89787507 82.08719843 15.89787507 53.50390625 12.14453125 C52.53194809 12.02325363 51.55998993 11.90197601 50.55857849 11.77702332 C43.20078319 10.90708379 36.37023794 10.24583338 29.1875 12.53125 C27.66962891 13.00498047 27.66962891 13.00498047 26.12109375 13.48828125 C25.09113281 13.82214844 24.06117187 14.15601563 23 14.5 C21.93910156 14.83386719 20.87820312 15.16773438 19.78515625 15.51171875 C17.18670864 16.33104908 14.59203573 17.16064985 12 18 C11.71262751 23.6924211 11.42788428 29.3849656 11.14550781 35.07763672 C11.04921399 37.01159154 10.95221936 38.94551161 10.85449219 40.87939453 C10.71362101 43.66950639 10.57532477 46.4597362 10.4375 49.25 C10.39375244 50.10553467 10.35000488 50.96106934 10.30493164 51.8425293 C10.18847983 54.22803413 10.08870032 56.61331351 10 59 C9.97042709 59.69783096 9.94085419 60.39566193 9.91038513 61.11463928 C9.79404877 65.86829933 10.54163713 70.12976521 11.78515625 74.68359375 C12.1545921 76.12036683 12.52372343 77.55721824 12.89257812 78.99414062 C13.47546641 81.21804211 14.06329312 83.44046453 14.6574707 85.66137695 C18.70501169 100.89313442 16.88021063 110.58778446 12.2121582 125.62084961 C9.17167723 135.48582719 8.76865887 142.94550557 11 153 C11.18071045 154.03995117 11.3614209 155.07990234 11.54760742 156.15136719 C13.41297643 165.88069533 17.4959426 174.50696628 21.625 183.4375 C22.66973103 185.71131216 23.7107568 187.98660089 24.74349976 190.2658844 C25.38052579 191.6705631 26.02449748 193.07212085 26.67666626 194.46983337 C28.42477477 198.31011591 29.98130995 201.75348017 30 206 C28.58192978 208.41073804 27.18753922 210.42286084 25.48046875 212.60546875 C19.63630979 220.71418583 16.76834497 229.12194244 14.0637207 238.67211914 C13.30543956 241.33731593 12.50052132 243.98521122 11.68945312 246.63476562 C11.18211218 248.35595276 10.67745589 250.07793403 10.17578125 251.80078125 C9.93950516 252.57706375 9.70322906 253.35334625 9.45979309 254.15315247 C6.92970866 263.29414414 9.05214964 271.95652689 10.8828125 281.06640625 C11.24920687 282.95237515 11.61507662 284.83844604 11.98046875 286.72460938 C12.55203878 289.65052696 13.127596 292.57547674 13.71240234 295.4987793 C14.28108456 298.35247354 14.83307287 301.20901091 15.3828125 304.06640625 C15.55982697 304.92915665 15.73684143 305.79190704 15.91921997 306.68080139 C17.41633655 314.57511217 16.66952135 320.70886093 14.45841026 328.4205761 C11.71616543 338.2253188 11.86333556 346.87946986 12.703125 356.95703125 C12.82335753 358.63725472 12.94112109 360.31765645 13.05657959 361.99821472 C13.36350537 366.38363809 13.69938733 370.76631594 14.04315186 375.14898682 C14.58662721 382.14713403 15.08262237 389.14884281 15.58333588 396.15015221 C15.75915107 398.55594434 15.94592038 400.96065716 16.1350708 403.36543274 C16.91633464 413.61070527 17.11841989 423.77401256 17.01184559 434.04725742 C16.99621643 436.62372055 17.04228668 439.197631 17.09765625 441.7734375 C17.11067728 450.11297304 16.94868127 455.74288325 11.4375 462.4375 C5.90616591 469.39768901 6.13845946 474.91509977 6.65405273 483.42163086 C7.08726584 491.18682191 7.30815362 498.9573174 7.5390625 506.73046875 C7.58426868 508.2188758 7.62959668 509.70727915 7.67504883 511.19567871 C7.78476664 514.79707775 7.8928485 518.39852359 8 522 C9.56068962 521.83087097 9.56068962 521.83087097 11.15290833 521.6583252 C20.99393191 520.59264774 30.83560595 519.53316806 40.67793751 518.47963715 C45.73704564 517.93790798 50.79590594 517.39405429 55.85424805 516.84521484 C60.74258542 516.31490246 65.63150982 515.79034133 70.52087975 515.26963806 C72.37924575 515.0707302 74.23739723 514.86980671 76.09531593 514.66676331 C101.09801269 511.9377757 101.09801269 511.9377757 111.35839844 514.93188477 C128.77761531 519.79938894 146.16677203 517.24023167 163.87646484 515.56445312 C173.95496963 514.61967652 184.04874101 513.85762982 194.14123535 513.07980347 C197.47741039 512.81914805 200.81243619 512.54666638 204.14746094 512.27172852 C206.24542333 512.10408678 208.3434043 511.93667722 210.44140625 511.76953125 C211.81598747 511.65251862 211.81598747 511.65251862 213.21833801 511.53314209 C227.41488791 510.42856349 241.14975197 510.96897698 255.25171471 512.72789383 C257.85180118 513.05023014 260.45336976 513.35651699 263.05586243 513.65878296 C270.44313804 514.5181562 277.82829092 515.39335269 285.20922852 516.30566406 C306.80300825 518.96363054 327.19777461 520.70801489 348.89962769 518.31803894 C353.03447037 517.89388311 357.17205595 517.64566421 361.32151794 517.4138031 C370.09830207 516.87705713 377.03079722 515.45006491 384.734375 511.14453125 C391.49293722 508.77580071 398.00530573 510.92909132 404.703125 512.8046875 C423.11285032 517.94743082 436.77310867 518.31532554 455.48925781 513.57006836 C465.09378805 512.01050104 474.57948728 513.41496115 484.13035393 514.72789383 C486.45644546 515.0464722 488.78376005 515.35409434 491.11170959 515.65878296 C497.72238183 516.52520426 504.3311663 517.40494379 510.93725586 518.30566406 C515.00050623 518.85889559 519.06575277 519.39472701 523.13269234 519.92011642 C524.66712255 520.12174146 526.20072817 520.32976257 527.73335075 520.54469681 C536.87360169 521.82460262 544.91426425 522.14670139 554 520 C555.69686487 519.64856233 557.39380276 519.29747702 559.09082031 518.94677734 C560.75381737 518.5790304 562.41624378 518.20869459 564.078125 517.8359375 C565.91659837 517.43198071 567.75514212 517.02834413 569.59375 516.625 C572.433762 515.99870054 575.27313125 515.36982902 578.11132812 514.73535156 C580.89033548 514.11556607 583.67148614 513.50628733 586.453125 512.8984375 C587.29288879 512.7078476 588.13265259 512.51725769 588.99786377 512.32089233 C596.32331823 510.73311227 602.62118108 510.1853548 609.8359375 512.76953125 C621.15150506 516.7815942 621.15150506 516.7815942 632.78564453 516.13720703 C637.86869345 513.42160556 642.00816661 509.71281899 646.13574219 505.72949219 C648.75354373 503.30092931 651.58016003 501.46025926 654.5625 499.5 C657.94245872 497.3110038 657.94245872 497.3110038 659.72021484 493.87353516 C660.08673347 490.10920341 659.27149038 486.85887017 658.34765625 483.2421875 C657.97976542 481.71355425 657.61192864 480.18490799 657.24414062 478.65625 C656.65732677 476.27285289 656.0663714 473.8905369 655.47290039 471.50878906 C654.89978644 469.19318687 654.34207749 466.87422902 653.78515625 464.5546875 C653.60702896 463.86156464 653.42890167 463.16844177 653.24537659 462.45431519 C650.79403049 452.19611657 652.16610719 442.54114026 654.1875 432.32421875 C654.40946045 431.15542679 654.6314209 429.98663483 654.86010742 428.78242493 C655.56393774 425.08222877 656.28095945 421.38476793 657 417.6875 C657.71741554 413.97210601 658.43185294 410.25620925 659.13989258 406.53901672 C659.57920803 404.235152 660.02411433 401.9323444 660.4753418 399.63078308 C660.67554932 398.58562027 660.87575684 397.54045746 661.08203125 396.46362305 C661.25968018 395.55082077 661.4373291 394.63801849 661.62036133 393.69755554 C662.38374959 388.27323399 662.22170716 384.64268401 659.515625 379.84765625 C658.99226562 378.90599609 658.46890625 377.96433594 657.9296875 376.99414062 C657.09824219 375.54297852 657.09824219 375.54297852 656.25 374.0625 C655.71117187 373.09892578 655.17234375 372.13535156 654.6171875 371.14257812 C651.76869373 365.99745942 651.76869373 365.99745942 648.68164062 360.99560547 C646.37521737 357.43970422 645.76254374 355.2441119 646.48583984 351.08171082 C647.54119264 346.80884115 649.22703556 342.76596807 650.8515625 338.68359375 C651.62798516 336.68309053 652.40401506 334.68243485 653.1796875 332.68164062 C654.40338243 329.55029095 655.63157689 326.42085742 656.8671875 323.29418945 C658.0620581 320.26206261 659.23906128 317.22346493 660.4140625 314.18359375 C660.97488022 312.78650429 660.97488022 312.78650429 661.54702759 311.3611908 C665.0046621 302.35939325 662.80398303 297.01630579 659.18359375 288.4375 C658.41189049 286.57040295 657.64041296 284.7032126 656.86914062 282.8359375 C655.65259151 279.91149802 654.43269127 276.98852782 653.20825195 274.06738281 C652.02426656 271.23610304 650.85327767 268.39971197 649.68359375 265.5625 C649.31487656 264.69359131 648.94615936 263.82468262 648.56626892 262.92944336 C646.43187369 257.73122453 644.87013016 253.44064604 646.70263672 247.86035156 C647.02506348 247.2103418 647.34749023 246.56033203 647.6796875 245.890625 C648.03160156 245.13394531 648.38351562 244.37726563 648.74609375 243.59765625 C649.47894594 242.073628 650.22312679 240.55497655 650.98046875 239.04296875 C653.42250277 233.72377465 654.45263005 228.61064784 655.02734375 222.81420898 C655.10979277 222.02720706 655.19224178 221.24020514 655.27718925 220.42935467 C656.16875177 211.72145679 656.8534785 202.99790034 657.5078125 194.26953125 C657.63936171 192.53756358 657.77102733 190.80560474 657.90280151 189.07365417 C658.17553989 185.47805857 658.44577318 181.88228528 658.71435547 178.28637695 C659.05571645 173.72092877 659.40517124 169.15613978 659.75671577 164.59146595 C660.03002087 161.02687938 660.29810451 157.46191352 660.564785 153.89682579 C660.69136767 152.21489685 660.81969678 150.53309824 660.94995499 148.85144997 C663.07772912 127.9973497 663.07772912 127.9973497 658.71875 107.85546875 C658.38580933 106.99359451 658.05286865 106.13172028 657.70983887 105.24372864 C656.66326242 102.54842642 655.58316672 99.86827705 654.5 97.1875 C653.42481813 94.4576926 652.35666063 91.7252292 651.29016113 88.99201965 C650.62913414 87.30553106 649.96163715 85.62156084 649.2869873 83.94047546 C647 78.21169497 647 78.21169497 647 76 C647.85464844 75.74605469 648.70929687 75.49210937 649.58984375 75.23046875 C650.69457031 74.88628906 651.79929687 74.54210937 652.9375 74.1875 C654.03964844 73.85105469 655.14179687 73.51460938 656.27734375 73.16796875 C657.17582031 72.78253906 658.07429687 72.39710937 659 72 C659.98072218 69.05783345 660.05435225 67.64132662 659.82910156 64.62719727 C659.76442688 63.74520157 659.6997522 62.86320587 659.63311768 61.95448303 C659.29218062 57.89393811 658.93014039 53.83599222 658.54345703 49.77954102 C658.34944557 47.65267831 658.17494239 45.52393637 658.02099609 43.39379883 C657.10667973 30.82733297 656.2099798 21.80447228 646.58496094 13.08959961 C645.73192383 12.40003174 644.87888672 11.71046387 644 11 C643.21157715 10.11163452 643.21157715 10.11163452 642.40722656 9.20532227 C639.54902932 6.75720988 636.10472322 8.13326072 632.89331055 9.19677734 Z " fill="#FFFFFF" transform="translate(0,0)"/>
<path d="M0 0 C1.76757812 1.33520508 1.76757812 1.33520508 3.53125 3.01953125 C4.49998047 3.93508789 4.49998047 3.93508789 5.48828125 4.86914062 C6.15214844 5.51044922 6.81601562 6.15175781 7.5 6.8125 C8.16386719 7.44220703 8.82773437 8.07191406 9.51171875 8.72070312 C11.35126056 10.4702873 13.17609254 12.23415501 15 14 C15.8146875 14.76699219 16.629375 15.53398437 17.46875 16.32421875 C19 18 19 18 19 20 C16.08503674 20.51225296 13.16869962 21.00987041 10.25 21.5 C9.44433594 21.64308594 8.63867188 21.78617187 7.80859375 21.93359375 C-3.41358517 23.78922964 -13.95582669 22.99982552 -25.125 21.125 C-26.80722656 20.86396484 -26.80722656 20.86396484 -28.5234375 20.59765625 C-36.74239042 19.25760958 -36.74239042 19.25760958 -39 17 C-33.54413111 14.10402765 -28.07899466 11.22627626 -22.60498047 8.36474609 C-20.93273825 7.48866043 -19.26232135 6.60907673 -17.59423828 5.72509766 C-15.42286406 4.57587516 -13.24403051 3.44229452 -11.0625 2.3125 C-10.40765625 1.961875 -9.7528125 1.61125 -9.078125 1.25 C-5.58117809 -0.53896442 -3.70359805 -1.41230181 0 0 Z " fill="#FFFFFF" transform="translate(436,484)"/>
<path d="M0 0 C-2.71419432 2.8596462 -5.44360781 5.11773046 -8.73828125 7.27734375 C-9.64126953 7.87353516 -10.54425781 8.46972656 -11.47460938 9.08398438 C-12.41111328 9.69564453 -13.34761719 10.30730469 -14.3125 10.9375 C-16.16347785 12.15385687 -18.01375263 13.37128438 -19.86328125 14.58984375 C-21.20084473 15.45935669 -21.20084473 15.45935669 -22.56542969 16.34643555 C-24.6311062 17.74944668 -26.49385343 19.23556915 -28.41015625 20.828125 C-33.04750693 24.17957426 -38.58422852 24.2852872 -44.125 24.8125 C-45.19621094 24.93302734 -46.26742188 25.05355469 -47.37109375 25.17773438 C-51.93721446 25.675288 -56.40357551 26.06399821 -61 26 C-57.13612748 21.04941334 -52.87999456 16.94931567 -48 13 C-47.29580933 12.29786377 -47.29580933 12.29786377 -46.57739258 11.58154297 C-39.75397816 5.44902208 -31.03055288 4.68966526 -22.3125 3.125 C-20.70472045 2.8169652 -19.09729358 2.50708362 -17.49023438 2.1953125 C-4.8913108 -0.20095576 -4.8913108 -0.20095576 0 0 Z " fill="#FFFFFF" transform="translate(405,489)"/>
<path d="M0 0 C0.6703125 0.23847656 1.340625 0.47695313 2.03125 0.72265625 C3.65090205 1.30110341 5.26377588 1.89847633 6.875 2.5 C3.55315888 4.71456075 1.91668054 4.9069685 -1.99829102 5.29370117 C-3.20707413 5.41690231 -4.41585724 5.54010345 -5.66127014 5.66703796 C-6.97059006 5.79109512 -8.27990997 5.91515228 -9.62890625 6.04296875 C-10.99076254 6.17656982 -12.3525733 6.31063565 -13.71434021 6.44514465 C-16.57280392 6.72545689 -19.43178429 6.99949821 -22.29125977 7.26928711 C-25.93138706 7.61331336 -29.56968335 7.97359158 -33.20773411 8.33884716 C-36.02374066 8.61954107 -38.84058964 8.89091057 -41.65775871 9.15966225 C-43.64440437 9.35094325 -45.63026961 9.55027549 -47.61610413 9.74980164 C-56.61747813 10.58163304 -65.07477101 10.78793238 -73.75 7.9375 C-74.58789062 7.66808594 -75.42578125 7.39867187 -76.2890625 7.12109375 C-76.89492187 6.91613281 -77.50078125 6.71117187 -78.125 6.5 C-78.125 5.84 -78.125 5.18 -78.125 4.5 C-70.47549691 3.58039107 -62.82525018 2.66719905 -55.17403603 1.76194 C-51.62036689 1.34128613 -48.0669771 0.9185192 -44.51416016 0.49072266 C-41.07826893 0.07708739 -37.64173092 -0.33073528 -34.20469284 -0.73472595 C-32.27129655 -0.96345771 -30.33859402 -1.19802971 -28.40591431 -1.43273926 C-18.43072637 -2.59724339 -9.51620595 -3.59285327 0 0 Z " fill="#FFFFFF" transform="translate(203.125,501.5)"/>
<path d="M0 0 C3.02612617 2.70053032 5.10425761 5.97246564 7.25 9.375 C7.62640625 9.93960937 8.0028125 10.50421875 8.390625 11.0859375 C11.05055054 15.31052512 11.05055054 15.31052512 10.84228516 18.15112305 C9.63787042 22.22483769 7.87168608 25.96764269 6.0703125 29.80859375 C5.48381424 31.07510521 5.48381424 31.07510521 4.88546753 32.36720276 C3.63701461 35.05967396 2.38101501 37.7485495 1.125 40.4375 C0.2872853 42.24261813 -0.54995937 44.04795446 -1.38671875 45.85351562 C-7.91960052 59.92486895 -7.91960052 59.92486895 -11 66 C-11.33 66 -11.66 66 -12 66 C-11.37480785 58.24856004 -10.15111309 50.67281745 -8.75 43.02734375 C-8.53182617 41.82308243 -8.31365234 40.61882111 -8.08886719 39.37806702 C-7.63020099 36.85235787 -7.16955854 34.32700688 -6.70703125 31.80200195 C-5.99664988 27.91918886 -5.2948163 24.03489518 -4.59375 20.15039062 C-4.14634178 17.69261572 -3.69844283 15.23493009 -3.25 12.77734375 C-2.93434082 11.0275547 -2.93434082 11.0275547 -2.61230469 9.24241638 C-2.41540039 8.17362747 -2.21849609 7.10483856 -2.015625 6.00366211 C-1.84321289 5.05897568 -1.67080078 4.11428925 -1.49316406 3.14097595 C-1 1 -1 1 0 0 Z " fill="#FFFFFF" transform="translate(647,287)"/>
<path d="M0 0 C0.05387706 10.20499981 -0.05180822 20.39184089 -0.37231445 30.59204102 C-0.43780576 32.69732883 -0.49741736 34.80273068 -0.55664062 36.90820312 C-0.80536537 45.29341392 -1.2674105 53.64128864 -2 62 C-5.6969634 58.3030366 -6.85796646 52.84277629 -8.625 48 C-9.04523437 46.90042969 -9.46546875 45.80085938 -9.8984375 44.66796875 C-12.40220923 37.81511302 -13.45774791 32.25530437 -13 25 C-13.05542969 23.87851563 -13.11085938 22.75703125 -13.16796875 21.6015625 C-13.22262336 13.27220064 -10.55047217 9.32027032 -4.94995117 3.60595703 C-1.23563176 0 -1.23563176 0 0 0 Z " fill="#FFFFFF" transform="translate(29,115)"/>
<path d="M0 0 C3.20380057 1.40006526 5.22979685 3.03462129 7.6015625 5.58984375 C8.25640625 6.29173828 8.91125 6.99363281 9.5859375 7.71679688 C10.25882813 8.44962891 10.93171875 9.18246094 11.625 9.9375 C12.305625 10.66646484 12.98625 11.39542969 13.6875 12.14648438 C16.3556977 15.02297023 18.8188255 17.72823825 21 21 C20.56014585 27.11797138 15.30658637 32.95577625 11 37 C7.33204866 37.78194755 4.49179932 37.30942474 1 36 C0 35 0 35 -0.11352539 31.67358398 C-0.11336629 30.19774444 -0.10767314 28.72189931 -0.09765625 27.24609375 C-0.09553383 26.08292381 -0.09553383 26.08292381 -0.09336853 24.89625549 C-0.08775345 22.40996506 -0.07519846 19.9237634 -0.0625 17.4375 C-0.05748694 15.75586067 -0.0529237 14.07421994 -0.04882812 12.39257812 C-0.03777913 8.26168434 -0.02050445 4.13085724 0 0 Z " fill="#FFFFFF" transform="translate(14,476)"/>
<path d="M0 0 C7.38101995 1.50772924 14.63536194 3.34181117 21.88720703 5.38085938 C23.02158203 5.68894531 24.15595703 5.99703125 25.32470703 6.31445312 C26.39978516 6.61480469 27.47486328 6.91515625 28.58251953 7.22460938 C29.55463379 7.49466797 30.52674805 7.76472656 31.52832031 8.04296875 C33.76220703 8.88085938 33.76220703 8.88085938 34.76220703 10.88085938 C27.16363114 11.59617099 19.56472409 12.30788107 11.96557617 13.01708984 C9.38053753 13.2587732 6.79557579 13.50128053 4.21069336 13.74462891 C0.49499101 14.0942917 -3.22097791 14.44098917 -6.93701172 14.78710938 C-8.09238937 14.89647827 -9.24776703 15.00584717 -10.43815613 15.11853027 C-12.05927055 15.26868591 -12.05927055 15.26868591 -13.71313477 15.421875 C-14.66133591 15.51069946 -15.60953705 15.59952393 -16.58647156 15.69104004 C-19.14770575 15.87440965 -21.67106239 15.91503131 -24.23779297 15.88085938 C-24.23779297 15.22085938 -24.23779297 14.56085937 -24.23779297 13.88085938 C-22.54125977 12.58398438 -22.54125977 12.58398438 -20.18701172 11.13085938 C-19.34332031 10.60492188 -18.49962891 10.07898437 -17.63037109 9.53710938 C-16.73769531 8.99054687 -15.84501953 8.44398437 -14.92529297 7.88085938 C-13.17912412 6.7976471 -11.4330274 5.71431853 -9.68701172 4.63085938 C-8.90672607 4.15132812 -8.12644043 3.67179687 -7.32250977 3.17773438 C-2.03975663 -0.10859712 -2.03975663 -0.10859712 0 0 Z " fill="#FFFFFF" transform="translate(318.23779296875,22.119140625)"/>
<path d="M0 0 C2 1 2 1 2.96142578 3.28710938 C8.52036092 20.55705181 11.25154777 35.75628436 10 54 C4.29443334 48.70197382 1.5921987 44.37328328 1.24188232 36.61172485 C1.21877991 35.68024628 1.19567749 34.7487677 1.171875 33.7890625 C1.1331427 32.82092621 1.0944104 31.85278992 1.05450439 30.85531616 C0.93544363 27.77889667 0.84236305 24.70232521 0.75 21.625 C0.6735908 19.53248873 0.59548443 17.44003869 0.515625 15.34765625 C0.32408716 10.23227131 0.15583529 5.11659199 0 0 Z " fill="#FFFFFF" transform="translate(645,89)"/>
<path d="M0 0 C0.33 0 0.66 0 1 0 C0.88444496 1.70899819 0.75706997 3.41719869 0.625 5.125 C0.55539063 6.07632813 0.48578125 7.02765625 0.4140625 8.0078125 C-0.39697375 13.86869708 -2.26648229 17.80418604 -6 22.375 C-7.051875 23.68597656 -7.051875 23.68597656 -8.125 25.0234375 C-8.74375 25.67570312 -9.3625 26.32796875 -10 27 C-10.66 27 -11.32 27 -12 27 C-12.77350334 16.17095324 -9.25463774 10.45951584 -2.46875 2.60546875 C-1.6540625 1.74566406 -0.839375 0.88585937 0 0 Z " fill="#FFFFFF" transform="translate(36,208)"/>
<path d="M0 0 C-3.49835844 3.70605319 -7.00850064 6.52199492 -11.3125 9.3125 C-12.38113281 10.00988281 -13.44976562 10.70726562 -14.55078125 11.42578125 C-15.35902344 11.94527344 -16.16726563 12.46476563 -17 13 C-18.25676369 9.22970893 -17.77637985 7.43024196 -16.34765625 3.80859375 C-14.52141503 1.3577251 -13.08694053 1.10474792 -10.125 0.5 C-6.73453744 0.04379097 -3.41854017 -0.04901133 0 0 Z " fill="#FFFFFF" transform="translate(348,502)"/>
</svg>
