<?xml version="1.0" encoding="UTF-8"?>
<svg version="1.1" xmlns="http://www.w3.org/2000/svg" width="1425" height="1167">
<path d="M0 0 C1.67333158 3.12147545 3.33751716 6.24773498 5 9.375 C5.47695313 10.26445313 5.95390625 11.15390625 6.4453125 12.0703125 C6.89648438 12.92109375 7.34765625 13.771875 7.8125 14.6484375 C8.23144531 15.43395996 8.65039062 16.21948242 9.08203125 17.02880859 C10 19 10 19 10 21 C10.88474503 20.97494385 11.76949005 20.9498877 12.68104553 20.92407227 C44.54936285 20.03836353 76.42280256 19.54360367 108.29925537 19.0625 C114.4711359 18.96934126 120.64300527 18.87545574 126.81486857 18.7811631 C128.17516643 18.76040912 129.53546515 18.73971086 130.89576471 18.71906865 C138.29787324 18.60674239 145.69988277 18.49054411 153.10176086 18.36387634 C155.73295921 18.31921913 158.36415935 18.27466734 160.99536133 18.23022461 C162.27508222 18.20855445 163.5548031 18.18688429 164.87330341 18.16455746 C171.88019011 18.05078296 178.88572346 17.9734802 185.8934536 17.94235516 C215.79703138 17.80511981 244.95960127 15.23083285 274.60418701 11.36859131 C280.29048962 10.63319213 285.98032143 9.92614803 291.66992188 9.21679688 C298.04228716 8.42105771 304.41422834 7.62274647 310.78367615 6.80393982 C311.73050262 6.68235504 312.6773291 6.56077026 313.65284729 6.4355011 C315.41848954 6.20826239 317.18399594 5.9799647 318.94934082 5.75042725 C324.78050033 5 324.78050033 5 327 5 C326.34496718 9.05819183 325.05440879 12.53971282 323.4375 16.3125 C323.00703369 17.31692139 322.57656738 18.32134277 322.13305664 19.35620117 C321.75914795 20.22865479 321.38523926 21.1011084 321 22 C335.02849593 21.07723337 348.90210543 19.41435762 362.80859375 17.3984375 C363.64012592 17.2779731 364.4716581 17.1575087 365.32838821 17.03339386 C371.36608786 16.156251 377.40190063 15.2664603 383.4375 14.375 C389.53032219 13.47605214 395.62375788 12.58159994 401.71855354 11.69612503 C404.12766773 11.34410932 406.53568282 10.98518643 408.94371033 10.62582397 C410.42523566 10.40956863 411.90680582 10.19362 413.38842773 9.97802734 C414.66918686 9.78864594 415.94994598 9.59926453 417.26951599 9.40414429 C427.39446511 8.30725168 427.39446511 8.30725168 431.05395508 9.88623047 C431.53759521 10.29244629 432.02123535 10.69866211 432.51953125 11.1171875 C433.06673828 11.55933594 433.61394531 12.00148438 434.17773438 12.45703125 C434.71720703 12.92496094 435.25667969 13.39289062 435.8125 13.875 C436.92287646 14.78942767 438.03354346 15.70350267 439.14453125 16.6171875 C440.08683594 17.40351562 441.02914063 18.18984375 442 19 C445.16499448 21.10999632 446.09643794 21.27792926 449.7421875 21.40161133 C450.71127045 21.43652679 451.68035339 21.47144226 452.67880249 21.50741577 C453.73354767 21.53203888 454.78829285 21.55666199 455.875 21.58203125 C457.52636459 21.6228331 457.52636459 21.6228331 459.21109009 21.66445923 C462.80746516 21.73640375 466.40306007 21.77985033 470 21.8125 C471.82395294 21.83209274 471.82395294 21.83209274 473.68475342 21.8520813 C494.46970103 21.9713693 512.08658631 18.978214 531.18994141 10.89624023 C534.10212856 9.96742711 535.25548536 9.73364884 538 11 C539.97549069 13.14507348 541.73933692 15.25171994 543.5 17.5625 C544.26872437 18.56047607 544.26872437 18.56047607 545.05297852 19.57861328 C546.14013407 20.99193201 547.22411677 22.40769613 548.30517578 23.82568359 C550.00702674 26.00901471 551.77119551 28.12465466 553.55859375 30.23828125 C554.6855501 31.61665283 555.81187162 32.99554374 556.9375 34.375 C557.48792969 35.00349854 558.03835938 35.63199707 558.60546875 36.27954102 C560.1206011 38.18716242 561.13131768 39.72394104 562 42 C561.66363525 44.04618835 561.66363525 44.04618835 560.85644531 46.2097168 C560.56386337 47.0005365 560.27128143 47.7913562 559.96983337 48.60614014 C558.47965935 52.28436763 556.86928038 55.892965 555.20703125 59.49609375 C554.11167787 61.96607359 553.0247113 64.43964982 551.93774414 66.91333008 C551.19797617 68.57279223 550.44281873 70.22549441 549.67114258 71.87036133 C537.27700718 98.4177479 543.78894896 122.45268197 551.92425537 149.07434082 C553.78971751 155.19895801 555.5994626 161.34005843 557.39829636 167.48451614 C558.02759688 169.60971712 558.67715906 171.7278892 559.32974243 173.84603882 C559.71471272 175.13595548 560.09913309 176.42603642 560.48291016 177.71630859 C560.82488434 178.83701752 561.16685852 179.95772644 561.51919556 181.11239624 C562.07357087 184.44185017 561.76900842 185.2197027 560 188 C558.24097919 189.44261551 558.24097919 189.44261551 556.14924622 190.84210205 C549.15426908 196.10302395 543.1759896 201.57422864 541.69865328 210.5724299 C540.6155185 219.81820951 540.91134081 229.17671305 541.14457679 238.46383572 C541.23695363 242.83068132 541.23425888 247.19757846 541.24336243 251.56524658 C541.27176038 258.88249175 541.36251126 266.19667829 541.49780273 273.51269531 C541.671156 282.89803728 541.7471638 292.28148077 541.79066753 301.66822433 C541.82818578 309.76269039 541.90180038 317.85676097 541.9855082 325.95086765 C542.00299925 327.68325749 542.01935682 329.41565915 542.03458762 331.14807034 C542.0782737 336.07731905 542.1412447 341.0054879 542.2365818 345.934021 C542.26262058 347.42506041 542.28205908 348.91623201 542.29438782 350.40744781 C542.31261394 352.44349218 542.3579291 354.47924025 542.40458679 356.51483154 C542.43217591 358.22251772 542.43217591 358.22251772 542.46032238 359.96470261 C543.10997823 363.6185482 544.57483473 365.25742814 547 368 C547 368.66 547 369.32 547 370 C547.62648438 369.566875 548.25296875 369.13375 548.8984375 368.6875 C549.71570312 368.130625 550.53296875 367.57375 551.375 367 C552.18710938 366.443125 552.99921875 365.88625 553.8359375 365.3125 C556 364 556 364 558 364 C558.29537213 367.86890353 558.57930587 371.73849418 558.85449219 375.60888672 C558.99389712 377.54044027 559.14129728 379.47141177 559.2890625 381.40234375 C559.53063462 384.83611889 559.72821111 388.26537145 559.88665771 391.7036438 C559.96373659 393.26529013 560.05462966 394.82630267 560.15777588 396.38644409 C561.28888418 414.46304921 556.90548748 430.96980904 552.35253906 448.30133057 C546.36274949 470.43492063 546.36274949 470.43492063 548 493 C548.37121937 495.36496475 548.72853563 497.7321637 549.0703125 500.1015625 C549.59745764 503.39329107 550.13457735 506.68321126 550.67578125 509.97265625 C552.60933797 522.08282731 552.60933797 522.08282731 552 526 C550.62158203 527.61694336 550.62158203 527.61694336 548.9375 529.30078125 C546.94876653 531.40006491 546.06126513 532.42102025 545.75390625 535.32568359 C546.01384485 537.99779055 546.45615245 540.55854897 547 543.1875 C547.16282471 544.12295654 547.32564941 545.05841309 547.4934082 546.0222168 C547.9624476 548.689054 548.47254751 551.34418392 549 554 C552.24391618 570.88354036 550.72190834 587.09043529 549 604.0625 C548.71191374 606.94988801 548.42611319 609.83746657 548.14404297 612.72544861 C547.96982018 614.50444388 547.79199261 616.28309134 547.60986328 618.06129456 C546.53325069 627.71878241 546.53325069 627.71878241 549 636.9375 C553.50691312 648.58501517 550.84989438 663.17158585 549.8582592 675.4174633 C549.64645054 678.03774866 549.44303203 680.65857652 549.24159241 683.27967834 C548.66830676 690.71834802 548.0791202 698.15574393 547.48803711 705.59301758 C547.12439801 710.17560964 546.76897536 714.75878384 546.4182148 719.34237862 C546.21916274 721.90915043 546.01046065 724.47501942 545.80149841 727.04100037 C544.97863949 737.5143655 544.92093182 746.6841299 548.3203125 756.73828125 C548.77738559 758.14907499 549.23441563 759.55988267 549.69140625 760.97070312 C550.41070576 763.15501381 551.13350618 765.33812904 551.85791016 767.52075195 C552.56227126 769.65307102 553.25421253 771.78913445 553.9453125 773.92578125 C554.16607452 774.57686356 554.38683655 775.22794586 554.61428833 775.89875793 C555.70167155 779.27207998 556.39899253 781.66031425 555 785 C554.08041553 786.54457153 553.11756171 788.0637812 552.125 789.5625 C547.2259945 797.25712971 547.2259945 797.25712971 546 806 C548.18613104 809.01686083 550.33993881 811.58067405 553.10913086 814.05786133 C555.34236937 816.19760094 556.92538465 817.77038844 557.11816406 820.94726562 C556.63707522 823.73200655 555.86294867 826.30629247 555 829 C554.56263298 830.38578849 554.12538696 831.77161517 553.68823242 833.1574707 C552.92104561 835.57265422 552.15128247 837.98694717 551.37692261 840.39984131 C541.48218449 871.41696291 537.90560139 898.42337414 550.17211914 929.22094727 C550.42687012 929.87175766 550.68162109 930.52256805 550.9440918 931.19309998 C551.63984111 932.94078372 552.37046806 934.67447131 553.10375977 936.40673828 C555.08124522 944.33499512 552.60981166 952.43960031 550.71484375 960.21484375 C550.26205284 962.13729517 549.80958886 964.05982361 549.35742188 965.98242188 C548.64876987 968.96297934 547.93628904 971.94251754 547.2175293 974.9206543 C546.51837957 977.82878137 545.8345612 980.74020497 545.15234375 983.65234375 C544.93674301 984.52664536 544.72114227 985.40094696 544.49900818 986.30174255 C543.03443686 992.60528838 542.76067726 998.54011987 543 1005 C543.99 1005 544.98 1005 546 1005 C547.796875 1006.46875 547.796875 1006.46875 549.75 1008.5 C550.79800781 1009.58667969 550.79800781 1009.58667969 551.8671875 1010.6953125 C554.48783426 1013.52714691 557.04471251 1016.40568762 559.5546875 1019.3359375 C560.65402798 1020.60166464 561.8145434 1021.8145434 563 1023 C562.65653153 1027.38484405 561.33117279 1030.86882031 559.4609375 1034.81640625 C558.96335937 1035.91146484 558.46578125 1037.00652344 557.953125 1038.13476562 C556.91003378 1040.40039074 555.85036919 1042.65846656 554.7734375 1044.90820312 C551.09371571 1053.1157076 550.523217 1059.1626593 552 1068 C552.17660156 1069.299375 552.35320312 1070.59875 552.53515625 1071.9375 C552.79619141 1073.4534375 552.79619141 1073.4534375 553.0625 1075 C553.70147782 1078.73125733 554.10443778 1082.21238994 554 1086 C551.1700421 1086.8465686 548.33692438 1087.67738086 545.5 1088.5 C544.31277344 1088.85771484 544.31277344 1088.85771484 543.1015625 1089.22265625 C532.67177418 1092.21480864 523.92733953 1090.42585792 513.48828125 1088.33398438 C512.51246094 1088.15029297 511.53664063 1087.96660156 510.53125 1087.77734375 C509.66048828 1087.60452881 508.78972656 1087.43171387 507.89257812 1087.25366211 C500.76510715 1086.62862477 495.40647484 1088.38545061 489.1171875 1091.4140625 C487.60380757 1092.10103948 486.0894484 1092.78586252 484.57421875 1093.46875 C482.23885466 1094.53235235 479.91249305 1095.60691768 477.60107422 1096.72167969 C465.19536279 1102.66334843 455.45714265 1103.67425148 441.83752441 1102.27056885 C438.08371784 1101.91262898 434.33033196 1101.73544828 430.56445312 1101.55606079 C425.60112114 1101.31008278 420.64462169 1100.97258464 415.6875 1100.625 C414.09294983 1100.51327454 414.09294983 1100.51327454 412.46618652 1100.39929199 C391.0566223 1098.81951572 370.2847519 1095.06788352 349.2956543 1090.70947266 C348.12409286 1090.46667572 346.95253143 1090.22387878 345.74546814 1089.97372437 C343.55560633 1089.51578074 341.36735917 1089.05001598 339.1811676 1088.57485962 C329.56891706 1086.53598887 322.14088693 1087.21510515 312.640625 1089.44921875 C310.32776481 1089.97303555 308.01442865 1090.49475409 305.70068359 1091.01464844 C303.87812042 1091.42547668 303.87812042 1091.42547668 302.01873779 1091.84460449 C280.87646002 1096.57317197 259.98261505 1100.30528301 238.375 1102.25 C236.74069031 1102.39748184 236.74069031 1102.39748184 235.07336426 1102.54794312 C209.63115358 1104.7878262 209.63115358 1104.7878262 204.375 1101.953125 C193.14931996 1096.29484116 182.56399312 1092.86349826 170.125 1091.375 C168.87976563 1091.22321289 167.63453125 1091.07142578 166.3515625 1090.91503906 C147.067818 1088.88437164 128.59485926 1090.77584275 109.40917969 1092.93920898 C89.59314989 1095.15344505 72.77631877 1093.80848175 53.30639648 1090.01123047 C41.5094055 1087.72407052 30.01621581 1086.35482912 18 1086 C18.38349609 1086.67111816 18.76699219 1087.34223633 19.16210938 1088.03369141 C23 1094.75 23 1094.75 23 1097 C18.70153622 1098.34074221 14.39681965 1099.65824958 10.08496094 1100.95507812 C8.62048429 1101.39901581 7.15786881 1101.8491437 5.69726562 1102.30566406 C3.59188525 1102.96251979 1.48071591 1103.59649106 -0.6328125 1104.2265625 C-1.27993195 1104.43374908 -1.92705139 1104.64093567 -2.59378052 1104.85440063 C-8.2125391 1106.4882137 -11.45520249 1105.25571156 -16.53173828 1102.75073242 C-17.36946777 1102.29029541 -18.20719727 1101.8298584 -19.0703125 1101.35546875 C-45.37001867 1087.43261234 -71.87845343 1086.13546141 -101 1086 C-101.33 1086.99 -101.66 1087.98 -102 1089 C-104.26904297 1090.68579102 -104.26904297 1090.68579102 -107.2421875 1092.50390625 C-108.30824219 1093.16197266 -109.37429688 1093.82003906 -110.47265625 1094.49804688 C-111.59542969 1095.17931641 -112.71820312 1095.86058594 -113.875 1096.5625 C-116.080799 1097.91785511 -118.2865312 1099.27331893 -120.4921875 1100.62890625 C-121.47558105 1101.22775635 -122.45897461 1101.82660645 -123.47216797 1102.44360352 C-125.33789721 1103.59234062 -127.17696612 1104.78464408 -129 1106 C-131.66903565 1105.92014393 -134.17208548 1105.70776 -136.8125 1105.375 C-137.63508301 1105.28234863 -138.45766602 1105.18969727 -139.30517578 1105.09423828 C-144.52320995 1104.48731397 -149.71595522 1103.75256445 -154.91015625 1102.96875 C-176.27990635 1099.79881627 -196.95520689 1099.45632763 -218.5 1100.5 C-221.1483838 1100.62786128 -223.79675777 1100.75560753 -226.4453125 1100.87988281 C-228.1277761 1100.95898947 -229.81007992 1101.04158326 -231.4921875 1101.12792969 C-244.45626395 1101.72603574 -256.71901621 1100.18642796 -269.43359375 1097.77880859 C-278.8652405 1096.01728032 -287.30524851 1095.4607149 -296.8203125 1096.71875 C-310.16994787 1098.45177848 -320.97117476 1097.6551247 -333.75 1093.875 C-350.75142916 1088.91511276 -365.84771593 1090.42647705 -383.1763916 1093.03337097 C-388.0042679 1093.75528908 -392.7880387 1094.26521125 -397.6640625 1094.578125 C-414.90625507 1095.73321955 -428.11462573 1100.88526056 -442.88671875 1109.72802734 C-444.31951172 1110.56454834 -444.31951172 1110.56454834 -445.78125 1111.41796875 C-446.63783203 1111.93512451 -447.49441406 1112.45228027 -448.37695312 1112.98510742 C-452.92226615 1114.74375097 -456.06254734 1113.41153006 -460.39526367 1111.50952148 C-461.65427117 1110.88292894 -462.91175604 1110.25327072 -464.16796875 1109.62109375 C-482.88973766 1100.69212919 -498.0274438 1096.8459469 -518.80804443 1097.81561279 C-535.29225524 1098.56135608 -547.42205933 1096.18553099 -562.4309082 1089.03149414 C-573.07811358 1084.7566255 -586.78492945 1086.32600079 -598.0625 1086.1875 C-598.73295853 1086.17861755 -599.40341705 1086.16973511 -600.0941925 1086.1605835 C-627.26102042 1085.840208 -653.11252844 1089.5510942 -679.72680664 1094.73120117 C-680.4416582 1094.87004636 -681.15650976 1095.00889154 -681.89302349 1095.15194416 C-685.24346172 1095.80543814 -688.58855718 1096.47476975 -691.93058777 1097.17060852 C-703.88358195 1099.597949 -713.15606037 1099.06379393 -725.03125 1096.41015625 C-727.55986661 1095.8677023 -730.08851342 1095.32538912 -732.6171875 1094.78320312 C-736.54989862 1093.9292844 -740.48070757 1093.06676149 -744.41113281 1092.20239258 C-748.24045161 1091.36415653 -752.07211559 1090.53857305 -755.90625 1089.72265625 C-757.1380751 1089.459758 -758.36990021 1089.19685974 -759.63905334 1088.92599487 C-767.2936892 1087.3605135 -774.7409984 1086.28653365 -782.56933594 1086.55177307 C-786.47144429 1086.58270756 -788.5477686 1085.90023077 -791.35693359 1083.32055664 C-796.93772021 1077.32618567 -798.45401264 1071.95956252 -798.32421875 1063.8125 C-799.49397761 1057.21316677 -803.36924179 1051.8242843 -806.96044922 1046.24609375 C-807.50330566 1045.38113281 -808.04616211 1044.51617188 -808.60546875 1043.625 C-809.11231201 1042.85414062 -809.61915527 1042.08328125 -810.14135742 1041.2890625 C-811 1039 -811 1039 -810.36933899 1036.75172424 C-808.98802794 1033.97594181 -807.29342704 1031.77900101 -805.3273468 1029.39421177 C-798.82219443 1021.31846074 -797.55756494 1014.29087638 -797.8125 1004.06640625 C-797.81593666 1002.57535694 -797.81577624 1001.08429557 -797.81225586 999.59324646 C-797.8155348 996.4902443 -797.85238279 993.39018067 -797.91601562 990.2878418 C-797.99530755 986.35618227 -798.00410024 982.42835655 -797.98908997 978.49604893 C-797.98288231 975.42321552 -798.0074287 972.35120767 -798.04135132 969.2785778 C-798.0551876 967.83128999 -798.06168833 966.38390879 -798.05996704 964.93655586 C-798.07701325 955.50867864 -799.65524149 948.00947882 -803.55299377 939.4839325 C-806.12216581 933.2981803 -806.96050442 926.85697347 -807.9375 920.25 C-808.15823894 918.91775832 -808.3802429 917.58572563 -808.60351562 916.25390625 C-810.25433651 905.65278813 -809.68203221 896.69407971 -807.43798828 886.27954102 C-805.06733795 875.10170882 -804.74596828 864.94105169 -805.78662109 853.59814453 C-805.99071117 851.11310267 -806.09777077 848.64414936 -806.17578125 846.15234375 C-806.89268587 829.92708224 -810.83349056 814.35819886 -814.63256836 798.625 C-814.85906067 797.66467865 -815.08555298 796.7043573 -815.31890869 795.7149353 C-815.74650268 793.90461384 -816.18600941 792.09704647 -816.63983154 790.29312134 C-817.98471939 784.55719214 -818.03491756 779.79138209 -817 774 C-816.76543091 772.60177002 -816.76543091 772.60177002 -816.52612305 771.17529297 C-815.93973521 768.40170912 -815.32727831 765.63680644 -814.6875 762.875 C-814.31794189 761.27156738 -814.31794189 761.27156738 -813.94091797 759.63574219 C-811.83941999 751.13970347 -808.81019267 743.29820809 -805.4519043 735.25027466 C-796.05635066 712.52250808 -798.55912118 696.01474147 -804.7956543 672.67358398 C-807.92790182 660.79208674 -809.12878442 650.01932612 -807.125 637.75 C-806.96257813 636.69296875 -806.80015625 635.6359375 -806.6328125 634.546875 C-806 632 -806 632 -804 630 C-804.03540304 627.48646927 -804.03540304 627.48646927 -804.5859375 624.45703125 C-804.88709473 622.56331787 -804.88709473 622.56331787 -805.19433594 620.63134766 C-807.10553805 609.49214947 -809.18412174 598.38080001 -811.26464844 587.2722168 C-811.88411509 583.95749752 -812.49354071 580.64105375 -813.1015625 577.32421875 C-813.2921524 576.32090012 -813.48274231 575.31758148 -813.67910767 574.28385925 C-813.93970474 572.85110405 -813.93970474 572.85110405 -814.20556641 571.3894043 C-814.43634384 570.15035591 -814.43634384 570.15035591 -814.67178345 568.88627625 C-815.47001456 561.86677804 -814.93354861 555.3387004 -813.53125 548.44189453 C-813.37519287 547.63894958 -813.21913574 546.83600464 -813.05834961 546.00872803 C-812.72154488 544.28115847 -812.38094199 542.55432577 -812.03686523 540.82818985 C-811.4909148 538.08719947 -810.9559938 535.34425336 -810.42382812 532.60055542 C-809.10035997 525.78795085 -807.76028563 518.97864209 -806.41699219 512.16992188 C-805.28030936 506.4072265 -804.15187072 500.64304385 -803.03491211 494.87649155 C-802.51118327 492.19017388 -801.97552189 489.50641805 -801.43945312 486.82254028 C-798.71936113 472.97974324 -798.43853947 462.41282564 -802.28125 448.66015625 C-802.79012748 446.75978516 -803.29898757 444.85940923 -803.80686188 442.9587698 C-804.87159003 438.99152056 -805.9602389 435.03077455 -807.04656982 431.06939697 C-807.94337543 427.79638308 -808.83420662 424.52201911 -809.70983887 421.24327087 C-810.36395375 418.79864015 -811.03090951 416.35739503 -811.7130127 413.92042542 C-813.71292777 406.42989842 -814.41335092 399.73329521 -814 392 C-813.96039154 391.10455978 -813.92078308 390.20911957 -813.87997437 389.2865448 C-813.74086927 386.55406096 -813.56279537 383.82693756 -813.37109375 381.09765625 C-813.30144913 380.08270584 -813.2318045 379.06775543 -813.16004944 378.02204895 C-812.92707879 374.70157757 -812.68395585 371.38199671 -812.4375 368.0625 C-812.35274414 366.90872864 -812.26798828 365.75495728 -812.18066406 364.56622314 C-810.86003119 346.91273579 -808.92012174 329.40938502 -806.5 311.875 C-802.00040455 279.10269384 -802.00040455 279.10269384 -799.18847656 246.15301514 C-799.05665152 243.94772051 -798.91736578 241.74286493 -798.77246094 239.53839111 C-796.08739825 198.18165787 -800.20300572 166.54744412 -817.03817749 128.22738647 C-817.35557892 127.49234894 -817.67298035 126.7573114 -818 126 C-818.56007751 124.73285408 -818.56007751 124.73285408 -819.13146973 123.44010925 C-820.37633831 119.94268902 -819.81853977 116.80795311 -819.3203125 113.21484375 C-819.22259552 112.4364061 -819.12487854 111.65796844 -819.02420044 110.85594177 C-818.80813775 109.14696955 -818.58630573 107.43871941 -818.35949707 105.73114014 C-817.98901878 102.91657443 -817.64213167 100.09985893 -817.29980469 97.28173828 C-809.5327734 33.95255493 -809.5327734 33.95255493 -792 6 C-787.12743393 8.69731336 -783.48438357 12.19164212 -779.5 16.0390625 C-775.87253106 18.88435845 -773.23692692 19.09635248 -768.67015076 18.74061584 C-767.40284622 18.56074631 -766.13554169 18.38087677 -764.82983398 18.19555664 C-764.12661514 18.09816696 -763.4233963 18.00077728 -762.6988678 17.9004364 C-761.17660868 17.68854663 -759.65487512 17.4728536 -758.13363457 17.25377083 C-755.7156164 16.90576995 -753.29633951 16.56820327 -750.8764801 16.23326111 C-745.72884232 15.51887818 -740.58306957 14.79161081 -735.4375 14.0625 C-729.49454382 13.22043828 -723.55091777 12.38385635 -717.60530281 11.56075859 C-715.24046382 11.23059606 -712.87716413 10.89069525 -710.51377869 10.55030823 C-697.14242365 8.66218309 -685.15710242 8.88430615 -671.87647629 11.19171715 C-627.90412967 18.74454205 -584.68501244 22.19022446 -540.0625 22.25 C-538.85668652 22.2516856 -537.65087303 22.2533712 -536.40851974 22.25510788 C-521.60466791 22.26698513 -506.80269827 22.18216787 -492 22 C-491.56409546 20.84987427 -491.56409546 20.84987427 -491.11938477 19.67651367 C-489.78978013 16.49735213 -488.00607024 14.06433663 -485.9375 11.3125 C-483.24079956 7.79692983 -483.24079956 7.79692983 -481 4 C-473.08 4 -465.16 4 -457 4 C-462.27838544 14.55677088 -462.27838544 14.55677088 -468.05334473 16.79627991 C-470.45038628 17.51241732 -472.8537305 18.14928996 -475.28125 18.75390625 C-476.11946289 18.97405396 -476.95767578 19.19420166 -477.82128906 19.42102051 C-479.87776575 19.95930768 -481.93849702 20.48129495 -484 21 C-450.65373652 22.40101294 -419.83559462 19.54829606 -387.1268158 13.11721802 C-374.05517179 10.56794508 -360.91792692 8.4936064 -347.75637817 6.47189331 C-343.94960383 5.88647286 -340.14457008 5.29062039 -336.33959961 4.69360352 C-334.01557421 4.33407365 -331.6914423 3.97523137 -329.3671875 3.6171875 C-328.3157103 3.45205154 -327.26423309 3.28691559 -326.18089294 3.11677551 C-316.41269297 1.63733901 -308.42501752 2.33051682 -298.796875 4.4140625 C-297.60564026 4.666185 -296.41440552 4.9183075 -295.18707275 5.17807007 C-291.3732758 5.98710909 -287.56167694 6.80603785 -283.75 7.625 C-281.26445452 8.1529637 -278.77877844 8.68031293 -276.29296875 9.20703125 C-259.83914068 12.70300407 -243.41395121 16.32180295 -227 20 C-227.52730713 18.95497314 -228.05461426 17.90994629 -228.59790039 16.83325195 C-228.91211945 16.21036285 -229.2263385 15.58747375 -229.55007935 14.94570923 C-230.20484561 13.64844836 -230.86077079 12.35177227 -231.51733398 11.05541992 C-232.8543276 8.39328479 -234.05663531 5.83009406 -235 3 C-226.31700449 4.22619953 -217.76658175 5.81562983 -209.19907951 7.68013763 C-205.71230437 8.43440999 -202.22000413 9.16244785 -198.72851562 9.89453125 C-194.33725759 10.81571379 -189.94814785 11.7443361 -185.56567383 12.70654297 C-181.97672367 13.49377868 -178.38242487 14.25061796 -174.78317451 14.98926544 C-172.79864972 15.40434624 -170.82047625 15.84944974 -168.84275818 16.2958374 C-158.80894153 18.32166365 -150.04060552 17.73731135 -139.97000313 16.39338684 C-136.75634098 15.96772655 -133.5396456 15.57643993 -130.32102966 15.19006348 C-123.27321455 14.33938623 -116.22980781 13.45511288 -109.18672085 12.56634665 C-105.65010798 12.12088057 -102.1130381 11.67907594 -98.57598877 11.23709106 C-86.58987538 9.73866966 -74.60449019 8.23447637 -62.61962891 6.72607422 C-55.96172089 5.8881561 -49.30337733 5.05378794 -42.64455247 4.22318661 C-38.45476796 3.70035091 -34.26556387 3.17315236 -30.07675028 2.64259696 C-26.86253291 2.23678002 -23.64751441 1.83740146 -20.43261719 1.43701172 C-19.28655502 1.29054199 -18.14049286 1.14407227 -16.95970154 0.99316406 C-11.25523305 0.28921032 -5.74773014 -0.16017015 0 0 Z M470.40380859 39.55712891 C469.32763275 39.89813629 468.25145691 40.23914368 467.14266968 40.59048462 C465.41302475 41.15284317 465.41302475 41.15284317 463.6484375 41.7265625 C462.4391861 42.11186127 461.22993469 42.49716003 459.98403931 42.89413452 C456.76424797 43.92144996 453.54696227 44.95596091 450.33074951 45.99438477 C447.13098888 47.02612108 443.92872805 48.04996949 440.7265625 49.07421875 C438.85692841 49.67227325 438.85692841 49.67227325 436.94952393 50.28240967 C432.08581663 51.83594065 427.22053972 53.38449785 422.35437012 54.93029785 C420.19468478 55.61901733 418.03643581 56.31226582 415.88000488 57.0111084 C413.12453895 57.90349775 410.36410145 58.77824083 407.6015625 59.6484375 C406.81929291 59.90694489 406.03702332 60.16545227 405.23104858 60.43179321 C400.46950803 61.90646787 396.97310504 62.1687798 392 61 C389.91796875 59.72265625 389.91796875 59.72265625 388.1875 58.0625 C387.52621094 57.44117187 386.86492187 56.81984375 386.18359375 56.1796875 C382.85851313 52.86055515 379.55355149 49.52304 376.296875 46.13671875 C371.80354164 41.95669605 368.37870575 41.71482086 362.43127441 41.82894897 C355.19859018 42.18950249 348.00132572 42.92702574 340.796875 43.64453125 C339.02927062 43.81706304 337.26163067 43.9892308 335.49395752 44.16105652 C331.79543759 44.52173699 328.09730156 44.88606735 324.39941406 45.25317383 C319.73059622 45.71648624 315.06104488 46.17183538 310.39120579 46.62472343 C286.87689989 48.88685563 286.87689989 48.88685563 263.41796875 51.65234375 C262.55173889 51.76463821 261.68550903 51.87693268 260.79302979 51.99263 C242.40177968 54.49597811 226.61662038 60.96615724 210.79296875 70.3984375 C204.13991401 74.21347588 195.44309313 74.33333424 188.03857422 72.51953125 C183.97890677 71.22109929 180.06147064 69.56753318 176.140625 67.90283203 C129.76056902 48.34153561 85.97071032 55.89410656 39 70 C35.25741039 71.1227282 31.51476648 72.24522831 27.77099609 73.36401367 C25.442745 74.06147382 23.11613788 74.76445415 20.79150391 75.47387695 C6.18453102 79.87387775 -6.29138956 79.2588555 -21.21875 76.6484375 C-22.77050964 76.38351046 -24.32230968 76.11882 -25.87414551 75.8543396 C-52.28423481 71.31262591 -78.60299106 66.21303299 -104.9296875 61.21533203 C-110.96060038 60.07090912 -116.99342954 58.93710652 -123.02760315 57.810009 C-125.29597126 57.38420781 -127.56360472 56.9544714 -129.83042908 56.52052689 C-151.21735796 52.42846493 -163.99757569 51.49961635 -182.75 63.5625 C-204.12857093 77.17119202 -222.506269 74.50948545 -246.7890625 70.75390625 C-249.03025462 70.41857752 -251.27166413 70.08469891 -253.51327515 69.75218201 C-259.36418025 68.88136215 -265.21268882 67.995486 -271.06060791 67.1048584 C-280.4221648 65.68040259 -289.78634744 64.27370232 -299.15217209 62.87760735 C-302.38832806 62.39214254 -305.62284845 61.89676214 -308.85733032 61.40028381 C-333.23406171 57.70618185 -354.52072901 56.05502303 -376.125 70.3125 C-381.13156538 73.40455478 -385.21340985 74.2260512 -391 73 C-397.12121629 70.60611095 -402.38441632 66.42422915 -407.640625 62.55078125 C-417.38165797 56.14814865 -429.12736262 57.78738113 -440 60 C-446.76887702 61.63748021 -453.43602542 63.68980661 -460.10571289 65.68652344 C-474.38702752 69.93722325 -487.78345748 72.45981698 -502.73461914 71.71459961 C-503.64591457 71.66941916 -504.55721001 71.62423872 -505.49612045 71.57768917 C-515.39051119 71.01787155 -525.12759946 69.65478969 -534.921875 68.19140625 C-536.89054462 67.9051278 -538.85935495 67.6198156 -540.82829285 67.33538818 C-544.98749633 66.73286981 -549.14579243 66.12457031 -553.30343628 65.51138306 C-559.8342909 64.54853016 -566.36719008 63.60012866 -572.90063477 62.6550293 C-574.541552 62.41761882 -574.541552 62.41761882 -576.21561909 62.17541218 C-578.42863053 61.85526 -580.64164864 61.53515382 -582.85467339 61.21509361 C-586.17644405 60.73427906 -589.49803875 60.2522648 -592.81959534 59.76997375 C-612.09159117 56.97363278 -631.37503958 54.26667329 -650.6686554 51.62391281 C-652.89880429 51.31781122 -655.12870295 51.00995178 -657.35852051 50.70144653 C-671.49514371 48.7465999 -685.63790896 46.85945944 -699.81640625 45.23046875 C-700.88914291 45.10384354 -701.96187958 44.97721832 -703.06712341 44.84675598 C-722.51093261 42.6867181 -739.15261352 46.71531273 -757.5 52.6875 C-759.11300011 53.20465375 -760.72628049 53.72093416 -762.33984375 54.23632812 C-766.22985128 55.48089079 -770.11592974 56.73703623 -774 58 C-774.52611279 68.04102541 -775.04797099 78.08226245 -775.56460571 88.12378025 C-775.80470625 92.78795118 -776.04619552 97.45204103 -776.29101562 102.1159668 C-776.52784162 106.62862734 -776.76081461 111.14147271 -776.99127197 115.65446281 C-777.07923103 117.36423591 -777.16850858 119.07394177 -777.25921631 120.78357124 C-778.54638546 145.08929656 -775.99310507 165.88015095 -769.86914062 189.42944336 C-762.04994254 219.64772262 -765.5547305 245.05605777 -773.86303711 274.60302734 C-774.06057083 275.30775681 -774.25810455 276.01248627 -774.46162415 276.73857117 C-775.0072292 278.67971294 -775.557428 280.61956184 -776.10791016 282.55932617 C-785.94486194 320.49916239 -768.47477146 358.75814365 -753.05171204 392.44511414 C-752.0243295 394.68945766 -750.99835669 396.93444222 -749.97241211 399.17944336 C-748.63913942 402.09632837 -747.29793197 405.0093738 -745.95141602 407.92016602 C-745.33072657 409.27222228 -744.71019517 410.62435111 -744.08984375 411.9765625 C-743.54191162 413.16330566 -742.99397949 414.35004883 -742.42944336 415.57275391 C-739.63596913 422.27041254 -737.74659296 428.75270067 -739 436 C-740.59259271 439.39134399 -742.72041719 442.22678809 -745 445.1875 C-746.20584614 446.85553818 -747.40634646 448.52745352 -748.6015625 450.203125 C-749.18711914 451.01845703 -749.77267578 451.83378906 -750.37597656 452.67382812 C-756.07732827 460.84016593 -760.05818794 469.65844619 -763.296875 479.04296875 C-763.59602814 479.90459625 -763.89518127 480.76622375 -764.20339966 481.65396118 C-767.41115985 491.0150968 -770.25087005 500.48151875 -773.02734375 509.97802734 C-773.88920383 512.9235434 -774.76051152 515.86615467 -775.6328125 518.80859375 C-776.19065236 520.70296366 -776.74796453 522.59748906 -777.3046875 524.4921875 C-777.56192596 525.36092499 -777.81916443 526.22966248 -778.084198 527.12472534 C-782.06237438 540.78555339 -781.76451681 553.88230001 -779.3359375 567.7890625 C-779.16027756 568.81773437 -778.98461761 569.84640625 -778.80363464 570.90625 C-776.53498162 583.98084113 -773.91592846 596.9888623 -771.3125 610 C-770.56312119 613.75051889 -769.81489434 617.50125061 -769.07011414 621.25268555 C-768.61209833 623.55938538 -768.15149626 625.86557381 -767.68782043 628.17114258 C-764.18728538 645.79008561 -765.12671032 660.57376301 -769 678 C-769.56606146 680.60341001 -770.12660923 683.20796761 -770.6875 685.8125 C-770.91824219 686.85019531 -771.14898438 687.88789062 -771.38671875 688.95703125 C-777.11743674 717.39161286 -771.94707167 748.81423026 -769.63641357 777.39910889 C-766.78008 812.87038192 -764.2487583 848.28167719 -763.875 883.875 C-763.85659776 885.35157343 -763.83813556 886.82814612 -763.8196106 888.30471802 C-763.31289283 932.39124916 -763.31289283 932.39124916 -774.140625 944.734375 C-779.57555601 952.17668623 -778.72609579 959.226692 -778.125 967.9375 C-778.04006304 969.60648851 -777.95928685 971.27569312 -777.88232422 972.94506836 C-777.70946732 976.60229942 -777.51437669 980.25756929 -777.30859375 983.91308594 C-776.95040441 990.57710548 -776.75443578 997.24351078 -776.5625 1003.9140625 C-776.45393962 1007.46155975 -776.34372054 1011.00900127 -776.23284912 1014.556427 C-776.16117016 1016.88664235 -776.09234537 1019.21694731 -776.02642822 1021.54733276 C-775.92988571 1024.835573 -775.81490206 1028.1226839 -775.6953125 1031.41015625 C-775.65760742 1032.88429489 -775.65760742 1032.88429489 -775.61914062 1034.38821411 C-775.34540081 1041.24429601 -774.03834328 1046.41223187 -769 1051.375 C-767.67459331 1052.59202273 -766.33977718 1053.79881545 -765 1055 C-763.84351078 1056.04776564 -763.84351078 1056.04776564 -762.66365814 1057.11669827 C-756.49059732 1062.1895208 -752.40828689 1063.88015926 -744.44013977 1063.11801147 C-743.27202255 1062.95990997 -742.10390533 1062.80180847 -740.90039062 1062.63891602 C-739.0079084 1062.43825279 -739.0079084 1062.43825279 -737.07719421 1062.23353577 C-733.6439872 1061.86849783 -730.21965577 1061.44816358 -726.7942028 1061.01707578 C-723.19026036 1060.57345147 -719.58062806 1060.18220053 -715.97131348 1059.78514099 C-709.13789235 1059.02551047 -702.31071966 1058.21999467 -695.48463106 1057.39733785 C-687.75323729 1056.46772802 -680.01643695 1055.58801266 -672.27867985 1054.71320832 C-662.82936525 1053.64461625 -653.38096061 1052.56917771 -643.93713379 1051.45301819 C-642.93346645 1051.33451187 -642.93346645 1051.33451187 -641.90952301 1051.21361148 C-638.79269528 1050.84524015 -635.67611672 1050.47492102 -632.55986023 1050.10174561 C-612.83825124 1047.76099518 -595.14539364 1046.56305253 -575.6875 1051.375 C-574.70319504 1051.61768112 -574.70319504 1051.61768112 -573.69900513 1051.86526489 C-570.53956036 1052.64628249 -567.38138544 1053.4323925 -564.22314453 1054.21826172 C-537.07997323 1060.80153959 -507.0796237 1056.8827425 -479.57098389 1054.29299927 C-474.28798808 1053.7957524 -469.00290721 1053.32361566 -463.71728516 1052.85522461 C-456.53639855 1052.2174029 -449.35600429 1051.57449402 -442.17626953 1050.92382812 C-440.88033686 1050.80640337 -440.88033686 1050.80640337 -439.55822372 1050.68660641 C-435.50195344 1050.31871035 -431.44579841 1049.94959559 -427.38983154 1049.57836914 C-378.64883069 1045.11941581 -330.19638849 1042.00221996 -281.47851562 1048.18994141 C-271.40881005 1049.46238158 -261.32494679 1050.61932467 -251.24380493 1051.79692078 C-250.39076468 1051.89657418 -249.53772442 1051.99622759 -248.65883446 1052.09890079 C-246.9202787 1052.30198819 -245.18171383 1052.50499764 -243.44314003 1052.70793056 C-238.31660218 1053.30719418 -233.19110864 1053.91454524 -228.06640911 1054.52932549 C-204.45231164 1057.36134207 -180.85624631 1060.01528023 -157.0625 1060.6875 C-156.05760529 1060.71594498 -156.05760529 1060.71594498 -155.03240967 1060.7449646 C-141.64504098 1061.10726625 -128.36485871 1060.89196346 -115 1060 C-114.10319519 1059.94050171 -113.20639038 1059.88100342 -112.28240967 1059.81970215 C-105.82328639 1059.38627511 -99.36673688 1058.92375585 -92.91131592 1058.43832397 C-90.71288902 1058.27366333 -88.51420152 1058.11243857 -86.31524658 1057.95498657 C-75.61523947 1057.17925706 -65.03394079 1056.2669672 -54.515625 1054.08984375 C-53.77772232 1053.93807175 -53.03981964 1053.78629974 -52.27955627 1053.62992859 C-45.62893269 1052.13533404 -39.54805085 1049.52041456 -33.41796875 1046.5859375 C-18.75286593 1039.78132979 -4.66977298 1043.33048961 10.26367188 1047.28125 C14.80761769 1048.47480608 19.3711504 1049.58340504 23.9375 1050.6875 C25.14152466 1050.99046997 25.14152466 1050.99046997 26.36987305 1051.29956055 C38.97741127 1054.37441395 51.50499401 1055.4045717 64.4375 1055.375 C65.17346405 1055.37578552 65.9094281 1055.37657104 66.66769409 1055.37738037 C80.53221528 1055.35976511 93.74018938 1053.75135535 107.22607422 1050.45605469 C116.93590385 1048.1408155 126.55921789 1047.79545074 136.50268555 1048.22851562 C137.58018664 1048.27439064 138.65768774 1048.32026566 139.76784039 1048.36753082 C152.25451619 1048.99076404 164.57993306 1050.64184681 176.95703125 1052.34375 C179.44831576 1052.67731459 181.93974898 1053.00977019 184.43132019 1053.34118652 C190.90998024 1054.20551034 197.38679881 1055.08288411 203.86322021 1055.96380615 C214.26903933 1057.37660456 224.67777875 1058.76776522 235.08618736 1060.16133118 C238.69148245 1060.64576284 242.29608741 1061.13506936 245.90058899 1061.62536621 C248.12357742 1061.92543807 250.34657402 1062.2254494 252.56958008 1062.52539062 C253.55314484 1062.66048538 254.53670959 1062.79558014 255.55007935 1062.93476868 C286.81438919 1067.13210636 314.49646197 1061.21804899 344.86358643 1054.43530273 C351.5073249 1052.95306784 358.15401193 1051.48408386 364.80022049 1050.01297379 C367.10166462 1049.50256076 369.40249896 1048.98947637 371.70321655 1048.47579956 C373.1138255 1048.16206627 374.52443926 1047.84835457 375.93505859 1047.53466797 C377.15824799 1047.26169891 378.38143738 1046.98872986 379.64169312 1046.70748901 C396.63256848 1043.12804912 412.752795 1044.0996768 429 1050 C437.4192438 1052.84699679 445.07939039 1054.85357585 454 1055 C455.1240625 1055.04769531 456.248125 1055.09539063 457.40625 1055.14453125 C470.80310975 1055.07043357 479.18356092 1047.19170862 488.4296875 1038.28125 C491 1036 491 1036 494.3203125 1033.84375 C497.85508123 1031.52351763 500.46061203 1029.43087524 503 1026 C503.0774377 1022.55402215 502.63942616 1019.58734325 502.046875 1016.21313477 C501.07996202 1007.8390976 504.42118101 1001.15844626 507.7210083 993.68902588 C514.97023524 977.78781064 514.97023524 977.78781064 512.609375 960.98046875 C512.33802734 960.33255371 512.06667969 959.68463867 511.78710938 959.01708984 C510.37982219 955.41069818 509.624831 951.65175977 508.8125 947.875 C508.64548584 947.12250977 508.47847168 946.37001953 508.30639648 945.59472656 C503.78600142 924.52854116 506.97493923 903.64681137 511.57421875 882.90234375 C522.4691312 836.85521726 522.4691312 836.85521726 513.99072266 791.16796875 C512.15791619 785.30732394 513.35124745 780.35542937 514.94140625 774.58203125 C515.03688516 768.745087 511.89833182 764.57779136 508.9375 759.6875 C508.07608398 758.21506836 508.07608398 758.21506836 507.19726562 756.71289062 C504.92121842 752.83565576 502.60097405 748.98665113 500.26220703 745.14697266 C499.72321777 744.25929199 499.18422852 743.37161133 498.62890625 742.45703125 C498.14623291 741.66917236 497.66355957 740.88131348 497.16625977 740.06958008 C493.63197702 733.79783739 494.17510504 727.00107244 496.03222656 720.24462891 C496.49577655 718.83940714 496.97009187 717.43770677 497.453125 716.0390625 C497.71567581 715.2654689 497.97822662 714.49187531 498.24873352 713.69483948 C500.45565417 707.31574195 502.90641211 701.04174401 505.41796875 694.77734375 C505.99859825 693.32910469 505.99859825 693.32910469 506.59095764 691.85160828 C508.18833386 687.87930433 509.78951174 683.9088007 511.4128418 679.94702148 C516.42954464 667.67223864 520.41188472 656.2086839 522 643 C522.21809326 641.75758545 522.43618652 640.5151709 522.66088867 639.23510742 C523.30634832 633.93541137 522.33524885 628.89585674 521.4375 623.671875 C521.25482071 622.58100082 521.07214142 621.49012665 520.88392639 620.36619568 C520.27688522 616.82341039 519.64289552 613.28644714 519 609.75 C518.78391083 608.54646881 518.56782166 607.34293762 518.34518433 606.10293579 C514.69350487 586.15833109 509.05917653 568.2527028 500.33235168 549.99258423 C497.33556588 543.71168749 494.82291585 537.47880463 494.1875 530.5 C494.09855469 529.6646875 494.00960938 528.829375 493.91796875 527.96875 C494.14631635 519.70474165 497.18845853 513.02144059 500.875 505.75 C510.93583215 485.09815833 512.59720805 464.21667584 514.6875 441.625 C514.78769943 440.57344223 514.78769943 440.57344223 514.8899231 439.50064087 C516.44593671 422.98260426 516.33808021 407.49062762 513.5 391.125 C513.13697762 388.99949178 512.77838407 386.87354287 512.43005371 384.74557495 C512.11609352 382.83152887 511.78807375 380.91980374 511.45898438 379.00830078 C510.28264331 370.3322458 511.09816634 362.16320581 512.8203125 353.63671875 C522.75044864 300.14117751 527.57105535 238.71862176 500.84765625 189.46069336 C497.82309356 183.79563309 496.64217279 179.31469906 496 173 C499.3 172.34 502.6 171.68 506 171 C506.33 170.01 506.66 169.02 507 168 C506.12350426 166.36614387 505.24307985 164.73427432 504.34301758 163.11328125 C498.92108294 152.63030911 500.07278478 143.24536966 501.8125 132 C501.98501282 130.8557959 501.98501282 130.8557959 502.16101074 129.68847656 C503.73721893 119.55112381 506.00582024 110.29778411 511.02734375 101.26953125 C515.45857413 93.24981982 516.94507431 88.01603585 514.40625 78.83203125 C508.50507581 62.01802391 498.75668725 49.67755487 484.375 39.0625 C479.64759556 36.94760854 475.17056335 38.02564246 470.40380859 39.55712891 Z " fill="#000000" transform="translate(834,26)"/>
<path d="M0 0 C3.06160991 1.98545132 5.44046 4.40924609 8 7 C9.50814651 8.37744048 11.01672995 9.75442975 12.53222656 11.1237793 C19.93429239 17.83695079 26.9804275 24.89157215 34 32 C34.78246094 32.66 35.56492187 33.32 36.37109375 34 C38.57694559 36.70838404 38.12049764 38.59716986 38 42 C2.80235622 48.78195863 -40.76936367 52.69303677 -75 39 C-76.79296875 37.5300293 -76.79296875 37.5300293 -78 36 C-78 35.34 -78 34.68 -78 34 C-77.35788574 33.6690332 -76.71577148 33.33806641 -76.05419922 32.99707031 C-60.16436914 24.80063894 -60.16436914 24.80063894 -44.43701172 16.29858398 C-36.28193674 11.78832218 -28.08070154 7.36549107 -19.75 3.1875 C-18.91694336 2.74833252 -18.08388672 2.30916504 -17.22558594 1.85668945 C-11.36798279 -1.01028579 -6.367714 -1.83998255 0 0 Z " fill="#000000" transform="translate(908,1015)"/>
<path d="M0 0 C-7.60336176 9.99298974 -18.16637062 16.64306359 -28.75952148 23.09985352 C-33.96319746 26.29076928 -38.96756238 29.70724226 -43.9375 33.25 C-44.65639404 33.76151611 -45.37528809 34.27303223 -46.1159668 34.80004883 C-48.07839772 36.19851813 -50.03943654 37.5989144 -52 39 C-53.68020798 40.19779533 -55.36605513 41.38781395 -57.0625 42.5625 C-57.65160156 42.97628906 -58.24070312 43.39007812 -58.84765625 43.81640625 C-65.78014117 47.62864387 -72.61589351 48.73128093 -80.375 49.625 C-81.35210938 49.74617188 -82.32921875 49.86734375 -83.3359375 49.9921875 C-86.22224829 50.34529999 -89.11029126 50.67599323 -92 51 C-92.85158691 51.10078857 -93.70317383 51.20157715 -94.58056641 51.30541992 C-100.61342805 51.97778194 -106.55823066 52.12092074 -112.625 52.0625 C-113.98818359 52.05573242 -113.98818359 52.05573242 -115.37890625 52.04882812 C-117.58601089 52.03721178 -119.79296697 52.02088168 -122 52 C-119.67585535 47.76000638 -116.77426587 44.2742817 -113.5 40.75 C-112.97245117 40.18007324 -112.44490234 39.61014648 -111.90136719 39.02294922 C-107.73773313 34.60949712 -103.2984771 30.72345503 -98.51171875 26.98828125 C-96.24077316 25.19059648 -94.16414583 23.30148028 -92.0625 21.3125 C-78.20606612 9.21961225 -57.8906074 7.44436951 -40.43359375 4.33520508 C-37.4754723 3.80812968 -34.5189192 3.27286166 -31.5625 2.73632812 C-29.656335 2.39275722 -27.75008786 2.04964168 -25.84375 1.70703125 C-24.97278687 1.54975052 -24.10182373 1.39246979 -23.20446777 1.23042297 C-15.23244561 -0.18549164 -8.05370934 -1.29434614 0 0 Z " fill="#000000" transform="translate(846,1026)"/>
<path d="M0 0 C1.35536763 0.45993352 2.71083925 0.91956067 4.06640625 1.37890625 C7.39982341 2.52879494 10.70498525 3.74377563 14 5 C13 8 13 8 10.08154297 9.59838867 C5.40361295 11.41649949 0.65893027 11.90592154 -4.3046875 12.42578125 C-5.36912079 12.54512527 -6.43355408 12.6644693 -7.53024292 12.78742981 C-11.35186554 13.2079871 -15.17553363 13.60640703 -19 14 C-19.74514359 14.07730095 -20.49028717 14.1546019 -21.25801086 14.2342453 C-32.67127447 15.41782849 -44.08955675 16.54507241 -55.51123047 17.64428711 C-59.25798907 18.00534284 -63.00399562 18.37310415 -66.74951172 18.74682617 C-127.41474 24.79355864 -127.41474 24.79355864 -156 15 C-156.042721 13.33388095 -156.04063832 11.66617115 -156 10 C-154.49049641 8.49049641 -153.00201137 8.64467377 -150.89886475 8.38621521 C-150.01384277 8.27545654 -149.1288208 8.16469788 -148.21697998 8.05058289 C-147.23755432 7.93261856 -146.25812866 7.81465424 -145.24902344 7.69311523 C-144.22256714 7.56617279 -143.19611084 7.43923035 -142.1385498 7.30844116 C-138.71277422 6.88660345 -135.28619014 6.47189761 -131.859375 6.05859375 C-130.68290657 5.91608751 -129.50643814 5.77358128 -128.29431915 5.62675667 C-122.03700166 4.86939014 -115.77902521 4.11774444 -109.52050781 3.37036133 C-104.38903263 2.75661938 -99.25895022 2.13281167 -94.12988281 1.49926758 C-21.27703328 -7.49123894 -21.27703328 -7.49123894 0 0 Z " fill="#000000" transform="translate(442,1050)"/>
<path d="M0 0 C8.00870205 3.48408565 12.87501951 12.34476056 17.4375 19.4375 C17.97826172 20.23220703 18.51902344 21.02691406 19.07617188 21.84570312 C22.6126256 27.34039544 24.02676989 31.48042859 23 38 C19.95776418 49.95545304 13.65604417 61.20787505 8.27734375 72.234375 C4.92644712 79.11448204 1.70501306 86.0509927 -1.5 93 C-7.53561973 106.06439648 -13.73281288 119.04519271 -20 132 C-20.99 132 -21.98 132 -23 132 C-23.17531684 124.93743198 -22.53221141 118.25273964 -21.50390625 111.26953125 C-21.33105606 110.08083939 -21.15820587 108.89214752 -20.9801178 107.66743469 C-18.37541851 90.27372221 -15.1828606 72.97496593 -12.02709961 55.67456055 C-11.10780011 50.63321739 -10.20116847 45.58968206 -9.29756832 40.54550457 C-8.59217134 36.61789025 -7.87909077 32.69170018 -7.16378975 28.76587868 C-6.82587714 26.90491017 -6.49058581 25.04346356 -6.15806389 23.18152428 C-5.6953135 20.59564282 -5.22192809 18.01192297 -4.74584961 15.4284668 C-4.6133078 14.674758 -4.48076599 13.92104919 -4.34420776 13.14450073 C-3.45687703 8.40919155 -2.04292048 4.36704425 0 0 Z " fill="#000000" transform="translate(1329,622)"/>
<path d="M0 0 C0.39304195 64.52839775 0.39304195 64.52839775 -0.9375 91.3125 C-0.98106628 92.19240601 -1.02463257 93.07231201 -1.06951904 93.97888184 C-1.56217355 103.66462072 -2.19824575 113.33470684 -3 123 C-3.99 123 -4.98 123 -6 123 C-11.51292765 116.87963792 -13.84932639 109.20024084 -16.5625 101.5625 C-16.92526031 100.55348129 -16.92526031 100.55348129 -17.29534912 99.52407837 C-22.60104589 84.74681678 -26.60429566 70.91115106 -26.953125 55.11572266 C-26.99984575 53.00696201 -27.07765641 50.90075059 -27.15625 48.79296875 C-27.66194386 31.01814422 -22.66873161 19.36010579 -10.71875 6.69921875 C-3.97105644 0 -3.97105644 0 0 0 Z " fill="#000000" transform="translate(94,278)"/>
<path d="M0 0 C4.54356117 1.41189828 7.33013857 2.78804074 10.8125 6.0625 C11.67101562 6.866875 12.52953125 7.67125 13.4140625 8.5 C14.26742187 9.325 15.12078125 10.15 16 11 C17.18722656 12.1446875 17.18722656 12.1446875 18.3984375 13.3125 C22.47108919 17.31565251 26.39975765 21.40950194 30.09375 25.765625 C31.58329182 27.51156336 33.11246439 29.22371082 34.65625 30.921875 C35.58391128 31.9682379 36.510996 33.01511224 37.4375 34.0625 C38.30246094 35.02285156 39.16742188 35.98320313 40.05859375 36.97265625 C42.42906669 40.66906778 42.49083079 42.6816806 42 47 C39.03852124 57.41743704 30.89569869 68.99631858 22 75 C14.83994486 76.61595482 7.37188382 75.60672669 1 72 C-0.88748054 67.72390028 -1.24717188 63.99402501 -1.23046875 59.35546875 C-1.22917969 58.05343506 -1.22789063 56.75140137 -1.2265625 55.40991211 C-1.21404008 54.00243688 -1.20100724 52.59496612 -1.1875 51.1875 C-1.18060876 49.73510918 -1.1741044 48.28271648 -1.16796875 46.83032227 C-1.07518918 31.21360045 -0.57172992 15.60548968 0 0 Z " fill="#000000" transform="translate(64,1000)"/>
<path d="M0 0 C1.01710052 0.25449417 2.03420105 0.50898834 3.0821228 0.77119446 C5.22643286 1.31011032 7.36945748 1.85416418 9.51123047 2.40307617 C12.74015494 3.2297601 15.97305002 4.03905623 19.20703125 4.84570312 C51.35233766 12.93077976 51.35233766 12.93077976 55.1484375 17.55078125 C54.6534375 19.03578125 54.6534375 19.03578125 54.1484375 20.55078125 C41.99540407 21.73608671 29.84135558 22.91034025 17.685956 24.0711441 C12.03954362 24.6106957 6.39352481 25.15380917 0.74829102 25.70556641 C-4.71687375 26.23958326 -10.18292055 26.76358639 -15.64966774 27.28114319 C-17.71758993 27.47860136 -19.78519201 27.67944733 -21.85242271 27.88401794 C-35.5658933 29.23813344 -49.07160795 29.80287494 -62.8515625 29.55078125 C-62.94433594 27.15063477 -62.94433594 27.15063477 -62.8515625 24.55078125 C-61.3671875 22.953125 -61.3671875 22.953125 -59.1015625 21.48828125 C-58.19535156 20.89789063 -57.28914062 20.3075 -56.35546875 19.69921875 C-55.19002751 18.978967 -54.02173272 18.26332424 -52.8515625 17.55078125 C-52.11663574 17.10250977 -51.38170898 16.65423828 -50.62451172 16.19238281 C-46.35978982 13.60256775 -42.0779079 11.04424868 -37.78125 8.5078125 C-34.79831545 6.73894259 -31.86545884 4.93018803 -28.984375 3 C-27.88867188 2.27425781 -26.79296875 1.54851562 -25.6640625 0.80078125 C-24.74238281 0.1665625 -23.82070313 -0.46765625 -22.87109375 -1.12109375 C-15.49094349 -4.36721417 -7.48081992 -1.9303652 0 0 Z " fill="#000000" transform="translate(686.8515625,94.44921875)"/>
<path d="M0 0 C5.94129722 0.9654608 11.12345959 2.82761966 16.625 5.22265625 C46.09345374 17.67352792 74.34124921 17.93974806 106 17 C104.27621307 21.4979189 102.59740203 25.68119425 99 29 C95.92925186 29.61250074 93.91827634 29.75944216 90.87890625 29.5859375 C89.22153739 29.56063368 87.56414605 29.53677224 85.90673828 29.51416016 C84.59965912 29.47829803 84.59965912 29.47829803 83.26617432 29.44171143 C65.26529714 28.99755135 49.04972748 31.28379464 31.69750977 35.93896484 C30.93006943 36.1447113 30.16262909 36.35045776 29.37193298 36.56243896 C27.94030749 36.95254318 26.5115321 37.35332454 25.08644104 37.7666626 C21.8144406 38.68669605 20.30692778 39.10230926 17 38 C15.69700034 35.71536324 14.57797976 33.50052935 13.49609375 31.11328125 C13.17214127 30.4186528 12.84818878 29.72402435 12.51441956 29.00834656 C11.82971237 27.53523495 11.14998597 26.05979964 10.47485352 24.58227539 C9.44748573 22.33434922 8.40592149 20.09348112 7.36132812 17.85351562 C6.69706752 16.41966391 6.03362974 14.98543067 5.37109375 13.55078125 C5.06272079 12.88492508 4.75434784 12.21906891 4.43663025 11.53303528 C2.71140785 7.74981968 1.2391625 3.96892289 0 0 Z " fill="#000000" transform="translate(1169,1120)"/>
<path d="M0 0 C1.19151169 0.13883606 2.38302338 0.27767212 3.61064148 0.42071533 C7.41386561 0.86878608 11.21241869 1.34802137 15.01171875 1.828125 C17.5902484 2.13747737 20.16902316 2.44479397 22.74804688 2.75 C29.06813776 3.50244673 35.38467804 4.28051088 41.69921875 5.078125 C41.75543337 10.86120407 41.53218655 16.35147136 40.69921875 22.078125 C36.56150296 23.54018162 32.41738446 24.98182814 28.26635742 26.40551758 C26.8572338 26.89191804 25.44995676 27.3837046 24.04467773 27.88110352 C22.01625796 28.5979892 19.98183428 29.29479801 17.9453125 29.98828125 C16.11504517 30.62455444 16.11504517 30.62455444 14.24780273 31.27368164 C7.75641488 32.74524153 2.55360149 30.83422526 -3.48828125 28.453125 C-4.87677741 27.91453042 -6.26614767 27.37818542 -7.65625 26.84375 C-8.39536621 26.55951172 -9.13448242 26.27527344 -9.89599609 25.98242188 C-14.33693234 24.3124495 -18.81961838 22.76119947 -23.30078125 21.203125 C-24.19176514 20.89294434 -25.08274902 20.58276367 -26.00073242 20.26318359 C-28.10023451 19.53333411 -30.20021192 18.80489605 -32.30078125 18.078125 C-30.41151379 13.85803069 -27.51383672 11.45022013 -23.98828125 8.578125 C-23.41916016 8.10503906 -22.85003906 7.63195313 -22.26367188 7.14453125 C-20.61684332 5.77942193 -18.96310762 4.42432068 -17.30078125 3.078125 C-16.66221191 2.34432617 -16.02364258 1.61052734 -15.36572266 0.85449219 C-10.37090726 -2.04038409 -5.56622512 -0.73174497 0 0 Z " fill="#000000" transform="translate(672.30078125,6.921875)"/>
<path d="M0 0 C5.6538338 4.36491785 11.56996863 8.1781062 17.63818359 11.94287109 C18.3492627 12.39227051 19.0603418 12.84166992 19.79296875 13.3046875 C20.75626099 13.90385986 20.75626099 13.90385986 21.73901367 14.51513672 C22.19638916 14.8813916 22.65376465 15.24764648 23.125 15.625 C23.125 16.285 23.125 16.945 23.125 17.625 C22.21886963 17.49222656 21.31273926 17.35945313 20.37915039 17.22265625 C-1.12640835 14.27657883 -19.5701652 14.45080351 -40.58764648 20.41796875 C-51.36991051 23.26048937 -57.64239658 22.5470496 -67.45817566 17.01156616 C-69.28587318 15.91883705 -71.08411008 14.7770627 -72.875 13.625 C-72.875 12.965 -72.875 12.305 -72.875 11.625 C-72.34543701 11.33254395 -71.81587402 11.04008789 -71.27026367 10.73876953 C-68.86693111 9.41052194 -66.46470619 8.08028352 -64.0625 6.75 C-63.22912109 6.28980469 -62.39574219 5.82960938 -61.53710938 5.35546875 C-60.73466797 4.91074219 -59.93222656 4.46601562 -59.10546875 4.0078125 C-58.36707764 3.59934082 -57.62868652 3.19086914 -56.86791992 2.77001953 C-55.16241338 1.79013154 -53.51160994 0.71607329 -51.875 -0.375 C-48.92883411 -0.8357302 -46.04181024 -1.19627756 -43.078125 -1.48046875 C-42.21112976 -1.56879471 -41.34413452 -1.65712067 -40.4508667 -1.74812317 C-38.615443 -1.93282229 -36.77958742 -2.1132716 -34.94335938 -2.28979492 C-32.14832857 -2.56024272 -29.35554062 -2.84846983 -26.5625 -3.13867188 C-24.77614853 -3.31618286 -22.98969283 -3.49264874 -21.203125 -3.66796875 C-20.37371399 -3.75435104 -19.54430298 -3.84073334 -18.6897583 -3.92973328 C-11.59412826 -4.59120334 -5.77228226 -4.63675132 0 0 Z " fill="#000000" transform="translate(266.875,1118.375)"/>
<path d="M0 0 C2.31640625 0.52734375 2.31640625 0.52734375 5 2 C6.26559359 4.59026894 7.12728461 6.82828171 7.9375 9.5625 C8.18346924 10.34898926 8.42943848 11.13547852 8.68286133 11.94580078 C16.60536246 38.01597724 21.17311646 64.30568823 21.1875 91.5625 C21.19974609 92.81869141 21.21199219 94.07488281 21.22460938 95.36914062 C21.22750977 97.16834961 21.22750977 97.16834961 21.23046875 99.00390625 C21.23457764 100.08486572 21.23868652 101.1658252 21.24291992 102.27954102 C21 105 21 105 19 108 C6.95859365 97.05882367 2.2999867 85.74916171 1.41123962 69.72322083 C1.16331848 64.29599817 0.98220898 58.86765051 0.8125 53.4375 C0.73184272 51.14280251 0.65062345 48.8481247 0.56884766 46.5534668 C0.03599176 31.03455673 -0.29525195 15.52798131 0 0 Z " fill="#000000" transform="translate(1326,226)"/>
<path d="M0 0 C0.65597672 0.28713364 1.31195343 0.57426727 1.98780823 0.87010193 C4.05933383 1.77904373 6.12534199 2.69981571 8.19140625 3.62109375 C9.60446855 4.24363169 11.01787713 4.86538423 12.43164062 5.48632812 C15.87646428 7.00136974 19.31639574 8.52703595 22.75390625 10.05859375 C17.19483284 17.10973841 11.15223 24.32982004 1.84765625 25.5859375 C-1.9425631 25.51129521 -5.66381361 25.01578514 -9.41015625 24.45996094 C-12.73455219 23.98946275 -16.06301989 23.63402772 -19.40234375 23.28515625 C-26.02291238 22.59109925 -32.63542528 21.84095186 -39.24609375 21.05859375 C-39.13099714 19.64108812 -39.00355717 18.22458206 -38.87109375 16.80859375 C-38.80148437 16.0196875 -38.731875 15.23078125 -38.66015625 14.41796875 C-38.01103271 10.71918933 -37.178093 8.74446081 -34.1105957 6.48706055 C-31.26993545 4.88702704 -28.42399486 3.30149178 -25.55859375 1.74609375 C-24.57697266 1.18341797 -23.59535156 0.62074219 -22.58398438 0.04101562 C-21.14249023 -0.74885742 -21.14249023 -0.74885742 -19.671875 -1.5546875 C-18.36343628 -2.27845581 -18.36343628 -2.27845581 -17.02856445 -3.0168457 C-10.9941709 -5.02195656 -5.53045843 -2.49013219 0 0 Z " fill="#000000" transform="translate(1325.24609375,17.94140625)"/>
<path d="M0 0 C1.93166016 -0.02126953 1.93166016 -0.02126953 3.90234375 -0.04296875 C13.97704774 0.19869082 13.97704774 0.19869082 17.61328125 3.43652344 C20.78639037 7.25323488 23.1194592 11.41933942 25 16 C23.1805545 19.63889101 18.78222592 20.61394924 15.1875 22.1875 C14.38634766 22.56841797 13.58519531 22.94933594 12.75976562 23.34179688 C5.82158741 26.36866639 0.3872721 26.13856365 -7 25 C-8.23645264 24.82380127 -9.47290527 24.64760254 -10.74682617 24.46606445 C-14.0602504 23.9738299 -17.36414188 23.45087633 -20.66772461 22.89819336 C-22.72163399 22.55682682 -24.77760182 22.23039462 -26.83398438 21.90429688 C-28.13013672 21.68966797 -29.42628906 21.47503906 -30.76171875 21.25390625 C-31.93694092 21.06127197 -33.11216309 20.8686377 -34.32299805 20.67016602 C-35.20640869 20.44901123 -36.08981934 20.22785645 -37 20 C-37.33 19.34 -37.66 18.68 -38 18 C-34.33472213 15.59587258 -30.6685249 13.19315569 -27.00146484 10.79174805 C-25.7538144 9.97442825 -24.50641708 9.15672191 -23.25927734 8.33862305 C-21.46778532 7.1635354 -19.67539091 5.98983576 -17.8828125 4.81640625 C-16.80402832 4.10943604 -15.72524414 3.40246582 -14.61376953 2.67407227 C-9.55124979 -0.56838037 -5.91520251 -0.2104796 0 0 Z " fill="#000000" transform="translate(752,1117)"/>
<path d="M0 0 C2.99120392 0.40427448 5.98679509 0.75862442 8.98388672 1.11645508 C12.08935889 1.48825029 15.19204065 1.8732872 18.29296875 2.28125 C19.1749292 2.39533203 20.05688965 2.50941406 20.96557617 2.62695312 C23 3 23 3 24 4 C24.09858603 5.4555937 24.12972143 6.91607919 24.125 8.375 C24.12886719 9.56222656 24.12886719 9.56222656 24.1328125 10.7734375 C24 13 24 13 23 16 C20.37439856 16.85779374 17.89392563 17.50724628 15.203125 18.078125 C14.4173407 18.25382019 13.6315564 18.42951538 12.82196045 18.61053467 C11.15549829 18.97982701 9.48756665 19.34253956 7.81835938 19.69921875 C5.27055353 20.24559232 2.72915227 20.81638524 0.1875 21.390625 C-1.43196723 21.74627223 -3.05175017 22.10048553 -4.671875 22.453125 C-5.43038757 22.62386536 -6.18890015 22.79460571 -6.97039795 22.97052002 C-11.83307623 23.99140248 -15.50752498 24.5111184 -19.8527832 21.87670898 C-20.41312256 21.42110596 -20.97346191 20.96550293 -21.55078125 20.49609375 C-22.16630859 20.00302734 -22.78183594 19.50996094 -23.41601562 19.00195312 C-24.04185547 18.48568359 -24.66769531 17.96941406 -25.3125 17.4375 C-25.95767578 16.91736328 -26.60285156 16.39722656 -27.26757812 15.86132812 C-28.85164465 14.58234108 -30.42673406 13.29224956 -32 12 C-23.27488719 2.81567073 -12.43372964 -2.65954912 0 0 Z " fill="#000000" transform="translate(874,18)"/>
<path d="M0 0 C1.24052124 0.06948853 1.24052124 0.06948853 2.50610352 0.14038086 C3.38322998 0.20104736 4.26035645 0.26171387 5.1640625 0.32421875 C6.05859131 0.37908447 6.95312012 0.4339502 7.87475586 0.49047852 C9.67414626 0.6029303 11.47323634 0.7203035 13.27197266 0.84277344 C15.4790119 0.99090837 17.68576186 1.11954811 19.89453125 1.23828125 C28.40811567 1.7577542 28.40811567 1.7577542 31.7890625 4.01171875 C23.75884666 14.76231569 15.53994576 19.23338047 2.40380859 21.15127563 C1.68531738 21.24959686 0.96682617 21.34791809 0.2265625 21.44921875 C-0.48661133 21.54826508 -1.19978516 21.6473114 -1.93457031 21.74935913 C-18.82833631 23.993123 -18.82833631 23.993123 -25.5859375 19.44921875 C-26.27429688 18.99417969 -26.96265625 18.53914063 -27.671875 18.0703125 C-28.17976563 17.72097656 -28.68765625 17.37164062 -29.2109375 17.01171875 C-27.97076193 13.29119205 -26.98053035 13.02448887 -23.625 11.1640625 C-22.69429688 10.64134766 -21.76359375 10.11863281 -20.8046875 9.58007812 C-19.33515625 8.77280273 -19.33515625 8.77280273 -17.8359375 7.94921875 C-15.91105343 6.87572571 -13.98655738 5.80153655 -12.0625 4.7265625 C-11.20479004 4.253396 -10.34708008 3.78022949 -9.46337891 3.29272461 C-3.31140995 -0.20601603 -3.31140995 -0.20601603 0 0 Z " fill="#000000" transform="translate(96.2109375,14.98828125)"/>
<path d="M0 0 C0.59101484 18.22295749 -2.62857476 31.66859702 -14 46 C-14.62648438 46.81597656 -15.25296875 47.63195312 -15.8984375 48.47265625 C-16.48882812 49.20355469 -17.07921875 49.93445313 -17.6875 50.6875 C-18.20699219 51.33074219 -18.72648437 51.97398437 -19.26171875 52.63671875 C-21.57460732 54.45064709 -23.13762293 54.2584429 -26 54 C-28.81396148 48.37207703 -26.42075298 37.6500997 -24.8125 31.75 C-20.86578223 20.39617209 -13.94640385 11.78221085 -6 3 C-5.45730469 2.38125 -4.91460937 1.7625 -4.35546875 1.125 C-3 0 -3 0 0 0 Z " fill="#000000" transform="translate(110,464)"/>
<path d="M0 0 C2.64 0.66 5.28 1.32 8 2 C10.99302679 20.25292852 12.97146125 38.62072605 15 57 C14.34 57 13.68 57 13 57 C11.67480469 55.55053711 11.67480469 55.55053711 10.171875 53.52734375 C9.61886719 52.79193359 9.06585938 52.05652344 8.49609375 51.29882812 C7.91988281 50.51958984 7.34367188 49.74035156 6.75 48.9375 C5.62186036 47.42423683 4.49166709 45.91250237 3.359375 44.40234375 C2.80564209 43.65919922 2.25190918 42.91605469 1.68139648 42.15039062 C0.07021888 40.08980512 -1.64067098 38.19445247 -3.41796875 36.27734375 C-5.34656993 34.05220657 -5.95450756 33.2609236 -6.47265625 30.2890625 C-6.33730469 29.40992188 -6.20195313 28.53078125 -6.0625 27.625 C-5.918125 26.60664062 -5.77375 25.58828125 -5.625 24.5390625 C-5.41875 23.37117187 -5.2125 22.20328125 -5 21 C-4.76923845 19.52889513 -4.54016289 18.0575251 -4.3125 16.5859375 C-2.23350396 3.71283775 -2.23350396 3.71283775 0 0 Z " fill="#000000" transform="translate(7,589)"/>
<path d="M0 0 C0.66 0 1.32 0 2 0 C3.31274414 1.54467773 3.31274414 1.54467773 4.78515625 3.68359375 C5.31560547 4.44607422 5.84605469 5.20855469 6.39257812 5.99414062 C6.94365234 6.80044922 7.49472656 7.60675781 8.0625 8.4375 C9.15689422 10.01998641 10.2519136 11.60204072 11.34765625 13.18359375 C11.83242432 13.89056396 12.31719238 14.59753418 12.81665039 15.32592773 C13.89444781 16.95086725 13.89444781 16.95086725 15 18 C15.30211926 25.30373315 14.46766242 32.33118492 13.5 39.5625 C13.35691406 40.66658203 13.21382812 41.77066406 13.06640625 42.90820312 C12.7160201 45.6061765 12.36044731 48.3033556 12 51 C0.19483231 39.36380976 -3.5956759 27.39093301 -4 11 C-3.74847621 6.62067453 -3.21722503 3.21722503 0 0 Z " fill="#000000" transform="translate(1384,898)"/>
<path d="M0 0 C3.99426631 3.55461639 6.57366216 7.71811005 9.3125 12.25 C9.77978516 12.97574219 10.24707031 13.70148438 10.72851562 14.44921875 C13.4004222 18.87740069 14.59388963 21.89408656 13.53930664 27.02685547 C13.27234985 28.00356201 13.27234985 28.00356201 13 29 C12.73401001 29.99797607 12.73401001 29.99797607 12.46264648 31.01611328 C11.88330527 33.01218727 11.23739041 34.97185707 10.5625 36.9375 C10.34529297 37.60845703 10.12808594 38.27941406 9.90429688 38.97070312 C8.25360942 43.87319529 8.25360942 43.87319529 6 45 C3.8274368 40.82814551 1.67358206 36.64735394 -0.46362305 32.45727539 C-1.19295169 31.03378014 -1.92729087 29.61284031 -2.66674805 28.19458008 C-3.72998384 26.15319596 -4.77474739 24.10324186 -5.81640625 22.05078125 C-6.14967422 21.4203743 -6.4829422 20.78996735 -6.8263092 20.14045715 C-8.23058911 17.33436904 -9.02598952 15.38847498 -8.81445312 12.2265625 C-7.7088835 9.20414194 -6.00179079 7.14498903 -3.9375 4.6875 C-3.20402344 3.80449219 -2.47054688 2.92148438 -1.71484375 2.01171875 C-1.14894531 1.34785156 -0.58304688 0.68398437 0 0 Z " fill="#000000" transform="translate(1392,135)"/>
<path d="M0 0 C0.86560547 0.00902344 1.73121094 0.01804687 2.62304688 0.02734375 C4.72798779 0.05060277 6.83278342 0.08645992 8.9375 0.125 C1.73158588 8.85396478 -6.73416444 15.37208499 -16.0625 21.6875 C-17.03304321 22.35036011 -17.03304321 22.35036011 -18.02319336 23.02661133 C-22.69820392 26.125 -22.69820392 26.125 -26.0625 26.125 C-27.96283667 20.18644792 -27.40846413 14.64639398 -25.02734375 8.984375 C-23.16519992 5.39579014 -21.0903158 2.81025289 -17.16674805 1.484375 C-11.37542012 0.18268761 -5.92274768 -0.11946582 0 0 Z " fill="#000000" transform="translate(723.0625,1051.875)"/>
<path d="M0 0 C0 4.29 0 8.58 0 13 C-5.55626279 14.8520876 -10.83473327 16.05178902 -16.5625 17.125 C-17.49513672 17.30675781 -18.42777344 17.48851563 -19.38867188 17.67578125 C-20.29294922 17.84722656 -21.19722656 18.01867187 -22.12890625 18.1953125 C-22.94431885 18.35016113 -23.75973145 18.50500977 -24.59985352 18.66455078 C-27.0972007 19.01358496 -29.48171309 19.05768566 -32 19 C-31.03579957 13.29091853 -30.10909241 8.3198151 -26 4 C-23.06837914 2.82361711 -20.11690788 2.43341618 -17 2 C-15.98421875 1.81695313 -14.9684375 1.63390625 -13.921875 1.4453125 C-9.15737413 0.58864116 -4.86545099 0 0 0 Z " fill="#000000" transform="translate(936,22)"/>
<path d="M0 0 C0.66 0 1.32 0 2 0 C3.51114512 2.0357241 4.85866493 4.03770923 6.1875 6.1875 C6.56841797 6.76564453 6.94933594 7.34378906 7.34179688 7.93945312 C10.06917821 12.32009283 10.06917821 12.32009283 9.75537109 15.40429688 C8.95556348 18.15269847 7.89620496 20.36883024 6.49609375 22.86328125 C6.00302734 23.74951172 5.50996094 24.63574219 5.00195312 25.54882812 C4.48568359 26.46083984 3.96941406 27.37285156 3.4375 28.3125 C2.91736328 29.24384766 2.39722656 30.17519531 1.86132812 31.13476562 C0.58023026 33.42663795 -0.70702105 35.71481613 -2 38 C-2.99 38 -3.98 38 -5 38 C-5.70147833 34.58604938 -6.38372236 31.16853031 -7.0625 27.75 C-7.26166016 26.78191406 -7.46082031 25.81382812 -7.66601562 24.81640625 C-7.84970703 23.88183594 -8.03339844 22.94726562 -8.22265625 21.984375 C-8.48187866 20.69611816 -8.48187866 20.69611816 -8.74633789 19.38183594 C-9.30145733 14.1693766 -6.72825519 10.54351721 -4.0625 6.25 C-3.70220703 5.64800781 -3.34191406 5.04601562 -2.97070312 4.42578125 C-2.03920867 2.91274606 -1.02538164 1.45105131 0 0 Z " fill="#000000" transform="translate(23,197)"/>
<path d="M0 0 C0.66 0 1.32 0 2 0 C3.578125 2.01171875 3.578125 2.01171875 5.25 4.6875 C5.81203125 5.55761719 6.3740625 6.42773438 6.953125 7.32421875 C8 10 8 10 7.4609375 12.375 C5.56468549 15.78216939 3.52043085 19.05747913 1.375 22.3125 C0.95476563 22.95767578 0.53453125 23.60285156 0.1015625 24.26757812 C-0.92838241 25.84760724 -1.96365628 27.42416047 -3 29 C-3.66 28.67 -4.32 28.34 -5 28 C-3.35 18.76 -1.7 9.52 0 0 Z " fill="#000000" transform="translate(21,1026)"/>
</svg>
