<?xml version="1.0" encoding="UTF-8"?>
<svg version="1.1" xmlns="http://www.w3.org/2000/svg" width="1000" height="1000">
<path d="M0 0 C7.446957 -0.55968779 12.39709202 0.63778305 19 4 C19.99 4.33 20.98 4.66 22 5 C22 5.66 22 6.32 22 7 C22.969375 7.226875 23.93875 7.45375 24.9375 7.6875 C29.69229318 9.02234973 33.77811307 11.49175879 38 14 C38 14.66 38 15.32 38 16 C40.31 16.66 42.62 17.32 45 18 C45 18.66 45 19.32 45 20 C45.94875 20.309375 46.8975 20.61875 47.875 20.9375 C51 22 51 22 53 23 C53 23.66 53 24.32 53 25 C53.928125 25.268125 54.85625 25.53625 55.8125 25.8125 C58.9897815 26.99619311 59.74186603 27.69726092 62 30 C63.4799079 31.02950115 64.98157364 32.02820713 66.5 33 C69.3335303 34.81345939 71.64759155 36.61035026 74 39 C76.09223721 40.57217825 78.21969928 42.08530057 80.35546875 43.59765625 C80.89816406 44.06042969 81.44085938 44.52320313 82 45 C82 45.66 82 46.32 82 47 C82.53625 47.226875 83.0725 47.45375 83.625 47.6875 C86.82460161 49.45570089 89.29037223 51.53670203 92 54 C92 54.66 92 55.32 92 56 C92.680625 56.165 93.36125 56.33 94.0625 56.5 C97.716875 58.36606383 99.5712068 60.78123615 102.1640625 63.90625 C104.40132022 66.45767582 106.88000703 68.53054514 109.48828125 70.6875 C111.3223029 72.27982888 112.73907451 73.92318154 114 76 C114 76.66 114 77.32 114 78 C114.54398437 78.19980469 115.08796875 78.39960938 115.6484375 78.60546875 C118.97441184 80.57784888 121.18068978 83.37656803 123.625 86.3125 C124.14771484 86.93116943 124.67042969 87.54983887 125.20898438 88.18725586 C129.57480969 93.39515627 133.74388804 98.74150535 137.84375 104.16015625 C139.26408172 106.0307743 140.72213564 107.87342814 142.21875 109.68359375 C144 112 144 112 145 115 C145.66 115.33 146.32 115.66 147 116 C147.94999528 117.62856333 148.89346972 119.26133889 149.80078125 120.9140625 C151.08316029 123.14465015 152.48728758 125.25001008 153.9375 127.375 C156.43873043 131.07656966 158.64292236 134.86068425 160.765625 138.7890625 C162.41007115 141.73449452 164.23110748 144.55199446 166.08203125 147.37109375 C167 149 167 149 167 151 C167.66 151 168.32 151 169 151 C169.40863281 152.14726562 169.81726563 153.29453125 170.23828125 154.4765625 C171.91426884 158.94783333 173.99091472 163.14071445 176.1875 167.375 C180 174.73292469 180 174.73292469 180 177 C180.66 177 181.32 177 182 177 C182.50512244 178.60256108 183.00391627 180.20711792 183.5 181.8125 C183.7784375 182.70582031 184.056875 183.59914063 184.34375 184.51953125 C185 187 185 187 185 190 C185.66 190 186.32 190 187 190 C187.32613281 190.99 187.65226563 191.98 187.98828125 193 C190.67085633 201.20411913 190.67085633 201.20411913 193.625 209.3125 C198 221.04545455 198 221.04545455 198 227 C198.66 227 199.32 227 200 227 C200.29003906 228.62808594 200.29003906 228.62808594 200.5859375 230.2890625 C200.84872917 231.73441668 201.11176286 233.17972688 201.375 234.625 C201.50132812 235.33785156 201.62765625 236.05070313 201.7578125 236.78515625 C202.53315596 241.01077808 203.62617002 244.92195131 205 249 C205.97699554 253.56783781 206.77755755 258.16662944 207.59570312 262.76513672 C208.00078406 265.00433414 208.42767305 267.23845218 208.859375 269.47265625 C210.298489 277.04887358 211.36886817 284.25376834 211 292 C211.66 292 212.32 292 213 292 C213.91062823 303.53595033 214.12529687 314.98957762 214.07516479 326.55714035 C214.06208937 329.61961308 214.05580514 332.682041 214.05102539 335.74453735 C214.03783153 343.36959134 214.01400804 350.99460373 213.98962402 358.61962891 C213.91579788 382.08744889 213.87434769 405.54517469 214.4375 429.0078125 C214.45714813 429.84794262 214.47679626 430.68807274 214.49703979 431.55366135 C213.29269024 457.49704564 213.29269024 457.49704564 218 482 C218.49058977 485.17049181 218.75264018 488.36979628 219.0625 491.5625 C219.15337891 492.43197266 219.24425781 493.30144531 219.33789062 494.19726562 C219.89628987 499.82744148 220.08615255 505.34264945 220 511 C220.66 511 221.32 511 222 511 C222.11069824 511.6297876 222.22139648 512.2595752 222.33544922 512.90844727 C222.84483474 515.79381675 223.35987233 518.67815036 223.875 521.5625 C224.04902344 522.55314453 224.22304688 523.54378906 224.40234375 524.56445312 C225.34408891 529.8138104 226.42523132 534.89600666 228 540 C229.95192263 546.72504517 231.8863497 553.41965068 233.4375 560.25 C234.61898083 565.11795926 236.45030112 569.16660657 238.80859375 573.56640625 C240.39573796 576.80834345 241.29737377 580.12144757 242.2734375 583.5859375 C244.71001359 591.68165806 249.09119587 599.04960136 253.09765625 606.44921875 C255.37930281 610.67726117 257.51285065 614.96724337 259.5625 619.3125 C260.72143576 622.10145241 260.72143576 622.10145241 263 623 C263.73075648 625.3140622 264.40138258 627.64828869 265 630 C265.66 630 266.32 630 267 630 C267.39960938 630.86238281 267.79921875 631.72476563 268.2109375 632.61328125 C270.06902694 636.1306689 272.17484248 639.05674317 274.625 642.1875 C275.06231445 642.74775879 275.49962891 643.30801758 275.95019531 643.88525391 C280.21498293 649.32616356 284.57435364 654.68922437 289 660 C289.5671875 660.680625 290.134375 661.36125 290.71875 662.0625 C292.90166734 664.64636134 295.10611891 667.10611891 297.5 669.5 C300.03183774 672.03183774 302.30139655 674.68359417 304.5703125 677.44921875 C306.11481807 679.24681775 306.11481807 679.24681775 309 681 C309 681.66 309 682.32 309 683 C309.53625 683.226875 310.0725 683.45375 310.625 683.6875 C315.31073086 686.27698284 319.43251864 690.02088618 323 694 C323 694.66 323 695.32 323 696 C323.71800781 696.23589844 324.43601562 696.47179687 325.17578125 696.71484375 C328.46617742 698.21213329 330.5618608 700.08780526 333.1875 702.5625 C336.34188937 705.64185798 336.34188937 705.64185798 340 708 C340 708.66 340 709.32 340 710 C340.721875 710.2475 341.44375 710.495 342.1875 710.75 C345.25321959 712.11254204 347.43829118 713.85370342 350 716 C350.66 716.33 351.32 716.66 352 717 C352 717.66 352 718.32 352 719 C352.804375 719.268125 353.60875 719.53625 354.4375 719.8125 C355.283125 720.204375 356.12875 720.59625 357 721 C357.33 721.99 357.66 722.98 358 724 C359.85078716 724.57776172 359.85078716 724.57776172 362 725 C364.140625 726.12109375 364.140625 726.12109375 366.25 727.4375 C366.95640625 727.86933594 367.6628125 728.30117188 368.390625 728.74609375 C368.92171875 729.15988281 369.4528125 729.57367187 370 730 C370 730.66 370 731.32 370 732 C371.98 732.66 373.96 733.32 376 734 C376 734.66 376 735.32 376 736 C378.65228812 737.07525194 381.28368454 738.09456151 384 739 C384 739.66 384 740.32 384 741 C384.7425 741.268125 385.485 741.53625 386.25 741.8125 C388.89110345 742.95297649 390.71569429 744.28677072 393 746 C394.64797236 746.71162443 396.31165408 747.39031953 398 748 C398 748.66 398 749.32 398 750 C398.886875 750.268125 399.77375 750.53625 400.6875 750.8125 C404 752 404 752 406.5 753.625 C409.75948416 755.41771629 411.30646087 755.56823679 415 755 C417.43619533 753.81482389 419.73661405 752.50819548 422.046875 751.09375 C424 750 424 750 426 750 C426 749.34 426 748.68 426 748 C426.53109375 747.74605469 427.0621875 747.49210938 427.609375 747.23046875 C431.36117635 745.40249254 434.68323605 743.55135689 438 741 C438.66 741 439.32 741 440 741 C440 740.34 440 739.68 440 739 C445.75 736 445.75 736 448 736 C448 735.34 448 734.68 448 734 C449.98 733.34 451.96 732.68 454 732 C454 731.34 454 730.68 454 730 C455.86328125 728.4921875 455.86328125 728.4921875 458.3125 726.875 C459.11300781 726.33617187 459.91351562 725.79734375 460.73828125 725.2421875 C463 724 463 724 466 724 C466.33 723.01 466.66 722.02 467 721 C469.5625 719.8125 469.5625 719.8125 472 719 C472 718.34 472 717.68 472 717 C473.96498322 715.61558 475.97048465 714.28796166 478 713 C479.11375 712.13375 479.11375 712.13375 480.25 711.25 C482 710 482 710 484 710 C484 709.34 484 708.68 484 708 C485.69588264 706.45908595 487.45821672 704.99076703 489.25 703.5625 C490.22453125 702.78003906 491.1990625 701.99757813 492.203125 701.19140625 C493.12609375 700.46824219 494.0490625 699.74507812 495 699 C495.73734375 698.41089844 496.4746875 697.82179688 497.234375 697.21484375 C499 696 499 696 501 696 C501.33 695.01 501.66 694.02 502 693 C503.7421875 691.28125 503.7421875 691.28125 505.875 689.5 C508.85384531 686.99734679 508.85384531 686.99734679 511.6328125 684.28125 C513 683 513 683 515 683 C515.33 682.01 515.66 681.02 516 680 C517.48828125 678.60546875 517.48828125 678.60546875 519.3125 677.1875 C522.62545726 674.4671042 524.63526907 671.58523722 527 668 C528.46927363 666.80159804 529.93877591 665.60347295 531.41040039 664.40795898 C534.03871427 662.0799777 536.07827181 659.35601527 538.1875 656.5625 C539.13760252 655.3251995 540.08813677 654.08823043 541.0390625 652.8515625 C541.5227832 652.21895508 542.00650391 651.58634766 542.50488281 650.93457031 C544.00986288 648.98723817 545.54221003 647.06515921 547.0859375 645.1484375 C547.58456299 644.52638428 548.08318848 643.90433105 548.59692383 643.26342773 C549.55100997 642.07475369 550.50899132 640.88919225 551.47143555 639.70727539 C553.94166787 636.60720497 555.75615507 633.77369904 557 630 C557.66 630 558.32 630 559 630 C559.28875 628.865625 559.5775 627.73125 559.875 626.5625 C560.24625 625.386875 560.6175 624.21125 561 623 C561.66 622.67 562.32 622.34 563 622 C564.05708239 620.02957446 565.04445278 618.02161557 566 616 C566.63091637 614.73017676 567.26517412 613.46200954 567.90234375 612.1953125 C568.40217773 611.19564453 568.40217773 611.19564453 568.91210938 610.17578125 C571.96484375 604.0703125 571.96484375 604.0703125 572.97631836 602.0480957 C573.67582536 600.64858122 574.37451907 599.24866001 575.07250977 597.84838867 C575.41983154 597.15205322 575.76715332 596.45571777 576.125 595.73828125 C576.43566406 595.11477783 576.74632812 594.49127441 577.06640625 593.84887695 C578.04567153 591.9095527 579.05255329 589.98599172 580.0625 588.0625 C581.79043303 584.61333135 583.0022799 581.14127737 584.15234375 577.46484375 C585.11449528 574.66706672 586.29751679 572.0153951 587.5 569.3125 C589.84507822 563.80788526 591.15324741 558.39488595 592.2265625 552.51953125 C592.82300807 549.80540266 593.51625805 547.37891633 594.421875 544.76953125 C596.21433105 539.55375989 597.43273234 534.25492384 598.625 528.875 C598.8415625 527.92496094 599.058125 526.97492187 599.28125 525.99609375 C600.40154927 521.01007045 601.36781935 516.07149367 602 511 C602.66 511 603.32 511 604 511 C603.98066406 509.73027344 603.96132813 508.46054687 603.94140625 507.15234375 C603.94243233 501.91421533 604.39335413 496.76854807 604.9375 491.5625 C605.02451172 490.66595703 605.11152344 489.76941406 605.20117188 488.84570312 C605.87145222 482.25709555 605.87145222 482.25709555 607 480 C611.03444531 445.75974667 610.03388299 410.58343462 610.0234375 376.171875 C610.02316181 375.16282419 610.02288612 374.15377338 610.02260208 373.11414528 C610.01855432 362.83464397 610.00553449 352.55521746 609.9725132 342.27576637 C609.960583 338.3630659 609.95242296 334.45036182 609.9446907 330.53765106 C609.93998102 328.70927071 609.9333768 326.88089403 609.92466354 325.05252838 C609.8719678 313.98635864 610.14816305 303.03696663 611 292 C611.66 292 612.32 292 613 292 C612.9071875 290.0509375 612.9071875 290.0509375 612.8125 288.0625 C612.82231064 281.05770107 614.20016473 274.31877878 615.52490234 267.47119141 C616.03653108 264.8099858 616.52909925 262.14565872 617.01953125 259.48046875 C617.36664968 257.61187918 617.71429818 255.74338799 618.0625 253.875 C618.22459961 252.9986792 618.38669922 252.1223584 618.55371094 251.21948242 C619.46941453 246.38882092 620.60939388 241.72119361 622 237 C622.39838846 235.19249678 622.7763885 233.38025996 623.125 231.5625 C623.29257812 230.69753906 623.46015625 229.83257812 623.6328125 228.94140625 C623.75398437 228.30074219 623.87515625 227.66007813 624 227 C624.66 227 625.32 227 626 227 C626.0825 225.700625 626.165 224.40125 626.25 223.0625 C626.73237316 218.65223107 628.0450047 215.28541443 629.95703125 211.31640625 C631.39142624 208.13065257 632.3165279 204.86225384 633.2734375 201.5078125 C634.39627369 197.63221662 635.69935978 193.81890108 637 190 C637.66 190 638.32 190 639 190 C639.13277344 189.39671875 639.26554688 188.7934375 639.40234375 188.171875 C639.57894531 187.37265625 639.75554688 186.5734375 639.9375 185.75 C640.11152344 184.96109375 640.28554688 184.1721875 640.46484375 183.359375 C640.947556 181.23121297 641.46163178 179.11467158 642 177 C642.66 177 643.32 177 644 177 C644.24621094 176.17757812 644.49242187 175.35515625 644.74609375 174.5078125 C646.2029505 170.43224439 648.07335859 166.71094712 650.0625 162.875 C650.78635876 161.47852911 651.50654279 160.08014598 652.22265625 158.6796875 C652.53984619 158.06851074 652.85703613 157.45733398 653.18383789 156.82763672 C654.04098752 154.9082164 654.54962885 153.04971178 655 151 C655.66 151 656.32 151 657 151 C657.226875 150.360625 657.45375 149.72125 657.6875 149.0625 C660.58411409 142.3037338 664.46335578 136.20040713 668.5859375 130.1328125 C670.55134336 127.16841582 672.26770415 124.10618566 674 121 C676.75757576 116.12121212 676.75757576 116.12121212 679 115 C680.01567807 113.34284104 681.01230175 111.67398624 682 110 C683.51825347 107.93364058 685.05039871 105.89705226 686.625 103.875 C687.06303955 103.30950439 687.5010791 102.74400879 687.95239258 102.16137695 C692.2050349 96.69456889 696.55787784 91.31409428 701 86 C701.67546875 85.18789062 702.3509375 84.37578125 703.046875 83.5390625 C703.67078125 82.80429688 704.2946875 82.06953125 704.9375 81.3125 C705.75541016 80.34763672 705.75541016 80.34763672 706.58984375 79.36328125 C708 78 708 78 710 78 C710.27457031 77.40960938 710.54914062 76.81921875 710.83203125 76.2109375 C713.78704108 70.61717307 718.49839128 66.39678859 723.328125 62.421875 C724.92483374 61.06392645 726.36580754 59.6397721 727.8125 58.125 C730 56 730 56 732 56 C732.33 55.01 732.66 54.02 733 53 C734.55859375 51.39453125 734.55859375 51.39453125 736.4375 49.8125 C737.05496094 49.28269531 737.67242188 48.75289062 738.30859375 48.20703125 C740 47 740 47 742 47 C742 46.34 742 45.68 742 45 C743.57421875 43.6328125 743.57421875 43.6328125 745.6875 42.125 C747.98971118 40.45871428 750.23940081 38.80356857 752.4375 37 C755.47939687 34.62583659 758.67028855 32.55170856 761.9140625 30.46484375 C764.01605245 29.07877888 764.01605245 29.07877888 765.63671875 27.359375 C767.32138486 25.67953601 768.68970769 25.39832626 771 25 C771 24.34 771 23.68 771 23 C776.75 20 776.75 20 779 20 C779 19.34 779 18.68 779 18 C781.31 17.34 783.62 16.68 786 16 C786 15.34 786 14.68 786 14 C788.28929053 12.82845707 790.58118362 11.66261926 792.875 10.5 C793.85146484 9.99919922 793.85146484 9.99919922 794.84765625 9.48828125 C799.7734375 7 799.7734375 7 802 7 C802 6.34 802 5.68 802 5 C802.69867187 4.72285156 803.39734375 4.44570312 804.1171875 4.16015625 C805.02726563 3.79792969 805.93734375 3.43570313 806.875 3.0625 C808.23238281 2.52302734 808.23238281 2.52302734 809.6171875 1.97265625 C811.96137667 1.05098738 811.96137667 1.05098738 814 0 C815.70702735 -0.06996014 817.41668003 -0.08440154 819.125 -0.0625 C820.03507813 -0.05347656 820.94515625 -0.04445312 821.8828125 -0.03515625 C822.93082031 -0.01775391 822.93082031 -0.01775391 824 0 C820.71195019 2.91227269 818.40114397 4.49701212 814 5 C814 5.66 814 6.32 814 7 C812.865625 7.268125 811.73125 7.53625 810.5625 7.8125 C809.386875 8.204375 808.21125 8.59625 807 9 C806.67 9.99 806.34 10.98 806 12 C803.85546875 13.46484375 803.85546875 13.46484375 801.1875 14.9375 C797.54764189 16.95366956 794.9095599 19.04027527 792 22 C790.66893378 22.34227417 789.33599921 22.67751743 788 23 C787.67 23.99 787.34 24.98 787 26 C785.37609523 27.38509525 783.69859667 28.70758949 782 30 C776.82847362 34.2741839 771.90655495 38.62968844 767.6875 43.875 C765.69376687 46.32497927 763.53380138 48.33285625 761.125 50.375 C752.84945901 57.47714339 746.55113004 66.34776739 740 75 C739.360625 75.83917969 738.72125 76.67835938 738.0625 77.54296875 C735.29235783 81.12070452 735.29235783 81.12070452 733 85 C732.34 85 731.68 85 731 85 C730.74992188 85.69351563 730.49984375 86.38703125 730.2421875 87.1015625 C728.81988043 90.420279 727.04818787 93.31967135 725.125 96.375 C721.88603689 101.54413093 721.88603689 101.54413093 718.8125 106.8125 C717.45220962 109.20473481 716.04838653 111.50112096 714.5625 113.8125 C712.1289984 117.66117638 710.1199499 121.66035269 708.125 125.75 C707 128 707 128 705.375 130.6875 C702.02472322 136.3220564 700.06128115 142.56232785 697.96484375 148.7421875 C697 151 697 151 695 152 C694.63893903 153.66088045 694.31212168 155.32923103 694 157 C692.78701628 160.31111772 691.47109702 163.57192138 690.15625 166.84375 C688.94862373 169.88369001 688.94862373 169.88369001 688.46875 172.71875 C688 175 688 175 686 178 C685.33386665 180.27538323 685.33386665 180.27538323 684.875 182.6875 C684.70742188 183.49574219 684.53984375 184.30398438 684.3671875 185.13671875 C684.24601563 185.75160156 684.12484375 186.36648438 684 187 C683.34 187 682.68 187 682 187 C681.87625 188.299375 681.7525 189.59875 681.625 190.9375 C681.10136672 195.71849952 680.13686165 200.33114101 679 205 C678.34 205 677.68 205 677 205 C676.34 209.62 675.68 214.24 675 219 C674.34 219 673.68 219 673 219 C672.93941406 219.845625 672.87882813 220.69125 672.81640625 221.5625 C671.49079755 239.50920245 671.49079755 239.50920245 670 241 C669.71281392 242.70751674 669.48437616 244.42498799 669.28125 246.14453125 C669.15363281 247.21509766 669.02601563 248.28566406 668.89453125 249.38867188 C668.76433594 250.51853516 668.63414062 251.64839844 668.5 252.8125 C668.36980469 253.89982422 668.23960937 254.98714844 668.10546875 256.10742188 C667.33632832 262.6451155 666.71575013 269.17345377 666.26367188 275.7409668 C666 278 666 278 665 279 C661.95933243 297.3397509 662.71918767 316.41742496 662.80438232 334.95159912 C662.81535313 337.97335556 662.81484625 340.99506799 662.81424427 344.01684093 C662.81451597 346.94994879 662.81999245 349.88302766 662.82724571 352.81612587 C662.83040736 354.2047434 662.83239387 355.59336416 662.83313942 356.98198509 C662.8353129 358.90621519 662.84486429 360.83043267 662.85473633 362.75463867 C662.85854813 363.84362961 662.86235992 364.93262054 662.86628723 366.05461121 C662.9917035 368.81724691 663.41505207 371.30422564 664 374 C664.06533435 375.93651019 664.08584303 377.87502861 664.0625 379.8125 C664.05347656 380.78832031 664.04445313 381.76414062 664.03515625 382.76953125 C664.02355469 383.50558594 664.01195312 384.24164062 664 385 C664.66 385 665.32 385 666 385 C667.11748118 405.67934589 667.40852123 426.30351149 666.5625 447 C666.52334473 447.9796875 666.48418945 448.959375 666.44384766 449.96875 C666.40179199 450.8659375 666.35973633 451.763125 666.31640625 452.6875 C666.27974854 453.47511719 666.24309082 454.26273438 666.20532227 455.07421875 C666 457 666 457 665 459 C664.72150328 460.87092203 664.48937701 462.74885497 664.28125 464.62890625 C664.15363281 465.74587891 664.02601563 466.86285156 663.89453125 468.01367188 C663.63108145 470.38341589 663.368062 472.75320779 663.10546875 475.12304688 C662.97785156 476.23873047 662.85023438 477.35441406 662.71875 478.50390625 C662.60466797 479.53330322 662.49058594 480.5627002 662.37304688 481.62329102 C662 484 662 484 661 485 C660.62943793 487.13962428 660.31616481 489.28922348 660.02734375 491.44140625 C659.85009766 492.74658203 659.67285156 494.05175781 659.49023438 495.39648438 C659.305899 496.78514423 659.1216554 498.17381627 658.9375 499.5625 C658.74973508 500.95513024 658.56158899 502.34770914 658.37304688 503.74023438 C657.9116008 507.15966811 657.45409895 510.57958409 657 514 C656.34 514 655.68 514 655 514 C654.96334229 514.59280762 654.92668457 515.18561523 654.88891602 515.79638672 C654.35834415 522.53445263 652.89145559 528.66923952 650.9375 535.125 C650.65583984 536.08148437 650.37417969 537.03796875 650.08398438 538.0234375 C649.39722515 540.35143487 648.70250054 542.67671433 648 545 C647.34 545 646.68 545 646 545 C645.9071875 546.794375 645.9071875 546.794375 645.8125 548.625 C645.06089323 555.44314711 642.45904999 561.64263252 640 568 C639.64421875 568.93714844 639.2884375 569.87429688 638.921875 570.83984375 C637.19857905 575.27801466 635.26121079 579.5177821 633.11694336 583.765625 C631.12359628 587.75319056 629.22139536 591.78400749 627.3125 595.8125 C626.90966797 596.65748047 626.50683594 597.50246094 626.09179688 598.37304688 C625.70701172 599.18451172 625.32222656 599.99597656 624.92578125 600.83203125 C624.57942627 601.56139893 624.23307129 602.2907666 623.8762207 603.04223633 C622.8977408 605.14192407 622.8977408 605.14192407 622 608 C621.34 608.33 620.68 608.66 620 609 C618.97874589 610.67649317 618.97874589 610.67649317 618.0625 612.6875 C617.71832031 613.40292969 617.37414062 614.11835937 617.01953125 614.85546875 C616.68308594 615.56316406 616.34664062 616.27085937 616 617 C615 619 614 621 613 623 C612.34 623 611.68 623 611 623 C610.34 625.31 609.68 627.62 609 630 C608.34 630 607.68 630 607 630 C606.731875 630.73347656 606.46375 631.46695313 606.1875 632.22265625 C605.02542007 634.94054714 603.72445922 637.04564189 602 639.4375 C601.07574219 640.72720703 601.07574219 640.72720703 600.1328125 642.04296875 C599.42898438 643.01878906 598.72515625 643.99460937 598 645 C597.16292725 646.18279114 596.32704543 647.36642577 595.4921875 648.55078125 C594.61997412 649.78398323 593.74757944 651.01705701 592.875 652.25 C592.46765625 652.82806396 592.0603125 653.40612793 591.640625 654.00170898 C588.92059473 657.8234612 586.02730561 661.41655998 583 665 C581.66266619 666.68433141 580.32909283 668.37165811 579 670.0625 C576.17561189 673.60225845 573.29472377 676.8833694 570 680 C567.23938349 682.68983147 564.63948193 685.40611378 562.1875 688.375 C559.34377731 691.74778737 556.18931354 694.57384502 552.828125 697.421875 C550.85154029 699.08235213 550.85154029 699.08235213 548.625 701.4375 C547 703 547 703 545 703 C544.67 703.99 544.34 704.98 544 706 C542.44140625 707.60546875 542.44140625 707.60546875 540.5625 709.1875 C539.63630859 709.98220703 539.63630859 709.98220703 538.69140625 710.79296875 C537 712 537 712 535 712 C534.67 712.99 534.34 713.98 534 715 C531.4375 716.1875 531.4375 716.1875 529 717 C529 717.66 529 718.32 529 719 C527.35 719.66 525.7 720.32 524 721 C524 721.66 524 722.32 524 723 C523.195625 723.268125 522.39125 723.53625 521.5625 723.8125 C520.2940625 724.4003125 520.2940625 724.4003125 519 725 C518.67 725.99 518.34 726.98 518 728 C514.9375 729.1875 514.9375 729.1875 512 730 C512 730.66 512 731.32 512 732 C510.2163382 733.31990973 508.37010988 734.55572191 506.5 735.75 C502.75632637 738.17237705 499.12393247 740.61125179 495.625 743.375 C492.57825401 745.72061197 489.77155606 747.05711099 486 748 C486 748.66 486 749.32 486 750 C483.69 750.66 481.38 751.32 479 752 C479 752.66 479 753.32 479 754 C473.25 757 473.25 757 471 757 C471 757.66 471 758.32 471 759 C468.69 759.66 466.38 760.32 464 761 C464 761.66 464 762.32 464 763 C460.7 763.99 457.4 764.98 454 766 C454 766.66 454 767.32 454 768 C448.33492989 771.08900201 443.49142565 773.57664615 437 774 C437 774.66 437 775.32 437 776 C433.82552417 777.47193624 430.6492526 778.93955479 427.46875 780.3984375 C425.41906445 781.34480132 423.37482635 782.30339309 421.34375 783.2890625 C417.0768002 785.32024751 413.80900194 786.80150032 409 786 C405.89758105 784.87069413 402.96823558 783.44046727 400 782 C397.64720648 780.91368768 395.29298999 779.83045302 392.9375 778.75 C390.95804217 777.83396224 388.97877362 776.91751482 387 776 C387 775.34 387 774.68 387 774 C386.443125 773.90203125 385.88625 773.8040625 385.3125 773.703125 C379.6188919 772.58748557 375.09228905 770.77761221 370 768 C370 767.34 370 766.68 370 766 C365.05 764.515 365.05 764.515 360 763 C360 762.34 360 761.68 360 761 C357.69 760.34 355.38 759.68 353 759 C353 758.34 353 757.68 353 757 C352.05125 756.690625 351.1025 756.38125 350.125 756.0625 C347 755 347 755 345 754 C345 753.34 345 752.68 345 752 C342.69 751.34 340.38 750.68 338 750 C338 749.34 338 748.68 338 748 C337.11957031 747.74734375 336.23914063 747.4946875 335.33203125 747.234375 C331.90056784 745.96316464 329.5836925 744.46397827 326.6875 742.25 C322.4264136 739.03959244 318.10141259 736.06008005 313.58203125 733.2265625 C312.79892578 732.61941406 312.79892578 732.61941406 312 732 C312 731.34 312 730.68 312 730 C311.030625 729.731875 310.06125 729.46375 309.0625 729.1875 C307.5465625 728.5996875 307.5465625 728.5996875 306 728 C305.67 727.01 305.34 726.02 305 725 C302.49552484 723.78130071 302.49552484 723.78130071 300 723 C300 722.34 300 721.68 300 721 C298.35 720.34 296.7 719.68 295 719 C295 718.34 295 717.68 295 717 C294.195625 716.731875 293.39125 716.46375 292.5625 716.1875 C291.716875 715.795625 290.87125 715.40375 290 715 C289.67 714.01 289.34 713.02 289 712 C288.2575 711.71125 287.515 711.4225 286.75 711.125 C283.3073824 709.71665643 281.43199767 707.77942591 279 705 C279 704.34 279 703.68 279 703 C278.319375 702.835 277.63875 702.67 276.9375 702.5 C273.2558074 700.61998676 271.31627277 698.16420651 268.69140625 695.0234375 C265.74861724 691.50296474 262.59487168 688.47094008 259 685.625 C256.13844827 683.12114223 254.31610933 680.79966811 252.21484375 677.69140625 C250.41535779 675.18601261 248.20450711 673.14939443 246 671 C244.31267723 669.01739574 242.64633943 667.0167658 241 665 C240.22269531 664.08476563 239.44539062 663.16953125 238.64453125 662.2265625 C235.98559878 659.03790929 233.57336128 655.70807569 231.1875 652.3125 C227.44701158 647.01367586 227.44701158 647.01367586 223.609375 641.78515625 C222.53429687 640.34462891 222.53429687 640.34462891 221.4375 638.875 C220.79683594 638.02679687 220.15617188 637.17859375 219.49609375 636.3046875 C218.08345321 634.12855717 217.42651134 632.53569758 217 630 C216.34 630 215.68 630 215 630 C214.34 627.69 213.68 625.38 213 623 C212.34 623 211.68 623 211 623 C208 617 208 617 206.98046875 614.85546875 C206.63628906 614.14003906 206.29210937 613.42460938 205.9375 612.6875 C205.45603516 611.67236328 205.45603516 611.67236328 204.96484375 610.63671875 C204.09396979 608.82056666 204.09396979 608.82056666 202 608 C201.140625 606.390625 201.140625 606.390625 200.25 604.25 C198.55521703 600.28496671 196.80536372 596.35368038 195 592.4375 C194.22849609 590.76300781 194.22849609 590.76300781 193.44140625 589.0546875 C192.32433275 586.68733931 191.16264094 584.3738995 189.9375 582.0625 C187.55357169 577.38366976 185.9474492 572.41901203 184.234375 567.46484375 C183.17134376 564.48095542 182.00193538 561.59507457 180.75 558.6875 C178.86537014 554.10511368 178.31825921 549.93301775 178 545 C177.34 545 176.68 545 176 545 C175.73445312 543.98679687 175.46890625 542.97359375 175.1953125 541.9296875 C174.83864311 540.57809823 174.48186657 539.22653722 174.125 537.875 C173.95097656 537.20984375 173.77695312 536.5446875 173.59765625 535.859375 C172.78975013 532.80728522 171.94099386 529.82972513 170.90625 526.84375 C170.013188 524.04138304 169.61209805 521.54920933 169.375 518.625 C169.30023438 517.75101563 169.22546875 516.87703125 169.1484375 515.9765625 C169.07496094 514.99816406 169.07496094 514.99816406 169 514 C168.34 514 167.68 514 167 514 C166.82609741 512.69011108 166.82609741 512.69011108 166.64868164 511.35375977 C166.21781252 508.123641 165.7831761 504.89405848 165.34594727 501.66479492 C165.15725136 500.26525963 164.97007231 498.86551897 164.78442383 497.46557617 C164.51779728 495.45698954 164.24531724 493.44918262 163.97265625 491.44140625 C163.81031494 490.23170166 163.64797363 489.02199707 163.48071289 487.77563477 C163.29175873 485.09973637 163.29175873 485.09973637 162 484 C161.71350459 482.17471672 161.48476609 480.34029398 161.28125 478.50390625 C161.15363281 477.38822266 161.02601563 476.27253906 160.89453125 475.12304688 C160.76433594 473.94806641 160.63414062 472.77308594 160.5 471.5625 C160.24301619 469.25091786 159.98276406 466.93969599 159.71875 464.62890625 C159.60466797 463.59838135 159.49058594 462.56785645 159.37304688 461.50610352 C159.13398154 459.00908765 159.13398154 459.00908765 158 457 C157.84719123 455.56675913 157.75060596 454.12730529 157.68359375 452.6875 C157.64153809 451.7903125 157.59948242 450.893125 157.55615234 449.96875 C157.51699707 448.9890625 157.4778418 448.009375 157.4375 447 C157.3957666 445.9790625 157.3540332 444.958125 157.31103516 443.90625 C156.58028685 424.24464664 156.93860016 404.64154274 158 385 C158.66 385 159.32 385 160 385 C159.98839844 384.26394531 159.97679687 383.52789063 159.96484375 382.76953125 C159.95582031 381.79371094 159.94679687 380.81789063 159.9375 379.8125 C159.92589844 378.84957031 159.91429687 377.88664062 159.90234375 376.89453125 C160 374 160 374 160.49702454 371.70942688 C161.06092873 368.67178928 161.13444873 365.84435336 161.14526367 362.75463867 C161.15164352 361.5111113 161.15802338 360.26758392 161.16459656 358.9863739 C161.16612836 357.63023925 161.16724064 356.27410407 161.16796875 354.91796875 C161.17119068 353.50287341 161.17455542 352.08777839 161.17805481 350.67268372 C161.18404329 347.69608799 161.18589571 344.71952124 161.18530273 341.74291992 C161.18522243 338.73992768 161.19200706 335.73709107 161.20581055 332.73413086 C161.6037758 305.77262567 161.6037758 305.77262567 159 279 C158.67 278.67 158.34 278.34 158 278 C157.71145765 275.86803458 157.48368427 273.72779502 157.28125 271.5859375 C157.18704773 270.61414047 157.18704773 270.61414047 157.09094238 269.62271118 C156.88976552 267.54051813 156.69458855 265.45781822 156.5 263.375 C156.30444567 261.31371249 156.10759693 259.252561 155.90905762 257.19155884 C155.72783801 255.30552072 155.55034396 253.41912574 155.37304688 251.53271484 C155.25061541 245.32710579 155.25061541 245.32710579 153 240 C152.59602148 237.80023376 152.2521647 235.58930717 151.9375 233.375 C151.67259766 231.56128906 151.67259766 231.56128906 151.40234375 229.7109375 C151.01153384 226.10638011 150.93016254 222.62223645 151 219 C150.34 219 149.68 219 149 219 C148.01 212.07 148.01 212.07 147 205 C146.34 205 145.68 205 145 205 C144.49490792 202.75113762 143.99610821 200.50086131 143.5 198.25 C143.2215625 196.99703125 142.943125 195.7440625 142.65625 194.453125 C142 191 142 191 142 187 C141.34 187 140.68 187 140 187 C139.01 183.04 138.02 179.08 137 175 C136.67 175 136.34 175 136 175 C135.74605469 174.05898438 135.49210938 173.11796875 135.23046875 172.1484375 C134.88628906 170.90320313 134.54210937 169.65796875 134.1875 168.375 C133.85105469 167.14523437 133.51460937 165.91546875 133.16796875 164.6484375 C132.09956163 160.9901386 132.09956163 160.9901386 130.36328125 157.7265625 C129 155 129 155 129 152 C128.34 151.67 127.68 151.34 127 151 C126.0703125 148.77734375 126.0703125 148.77734375 125.125 145.9375 C123.41796374 141.04945521 121.39876459 136.57542135 119 132 C118.22867903 130.41690416 117.45787806 128.8335549 116.6875 127.25 C114.25197202 122.37147309 111.52896417 117.69340829 108.75 113.00390625 C107.1171153 110.20103051 105.58023995 107.36638388 104.0625 104.5 C101.23288833 99.23186121 97.94783802 94.34248584 94.5390625 89.43359375 C93 87 93 87 93 85 C92.34 85 91.68 85 91 85 C90.05873803 83.64544829 89.12815821 82.28254484 88.24462891 80.88964844 C85.77721377 77.14351405 82.94578462 73.65914436 80.1875 70.125 C79.59646484 69.36058594 79.00542969 68.59617187 78.39648438 67.80859375 C72.97614288 60.84549421 67.58825447 54.1776049 60.75390625 48.56640625 C58.13794197 46.23009962 55.96257044 43.55557619 53.6953125 40.88671875 C51.34233638 38.26808404 48.74783541 36.19826832 46 34 C44.66666667 32.66666667 43.33333333 31.33333333 42 30 C40.92150119 29.119048 39.83790604 28.2443081 38.75 27.375 C37.8425 26.59125 36.935 25.8075 36 25 C36 24.34 36 23.68 36 23 C35.278125 22.7525 34.55625 22.505 33.8125 22.25 C30.70007027 20.8666979 28.63751723 19.15796864 26 17 C23.61301607 15.43014548 21.21053679 13.88950604 18.79296875 12.3671875 C18.20128906 11.91601562 17.60960938 11.46484375 17 11 C17 10.34 17 9.68 17 9 C14.69 8.34 12.38 7.68 10 7 C10 6.34 10 5.68 10 5 C8.906875 4.731875 7.81375 4.46375 6.6875 4.1875 C3.2149991 3.069237 2.28172966 2.56255793 0 0 Z " fill="#FFFFFF" transform="translate(88,138)"/>
<path d="M0 0 C1.65 0 3.3 0 5 0 C5 0.99 5 1.98 5 3 C3.86477473 4.10082451 2.7250646 5.19730468 1.56640625 6.2734375 C-1.21624507 9.34059931 -3.21304373 12.94461973 -5.3515625 16.4765625 C-7 19 -7 19 -8.4609375 20.3984375 C-10.38037201 22.39581859 -11.52637432 24.68096283 -12.85791016 27.09179688 C-14.82662625 30.38112672 -17.26615541 33.28665907 -19.6875 36.25 C-23.4752558 40.74478551 -23.4752558 40.74478551 -26 46 C-27.44474819 47.57608893 -28.98965988 48.99048709 -30.5625 50.4375 C-32.15166178 52.16484976 -33.04386867 53.86709165 -34 56 C-34.66 56 -35.32 56 -36 56 C-36.25394531 56.72574219 -36.50789062 57.45148438 -36.76953125 58.19921875 C-38.08186517 61.18634071 -39.61887157 63.29682024 -41.6875 65.8125 C-42.40550781 66.6890625 -43.12351562 67.565625 -43.86328125 68.46875 C-45.67225828 70.6117429 -47.50846105 72.71984826 -49.375 74.8125 C-52.93660807 78.81522467 -56.16001543 83.05212263 -59.36083984 87.3449707 C-61.3573174 89.99310433 -63.37857967 92.37372608 -65.7421875 94.70703125 C-68.20018524 96.86673785 -68.20018524 96.86673785 -69 100 C-70.62942041 101.70309855 -72.30232267 103.36493204 -74 105 C-75.70062076 106.80019486 -77.3880462 108.61294061 -79.0625 110.4375 C-79.89910156 111.34371094 -80.73570312 112.24992187 -81.59765625 113.18359375 C-84.06815936 115.96344054 -84.06815936 115.96344054 -86.078125 119.1484375 C-87.80907869 121.71672244 -89.26872725 123.31439399 -91.6875 125.1875 C-94.2927162 127.21253957 -94.91317024 127.73951072 -96 131 C-97.6015625 132.54296875 -97.6015625 132.54296875 -99.625 134.1875 C-103.87421685 137.79289611 -107.42400897 141.73976468 -111 146 C-114.83466379 150.55527175 -118.64261848 154.65400667 -123.24609375 158.43359375 C-125.86558288 160.77304841 -128.0437903 163.45116357 -130.3125 166.125 C-132.63660927 168.70734364 -135.3293774 170.78395146 -138 173 C-138.97866115 174.10736179 -139.93614385 175.23369509 -140.875 176.375 C-144.89223938 181.21466634 -149.63272007 185.19635815 -154.625 189 C-157.28124315 191.23683633 -159.32829669 193.69351769 -161.47265625 196.4140625 C-163.17850658 198.18535465 -164.79095035 198.95732857 -167 200 C-168.16033802 201.12718551 -169.31661276 202.25935796 -170.4375 203.42578125 C-172.45779563 205.4612291 -174.56166092 207.38766173 -176.6875 209.3125 C-177.83798828 210.35857422 -177.83798828 210.35857422 -179.01171875 211.42578125 C-181 213 -181 213 -183 213 C-183 213.66 -183 214.32 -183 215 C-185.31 215.33 -187.62 215.66 -190 216 C-194.7698193 201.69054209 -190.53897721 182.5084412 -188 168 C-187.34 168 -186.68 168 -186 168 C-185.78988281 167.01 -185.57976563 166.02 -185.36328125 165 C-184.00259356 160.25013673 -181.21900458 156.82695378 -178.1875 153 C-177.13859025 151.64640076 -176.09040657 150.29223856 -175.04296875 148.9375 C-174.27738647 147.95620117 -174.27738647 147.95620117 -173.49633789 146.95507812 C-172.0387446 145.05062274 -170.64064807 143.11545859 -169.2578125 141.15625 C-166.04095663 136.65933038 -162.24046151 133.19930167 -158.0625 129.625 C-154.86125456 126.861378 -152.17854626 123.94833892 -149.5 120.6875 C-147.42564383 118.35384931 -145.06749447 116.4553416 -142.66015625 114.4765625 C-141.02651838 113.02358576 -139.72356959 111.52886129 -138.375 109.8125 C-136.01932003 107.02287898 -134.08105595 105.84863357 -131 104 C-130.175 103.01 -129.35 102.02 -128.5 101 C-126.08378607 98.10054329 -124.22844164 96.8211722 -121 95 C-120.278125 94.278125 -119.55625 93.55625 -118.8125 92.8125 C-118.214375 92.214375 -117.61625 91.61625 -117 91 C-116.34 91 -115.68 91 -115 91 C-114.505 89.515 -114.505 89.515 -114 88 C-112.2578125 86.5 -112.2578125 86.5 -110.125 85 C-107.50797803 83.14587373 -105.25743855 81.2692576 -103 79 C-101.00787303 77.45770815 -98.97490744 75.98175087 -96.9375 74.5 C-95.00920604 73.07233318 -95.00920604 73.07233318 -93.5 71.5 C-91.20233094 69.20233094 -88.56026837 67.4074679 -85.9375 65.5 C-84.13375978 64.10355596 -82.58764206 62.63236437 -81 61 C-79.35648543 59.63823078 -77.68477344 58.31037934 -76 57 C-75.3296875 56.47535156 -74.659375 55.95070313 -73.96875 55.41015625 C-73.2571875 54.86230469 -72.545625 54.31445312 -71.8125 53.75 C-70.80123047 52.96882813 -70.80123047 52.96882813 -69.76953125 52.171875 C-68 51 -68 51 -66 51 C-66 50.34 -66 49.68 -66 49 C-64.34928604 47.97388051 -62.68029994 46.97691857 -61 46 C-59.97895449 45.02149805 -58.9793879 44.02019573 -58 43 C-55.4342818 40.85034421 -52.85808759 38.9063982 -50.0625 37.0625 C-47.49617634 35.33415957 -45.18957122 33.49481444 -42.8359375 31.49609375 C-40.42142905 29.52852623 -37.93964226 27.66730519 -35.4375 25.8125 C-34.07431641 24.80123047 -34.07431641 24.80123047 -32.68359375 23.76953125 C-30 22 -30 22 -27.22265625 20.94921875 C-26.48917969 20.63597656 -25.75570312 20.32273437 -25 20 C-24.67 19.01 -24.34 18.02 -24 17 C-21.75 15.5 -21.75 15.5 -19 14 C-15.59338277 12.09893004 -15.59338277 12.09893004 -12.63671875 9.60546875 C-10.71686587 7.72227177 -8.67364032 6.30448819 -6.4375 4.8125 C-5.25994141 4.01779297 -5.25994141 4.01779297 -4.05859375 3.20703125 C-2 2 -2 2 0 2 C0 1.34 0 0.68 0 0 Z " fill="#FFFFFF" transform="translate(971,281)"/>
<path d="M0 0 C1.65 0 3.3 0 5 0 C5 0.66 5 1.32 5 2 C5.99 2.3403125 5.99 2.3403125 7 2.6875 C12.25981382 4.98866855 17.01349809 7.84785396 21 12 C23.87272625 14.43076837 26.55428652 16.46857179 30 18 C30 18.66 30 19.32 30 20 C31.07701172 20.38285156 31.07701172 20.38285156 32.17578125 20.7734375 C35.1989721 22.08641388 37.54196953 23.66332157 40.1875 25.625 C41.14140625 26.33140625 42.0953125 27.0378125 43.078125 27.765625 C46.71703876 30.54832376 50.27861022 33.41657715 53.80859375 36.3359375 C55.89977028 38.03238578 55.89977028 38.03238578 58.09765625 39.0390625 C60.19371565 40.09785226 61.37663742 41.31791112 63 43 C65.09223721 44.57217825 67.21969928 46.08530057 69.35546875 47.59765625 C69.89816406 48.06042969 70.44085938 48.52320313 71 49 C71 49.66 71 50.32 71 51 C71.721875 51.2475 72.44375 51.495 73.1875 51.75 C76.28571093 53.12698264 78.42164314 54.80839667 81 57 C84.63877762 59.95036023 88.35613441 62.76510248 92.1328125 65.53515625 C93.90592141 66.92619357 95.42697766 68.39010995 97 70 C101.13967806 73.81058231 105.15822862 77.12110891 110 80 C111.68762851 81.6454378 113.3540349 83.31288577 115 85 C115.928125 85.721875 116.85625 86.44375 117.8125 87.1875 C118.534375 87.785625 119.25625 88.38375 120 89 C120 89.66 120 90.32 120 91 C120.7425 91.2475 121.485 91.495 122.25 91.75 C125.27953895 93.12706316 126.72938119 94.59176793 129 97 C129.99 97.825 130.98 98.65 132 99.5 C134.48936185 101.57446821 136.71405947 103.71405947 139 106 C139.94875 106.763125 140.8975 107.52625 141.875 108.3125 C144.16755313 110.18561358 146.05269046 112.15562392 147.9375 114.4375 C149.96927853 116.89367091 152.04034088 118.97280842 154.5 121 C157.56511234 123.53175579 160.06546585 126.28375189 162.59765625 129.33984375 C165.26476019 132.49727877 168.27522976 135.31383436 171.2734375 138.15234375 C174.52173522 141.54490684 177.27669739 145.16352589 180.0625 148.9375 C180.57876953 149.62779297 181.09503906 150.31808594 181.62695312 151.02929688 C190.38879617 162.80476747 190.38879617 162.80476747 191 168 C191.66 168 192.32 168 193 168 C199.19672131 203.40983607 199.19672131 203.40983607 195 216 C192.69 215.67 190.38 215.34 188 215 C188 214.34 188 213.68 188 213 C187.45472656 212.76152344 186.90945312 212.52304687 186.34765625 212.27734375 C183.40886317 210.67836648 181.01295103 208.69644514 178.4375 206.5625 C177.48746094 205.78003906 176.53742188 204.99757813 175.55859375 204.19140625 C173.6047263 202.51794115 171.79907477 200.82982818 170 199 C168.88355741 198.03171093 167.75820819 197.07361319 166.625 196.125 C163.59575783 193.55396253 160.80987159 190.80987159 158 188 C157.175 187.360625 156.35 186.72125 155.5 186.0625 C153.13006815 184.10730622 151.35901184 182.02847856 149.44921875 179.63671875 C147.76564364 177.7353226 145.93471556 176.14432674 144 174.5 C140.58651082 171.59598682 137.87190332 168.44628398 135 165 C133.72546364 163.85562906 132.43222464 162.7318837 131.125 161.625 C127.58813349 158.61433397 124.58367962 155.37286854 121.58203125 151.8359375 C120.28623868 150.33217822 118.90363285 148.90363285 117.5 147.5 C115.41741508 145.41741508 113.53034813 143.30234258 111.625 141.0625 C108.79173616 137.76945212 105.80083107 134.9988566 102.3828125 132.32421875 C101 131 101 131 100 128 C98.59956826 126.65316113 98.59956826 126.65316113 96.875 125.375 C93.27176861 122.40288449 90.62147983 119.0994731 87.828125 115.375 C84.16727816 110.61902803 80.16932774 106.06806648 75.82421875 101.92578125 C74 100 74 100 73 97 C71.34646183 95.32030745 69.67724836 93.65601736 68 92 C66.12006896 89.75993677 64.34281657 87.44462664 62.5625 85.125 C58.28960293 79.60457961 58.28960293 79.60457961 53.8125 74.25 C51.41338608 71.49416652 49.06632931 68.70100464 46.75 65.875 C46.08484375 65.06804687 45.4196875 64.26109375 44.734375 63.4296875 C43 61 43 61 41.953125 58.2578125 C41.63859375 57.51273437 41.3240625 56.76765625 41 56 C40.01 55.67 39.02 55.34 38 55 C37.67 54.01 37.34 53.02 37 52 C35.59969268 50.47239201 34.12547643 49.10910994 32.5625 47.75 C31 46 31 46 29.25 42.8359375 C27.01183152 38.86289374 24.3111422 35.40403429 21.4375 31.875 C18.32544317 28.03388032 15.48921279 24.28577507 13 20 C12.01971384 18.65210653 11.02028865 17.31787285 10 16 C8.30681428 13.78134285 6.79793024 11.65803578 5.375 9.25 C4.05018376 6.8725116 4.05018376 6.8725116 1.8125 4.875 C0 3 0 3 0 0 Z " fill="#FFFFFF" transform="translate(24,281)"/>
<path d="M0 0 C1.32 0 2.64 0 4 0 C3.43928229 3.94311163 1.55781148 5.89439727 -1.125 8.75 C-4.72374334 12.6185056 -8.20130715 16.54813574 -11.58984375 20.6015625 C-13 22 -13 22 -15 22 C-15.26643311 22.59240479 -15.53286621 23.18480957 -15.80737305 23.79516602 C-17.02445218 26.04520525 -18.26299628 27.49331612 -20.08203125 29.27734375 C-20.98598633 30.17163086 -20.98598633 30.17163086 -21.90820312 31.08398438 C-22.53662109 31.69564453 -23.16503906 32.30730469 -23.8125 32.9375 C-24.73772461 33.84918945 -24.73772461 33.84918945 -25.68164062 34.77929688 C-26.89117412 35.97083519 -28.10247373 37.16058382 -29.31567383 38.34838867 C-32.31905554 41.29343538 -35.29684647 44.25666627 -38.1875 47.3125 C-40 49 -40 49 -42 49 C-42.20625 49.556875 -42.4125 50.11375 -42.625 50.6875 C-44.17101496 53.28761607 -46.0665063 54.84722343 -48.421875 56.7109375 C-50.22762606 58.14194549 -50.22762606 58.14194549 -52.5625 60.5625 C-55 63 -55 63 -57.5 64.9375 C-60.16666443 67.00086381 -60.16666443 67.00086381 -62.5 70.0625 C-64.9279053 72.91528873 -66.84777956 74.10866773 -70 76 C-70.825 76.99 -71.65 77.98 -72.5 79 C-74.92890508 81.9146861 -76.77249537 83.14418484 -80 85 C-81.68762851 86.6454378 -83.3540349 88.31288577 -85 90 C-89.64864865 94 -89.64864865 94 -92 94 C-92 94.66 -92 95.32 -92 96 C-94.19355232 97.87001078 -96.39484076 99.63431966 -98.6875 101.375 C-99.94150869 102.34101287 -101.19541665 103.30715651 -102.44921875 104.2734375 C-103.05427246 104.73459961 -103.65932617 105.19576172 -104.28271484 105.67089844 C-105.82527866 106.86477353 -107.3313354 108.10546747 -108.83203125 109.3515625 C-111 111 -111 111 -113 111 C-113.495 112.485 -113.495 112.485 -114 114 C-115.3153341 114.70151152 -116.65117592 115.36525925 -118 116 C-119.02196992 116.97753644 -120.01979625 117.9805881 -121 119 C-123.90286447 121.45626994 -126.61768076 123.30884038 -130 125 C-130.4021875 125.4228125 -130.804375 125.845625 -131.21875 126.28125 C-133.69928156 128.67474536 -136.52676283 130.5162229 -139.375 132.4375 C-142.58859611 134.61291381 -145.74832243 136.79659909 -148.76953125 139.23828125 C-150.9449801 140.95654295 -152.29339289 141.59902117 -155 142 C-155 142.66 -155 143.32 -155 144 C-160.75 147 -160.75 147 -163 147 C-163 147.66 -163 148.32 -163 149 C-165.97 149.99 -165.97 149.99 -169 151 C-169 151.66 -169 152.32 -169 153 C-171.95664519 154.4783226 -174.74229737 154.06032783 -178 154 C-178.02684679 151.35409986 -178.04676357 148.70846904 -178.0625 146.0625 C-178.07087891 145.30775391 -178.07925781 144.55300781 -178.08789062 143.77539062 C-178.09652441 141.85005687 -178.05224333 139.92464419 -178 138 C-177.67 137.67 -177.34 137.34 -177 137 C-176.87625 135.845 -176.7525 134.69 -176.625 133.5 C-175.3835602 122.94776167 -170.88908402 113.17189457 -163 106 C-161.56098026 104.52231178 -160.12364331 103.04298393 -158.6875 101.5625 C-155.2428099 98.10630844 -151.71455673 95.09542881 -147.7265625 92.2890625 C-145.97526915 90.98153579 -144.53964738 89.54752281 -143 88 C-141.66501 86.91350319 -140.30986245 85.8513912 -138.9375 84.8125 C-138.24527344 84.28269531 -137.55304687 83.75289062 -136.83984375 83.20703125 C-135 82 -135 82 -133 82 C-133 81.34 -133 80.68 -133 80 C-131.03332181 78.56485645 -129.06771455 77.28057321 -127 76 C-125.06004536 74.79561149 -123.12269716 73.58701801 -121.1875 72.375 C-120.23230469 71.78460937 -119.27710938 71.19421875 -118.29296875 70.5859375 C-115.90129781 69.20361316 -115.90129781 69.20361316 -115 67 C-109.57692308 64 -109.57692308 64 -107 64 C-107 63.34 -107 62.68 -107 62 C-105.02 61.34 -103.04 60.68 -101 60 C-101 59.34 -101 58.68 -101 58 C-95.25 55 -95.25 55 -93 55 C-93 54.34 -93 53.68 -93 53 C-92.14921875 52.59136719 -91.2984375 52.18273437 -90.421875 51.76171875 C-86.29453539 49.63679847 -82.41117922 47.19285049 -78.50390625 44.69726562 C-74.21029974 42 -74.21029974 42 -72 42 C-72 41.34 -72 40.68 -72 40 C-69.69 39.34 -67.38 38.68 -65 38 C-65 37.34 -65 36.68 -65 36 C-64.48050781 35.74605469 -63.96101562 35.49210938 -63.42578125 35.23046875 C-60.24949435 33.66287429 -57.1531247 32.09320634 -54.125 30.25 C-52 29 -52 29 -50 29 C-50 28.34 -50 27.68 -50 27 C-47.71070947 25.82845707 -45.41881638 24.66261926 -43.125 23.5 C-42.14853516 22.99919922 -42.14853516 22.99919922 -41.15234375 22.48828125 C-36.2265625 20 -36.2265625 20 -34 20 C-34 19.34 -34 18.68 -34 18 C-31.54379149 16.82866942 -29.08525083 15.66278278 -26.625 14.5 C-25.92632813 14.16613281 -25.22765625 13.83226562 -24.5078125 13.48828125 C-19.2265625 11 -19.2265625 11 -17 11 C-17 10.34 -17 9.68 -17 9 C-15.05675887 8.02837943 -13.11327281 7.05733126 -11.16796875 6.08984375 C-9.32966452 5.16572325 -7.50673968 4.21110776 -5.6875 3.25 C-3 2 -3 2 0 2 C0 1.34 0 0.68 0 0 Z " fill="#FFFFFF" transform="translate(946,481)"/>
<path d="M0 0 C1.32 0 2.64 0 4 0 C4 0.66 4 1.32 4 2 C4.69480469 2.10183594 5.38960937 2.20367187 6.10546875 2.30859375 C9.49052552 3.11717006 12.22287019 4.46675713 15.3125 6.0625 C16.38113281 6.61035156 17.44976562 7.15820312 18.55078125 7.72265625 C19.35902344 8.14417969 20.16726562 8.56570313 21 9 C21 9.66 21 10.32 21 11 C21.94875 11.226875 22.8975 11.45375 23.875 11.6875 C28.89627504 13.10005581 33.40414173 15.57723367 38 18 C38 18.66 38 19.32 38 20 C38.78375 20.226875 39.5675 20.45375 40.375 20.6875 C45.12301625 22.40660933 49.52102552 24.68084721 54 27 C54 27.66 54 28.32 54 29 C54.886875 29.268125 55.77375 29.53625 56.6875 29.8125 C59.78995619 30.92470128 62.22647138 32.24829771 65 34 C66.32608822 34.68096422 67.65686601 35.35330586 69 36 C69 36.66 69 37.32 69 38 C71.31 38.66 73.62 39.32 76 40 C76 40.66 76 41.32 76 42 C77.175625 42.2784375 77.175625 42.2784375 78.375 42.5625 C82.63443792 44.25158745 85.87781002 46.61662927 89.53515625 49.34375 C91.96222063 50.97461418 94.2538264 52.02097198 97 53 C97 53.66 97 54.32 97 55 C97.94875 55.309375 98.8975 55.61875 99.875 55.9375 C103 57 103 57 105 58 C105 58.66 105 59.32 105 60 C106.98 60.66 108.96 61.32 111 62 C111 62.66 111 63.32 111 64 C113.65228812 65.07525194 116.28368454 66.09456151 119 67 C120.01422257 67.98557221 121.01200352 68.98813887 122 70 C123.60360284 71.1959072 125.23079872 72.36055352 126.875 73.5 C127.71804687 74.0878125 128.56109375 74.675625 129.4296875 75.28125 C132.00015767 77.04658448 132.00015767 77.04658448 134.8203125 78.59375 C135.53960937 79.0578125 136.25890625 79.521875 137 80 C137 80.66 137 81.32 137 82 C137.721875 82.2475 138.44375 82.495 139.1875 82.75 C145.2515086 85.44511493 150.06562409 90.63102133 155 95 C155.845625 95.73992187 156.69125 96.47984375 157.5625 97.2421875 C162.11482066 101.2661138 166.2477022 105.22434826 170 110 C170.515625 110.474375 171.03125 110.94875 171.5625 111.4375 C178.0058841 118.44117837 180.01988966 127.85230349 181 137 C181.33 137.33 181.66 137.66 182 138 C182.07319621 140.69654854 182.09242537 143.36691458 182.0625 146.0625 C182.05798828 146.82111328 182.05347656 147.57972656 182.04882812 148.36132812 C182.0370068 150.24091871 182.01907078 152.12046899 182 154 C175.25 154.125 175.25 154.125 173 153 C173 152.34 173 151.68 173 151 C170.03 150.01 170.03 150.01 167 149 C167 148.34 167 147.68 167 147 C166.05125 146.690625 165.1025 146.38125 164.125 146.0625 C161 145 161 145 159 144 C159 143.34 159 142.68 159 142 C158.071875 141.731875 157.14375 141.46375 156.1875 141.1875 C152.99606232 139.99853302 152.2639895 139.3190744 150 137 C148.39639716 135.8040928 146.76920128 134.63944648 145.125 133.5 C144.28195313 132.9121875 143.43890625 132.324375 142.5703125 131.71875 C140.83611275 130.55910275 139.069866 129.44618994 137.27734375 128.37890625 C135.14255264 127.08631403 133.7475649 125.7475649 132 124 C131.34 123.67 130.68 123.34 130 123 C127.83058138 121.91529069 126.67385457 120.74080876 125 119 C122.39532139 116.85114015 119.8112181 114.8741454 117 113 C117 112.34 117 111.68 117 111 C116.32324219 110.79503906 115.64648438 110.59007812 114.94921875 110.37890625 C110.97136406 108.51906161 108.06872201 105.84666387 104.8125 102.9375 C103.57051998 101.84073611 102.32709637 100.74560413 101.08203125 99.65234375 C100.53780518 99.16757568 99.9935791 98.68280762 99.43286133 98.18334961 C97.98967235 96.90119835 97.98967235 96.90119835 96 96 C96 95.34 96 94.68 96 94 C95.29875 93.773125 94.5975 93.54625 93.875 93.3125 C88.7077291 90.9535285 84.96777129 86.96777129 81 83 C80.01 82.175 79.02 81.35 78 80.5 C75.51063815 78.42553179 73.28594053 76.28594053 71 74 C70.030625 73.195625 69.06125 72.39125 68.0625 71.5625 C65.20349393 69.17027043 62.63345617 66.63345617 60 64 C59.175 63.360625 58.35 62.72125 57.5 62.0625 C54.58556814 59.65809371 52.40885898 56.9029839 50 54 C48.67098936 52.99426222 47.33926199 51.99204592 46 51 C46 50.34 46 49.68 46 49 C45.46375 48.773125 44.9275 48.54625 44.375 48.3125 C38.87065808 45.27062683 35.02448441 40.99588048 31.01171875 36.26171875 C27.83695957 32.69242639 24.38132375 29.41331616 20.94140625 26.1015625 C19 24 19 24 19 22 C18.40703125 21.74347656 17.8140625 21.48695313 17.203125 21.22265625 C14.79063636 19.8838106 13.508594 18.55037385 11.75 16.4375 C8.44528632 12.50912018 5.00529457 8.7343291 1.50390625 4.98046875 C0 3 0 3 0 0 Z " fill="#FFFFFF" transform="translate(50,481)"/>
<path d="M0 0 C0.66 0 1.32 0 2 0 C2.05865035 3.18742115 2.09381259 6.37470118 2.125 9.5625 C2.14175781 10.45775391 2.15851563 11.35300781 2.17578125 12.27539062 C2.21478356 17.59920526 1.62502334 21.88418577 0 27 C-0.56738561 30.78651092 -1.0014684 34.57530914 -1.4375 38.37890625 C-1.96977239 41.80540973 -2.85755453 44.73710649 -4 48 C-4.78840813 51.28371985 -5.50348513 54.57858082 -6.21875 57.87890625 C-6.93359521 60.73471288 -7.89012391 63.2814776 -9 66 C-9.34701171 67.40861051 -9.66060077 68.8259468 -9.9375 70.25 C-11.52989592 77.75167766 -14.27002909 84.85007619 -17 92 C-17.66 92 -18.32 92 -19 92 C-19.33 94.31 -19.66 96.62 -20 99 C-20.66 99 -21.32 99 -22 99 C-22.144375 99.94875 -22.28875 100.8975 -22.4375 101.875 C-23 105 -23 105 -24 107 C-24.66 107 -25.32 107 -26 107 C-26.185625 107.86625 -26.185625 107.86625 -26.375 108.75 C-27.00648824 111.02335767 -27.88858191 112.9253529 -29 115 C-29.66 115 -30.32 115 -31 115 C-31.08378906 115.55171875 -31.16757812 116.1034375 -31.25390625 116.671875 C-32.24169465 119.75418854 -33.90741827 121.73901284 -35.9375 124.25 C-36.64777344 125.14203125 -37.35804688 126.0340625 -38.08984375 126.953125 C-38.72019531 127.62859375 -39.35054687 128.3040625 -40 129 C-40.66 129 -41.32 129 -42 129 C-42.33 129.99 -42.66 130.98 -43 132 C-44.3153341 132.70151152 -45.65117592 133.36525925 -47 134 C-47.433125 134.45375 -47.86625 134.9075 -48.3125 135.375 C-54.28558745 141.12686199 -59.45452603 141.45505437 -67.51953125 141.40039062 C-68.79183594 141.37138672 -70.06414063 141.34238281 -71.375 141.3125 C-72.67050781 141.30283203 -73.96601562 141.29316406 -75.30078125 141.28320312 C-84.83180928 141.16819072 -84.83180928 141.16819072 -86 140 C-86.14115161 137.32941149 -86.04247107 134.67567762 -86 132 C-85.34 132 -84.68 132 -84 132 C-83.62875 131.01 -83.62875 131.01 -83.25 130 C-80.07679068 122.38429764 -75.97034979 115.22058712 -72 108 C-70.87428305 105.93789122 -69.74925682 103.8754052 -68.625 101.8125 C-67.75 100.20833333 -66.875 98.60416667 -66 97 C-65.34 97 -64.68 97 -64 97 C-63.87882813 96.42507813 -63.75765625 95.85015625 -63.6328125 95.2578125 C-61.65997965 88.21893973 -56.74847803 82.12823862 -52.5546875 76.26953125 C-50.88912109 73.94890462 -50.88912109 73.94890462 -49.5 71 C-48.1472143 68.29442861 -46.69269425 66.07657062 -44.9375 63.625 C-41.79729473 59.23532357 -38.94320611 54.72329704 -36.125 50.125 C-32.37249504 44.02395932 -28.36015556 38.3098655 -23.9765625 32.640625 C-22.18082844 30.24158108 -20.59898367 27.81979141 -19.0625 25.25 C-18.381875 24.1775 -17.70125 23.105 -17 22 C-16.34 22 -15.68 22 -15 22 C-14.77183594 21.31035156 -14.54367187 20.62070312 -14.30859375 19.91015625 C-12.70531017 16.34464501 -10.48230772 13.47186206 -8.0625 10.4375 C-7.17826573 9.31129187 -6.29414832 8.18499199 -5.41015625 7.05859375 C-4.61480469 6.04925781 -3.81945312 5.03992188 -3 4 C-2.44183594 3.20722656 -1.88367188 2.41445313 -1.30859375 1.59765625 C-0.87675781 1.07042969 -0.44492187 0.54320312 0 0 Z " fill="#FFFFFF" transform="translate(627,654)"/>
<path d="M0 0 C0.66 0 1.32 0 2 0 C3.38867188 1.48120117 3.38867188 1.48120117 4.96875 3.54296875 C5.53980469 4.28740234 6.11085938 5.03183594 6.69921875 5.79882812 C7.29347656 6.58708984 7.88773437 7.37535156 8.5 8.1875 C9.09425781 8.95642578 9.68851562 9.72535156 10.30078125 10.51757812 C14.78183709 16.40971137 14.78183709 16.40971137 15.99804688 19.70043945 C16.32869141 20.45929443 16.65933594 21.21814941 17 22 C17.99 22.33 18.98 22.66 20 23 C20.97582193 24.64880257 21.94215456 26.30434445 22.84741211 27.99291992 C24.01745141 30.03038934 25.31538457 31.81964779 26.75390625 33.67578125 C30.06853255 38.03824739 33.10991308 42.5522467 36.125 47.125 C36.63675781 47.89714844 37.14851563 48.66929687 37.67578125 49.46484375 C38.66906656 50.96370872 39.66153315 52.46311665 40.65307617 53.96313477 C42.92620855 57.4006449 45.20445885 60.8341558 47.52734375 64.23828125 C50.56857312 68.71166849 53.27619326 73.254923 55.84765625 78.01171875 C57.03475453 80.17595991 57.03475453 80.17595991 59.0625 82.5625 C61.98767082 86.24255362 64.51788123 90.52748263 65.42578125 95.18359375 C65.61527344 95.78300781 65.80476563 96.38242187 66 97 C67.485 97.495 67.485 97.495 69 98 C70.578125 100.73828125 70.578125 100.73828125 72.25 104.3125 C75.0387314 110.14812307 78.08693564 115.73340696 81.421875 121.28125 C86 129.16831683 86 129.16831683 86 132 C86.66 132 87.32 132 88 132 C88.09765625 138.15234375 88.09765625 138.15234375 88 140 C85.25354827 142.74645173 77.18845666 141.33434567 73.5 141.375 C72.24445313 141.41238281 70.98890625 141.44976563 69.6953125 141.48828125 C61.90766541 141.56174962 56.23567961 140.88878672 50 136 C48.99763277 135.00237284 47.99747964 134.00251402 47 133 C46.01 132.34 45.02 131.68 44 131 C44 130.34 44 129.68 44 129 C43.41734375 128.76152344 42.8346875 128.52304687 42.234375 128.27734375 C39.53950096 126.73674268 38.13683648 125.01780644 36.25 122.5625 C35.63640625 121.78003906 35.0228125 120.99757813 34.390625 120.19140625 C33 118 33 118 33 115 C32.34 115 31.68 115 31 115 C28.95830515 112.09451118 28 110.59857954 28 107 C27.34 107 26.68 107 26 107 C24.74335022 104.09399739 24 102.20395416 24 99 C23.34 99 22.68 99 22 99 C21.67 96.69 21.34 94.38 21 92 C20.34 92 19.68 92 19 92 C18.66226562 90.90300781 18.32453125 89.80601562 17.9765625 88.67578125 C17.52614898 87.22132093 17.07562216 85.76689569 16.625 84.3125 C16.40328125 83.59126953 16.1815625 82.87003906 15.953125 82.12695312 C15.02108195 79.12522625 14.07507771 76.18609689 12.8984375 73.26953125 C11.70966794 70.26659596 11.16693133 67.24840854 10.5625 64.0859375 C10.04327522 61.71940056 10.04327522 61.71940056 8 59 C7.41057118 56.28693527 6.89173201 53.61000543 6.4375 50.875 C6.01146331 46.04750371 6.01146331 46.04750371 4 42 C3.71552851 40.45551341 3.48585523 38.90083046 3.28125 37.34375 C3.08982422 35.93416016 3.08982422 35.93416016 2.89453125 34.49609375 C2.63151042 32.49869792 2.36848958 30.50130208 2.10546875 28.50390625 C1.97785156 27.56417969 1.85023438 26.62445312 1.71875 25.65625 C1.60466797 24.78806641 1.49058594 23.91988281 1.37304688 23.02539062 C1.20001486 21.01090638 1.20001486 21.01090638 0 20 C-0.08669432 18.5112814 -0.10703494 17.018555 -0.09765625 15.52734375 C-0.09443359 14.62822266 -0.09121094 13.72910156 -0.08789062 12.80273438 C-0.07951172 11.85720703 -0.07113281 10.91167969 -0.0625 9.9375 C-0.05798828 8.98810547 -0.05347656 8.03871094 -0.04882812 7.06054688 C-0.0370011 4.70696935 -0.02052025 2.35351523 0 0 Z " fill="#FFFFFF" transform="translate(371,654)"/>
<path d="M0 0 C1.32 0 2.64 0 4 0 C4 4 4 4 2.5390625 5.484375 C1.90742187 5.90203125 1.27578125 6.3196875 0.625 6.75 C-0.00148438 7.17796875 -0.62796875 7.6059375 -1.2734375 8.046875 C-3 9 -3 9 -5 9 C-5.33 9.99 -5.66 10.98 -6 12 C-8.5625 13.1875 -8.5625 13.1875 -11 14 C-11 14.66 -11 15.32 -11 16 C-12.65 16.66 -14.3 17.32 -16 18 C-16 18.66 -16 19.32 -16 20 C-20.38461538 23 -20.38461538 23 -23 23 C-23 23.66 -23 24.32 -23 25 C-24.65 25.66 -26.3 26.32 -28 27 C-28 27.66 -28 28.32 -28 29 C-29.32361311 29.94046195 -30.65873258 30.8668404 -32.03125 31.734375 C-34.36378681 33.23386295 -36.6139004 34.83239843 -38.875 36.4375 C-51.09132543 45 -51.09132543 45 -54 45 C-54 45.66 -54 46.32 -54 47 C-55.98 47.66 -57.96 48.32 -60 49 C-60 49.66 -60 50.32 -60 51 C-65.75 54 -65.75 54 -68 54 C-68 54.66 -68 55.32 -68 56 C-69.98 56.66 -71.96 57.32 -74 58 C-74 58.66 -74 59.32 -74 60 C-76.12232979 61.17176518 -78.24757791 62.33754785 -80.375 63.5 C-80.97828125 63.83386719 -81.5815625 64.16773438 -82.203125 64.51171875 C-86.7734375 67 -86.7734375 67 -89 67 C-89 67.66 -89 68.32 -89 69 C-90.48886719 69.74443359 -90.48886719 69.74443359 -92.0078125 70.50390625 C-92.9836731 70.99201782 -92.9836731 70.99201782 -93.97924805 71.48999023 C-95.42042748 72.21033399 -96.86200263 72.92988652 -98.30395508 73.64868164 C-101.88013804 75.43264993 -105.45038412 77.22594318 -109.00390625 79.0546875 C-109.62571777 79.37236084 -110.2475293 79.69003418 -110.88818359 80.01733398 C-112.59803929 80.89175001 -114.30496378 81.77189083 -116.01171875 82.65234375 C-118.73095977 83.87866813 -121.06243538 84.56944786 -124 85 C-124 85.66 -124 86.32 -124 87 C-127.16609462 88.87620422 -129.35832401 89.09662822 -133 89 C-133.57297737 79.02594947 -131.73316384 70.28123666 -126 62 C-124.22872645 60.31437045 -122.41446974 58.76719798 -120.48828125 57.26171875 C-118.86115804 56.04986163 -118.86115804 56.04986163 -118 54 C-116.29576416 52.98401325 -114.58743605 51.97337356 -112.84765625 51.01953125 C-111.26553297 50.14652031 -109.72174838 49.20464344 -108.1875 48.25 C-106 47 -106 47 -104 47 C-104 46.34 -104 45.68 -104 45 C-101.54379149 43.82866942 -99.08525083 42.66278278 -96.625 41.5 C-95.92632813 41.16613281 -95.22765625 40.83226562 -94.5078125 40.48828125 C-89.2265625 38 -89.2265625 38 -87 38 C-87 37.34 -87 36.68 -87 36 C-80.80520671 33.05223604 -74.61242722 30.82221376 -68 29 C-68 28.34 -68 27.68 -68 27 C-65.03 26.34 -62.06 25.68 -59 25 C-59 24.34 -59 23.68 -59 23 C-57.948125 22.61908203 -57.948125 22.61908203 -56.875 22.23046875 C-55.92625 21.88628906 -54.9775 21.54210937 -54 21.1875 C-52.9996875 20.82527344 -51.999375 20.46304688 -50.96875 20.08984375 C-48.46675308 19.17134751 -45.98296978 18.21817292 -43.5 17.25 C-40 16 -40 16 -37 16 C-37 15.34 -37 14.68 -37 14 C-36.21496094 13.74605469 -35.42992187 13.49210938 -34.62109375 13.23046875 C-27.68752177 10.98319153 -27.68752177 10.98319153 -20.9375 8.25 C-18 7 -18 7 -15 7 C-15 6.34 -15 5.68 -15 5 C-14.00097656 4.72285156 -13.00195312 4.44570313 -11.97265625 4.16015625 C-10.66922209 3.79444451 -9.36583931 3.42854962 -8.0625 3.0625 C-7.40314453 2.88009766 -6.74378906 2.69769531 -6.06445312 2.50976562 C-2.76178827 1.77403899 -2.76178827 1.77403899 0 0 Z " fill="#FFFFFF" transform="translate(855,663)"/>
<path d="M0 0 C4.18865681 0.76084588 8.22484795 1.87822698 12.3125 3.0625 C14.19388672 3.60583984 14.19388672 3.60583984 16.11328125 4.16015625 C17.54220703 4.57587891 17.54220703 4.57587891 19 5 C19 5.66 19 6.32 19 7 C19.58007812 7.10957031 20.16015625 7.21914063 20.7578125 7.33203125 C25.63745233 8.3224532 29.56172511 9.68437832 34 12 C36.3167949 12.76755604 38.63576715 13.38529946 41 14 C41 14.66 41 15.32 41 16 C41.61746094 16.09796875 42.23492187 16.1959375 42.87109375 16.296875 C48.34531039 17.26340336 53.07870756 18.68758167 58.08984375 21.09765625 C60.14252403 22.11377665 60.14252403 22.11377665 63 23 C63 23.66 63 24.32 63 25 C67.455 25.99 67.455 25.99 72 27 C72 27.66 72 28.32 72 29 C72.61746094 29.17015625 73.23492187 29.3403125 73.87109375 29.515625 C79.8338204 31.22185424 85.40114631 33.33581117 91 36 C91 36.66 91 37.32 91 38 C91.94875 38.226875 92.8975 38.45375 93.875 38.6875 C98.89627504 40.10005581 103.40414173 42.57723367 108 45 C108 45.66 108 46.32 108 47 C108.886875 47.2475 109.77375 47.495 110.6875 47.75 C114.12221969 49.04612064 116.20957115 50.66207313 119 53 C120.485 53.495 120.485 53.495 122 54 C123.5 55.5234375 123.5 55.5234375 125 57.375 C126.90727625 59.70942666 128.86638201 61.87230872 131 64 C136.41199534 71.44149359 137.51443802 80.04496788 137 89 C133.35832401 89.09662822 131.16609462 88.87620422 128 87 C128 86.34 128 85.68 128 85 C127.07380859 84.76216797 127.07380859 84.76216797 126.12890625 84.51953125 C120.88044936 83.07360934 116.39598393 81.29864966 111.71484375 78.5390625 C108.02474697 76.44712274 104.2363846 74.57279531 100.4375 72.6875 C99.70966309 72.32567627 98.98182617 71.96385254 98.23193359 71.59106445 C96.48877733 70.7257193 94.74450606 69.86262079 93 69 C93 68.34 93 67.68 93 67 C92.195625 66.773125 91.39125 66.54625 90.5625 66.3125 C86.08714261 64.66368412 82.11278682 62.39455588 78 60 C78 59.34 78 58.68 78 58 C76.02 57.34 74.04 56.68 72 56 C72 55.34 72 54.68 72 54 C71.05125 53.690625 70.1025 53.38125 69.125 53.0625 C66 52 66 52 64 51 C64 50.34 64 49.68 64 49 C62.02 48.34 60.04 47.68 58 47 C58 46.34 58 45.68 58 45 C57.11957031 44.74734375 56.23914063 44.4946875 55.33203125 44.234375 C51.90056784 42.96316464 49.5836925 41.46397827 46.6875 39.25 C42.4264136 36.03959244 38.10141259 33.06008005 33.58203125 30.2265625 C32.79892578 29.61941406 32.79892578 29.61941406 32 29 C32 28.34 32 27.68 32 27 C30.35 26.34 28.7 25.68 27 25 C27 24.34 27 23.68 27 23 C26.21625 22.690625 25.4325 22.38125 24.625 22.0625 C22 21 22 21 20 20 C20 19.34 20 18.68 20 18 C18.35 17.34 16.7 16.68 15 16 C15 15.34 15 14.68 15 14 C14.195625 13.731875 13.39125 13.46375 12.5625 13.1875 C11.716875 12.795625 10.87125 12.40375 10 12 C9.67 11.01 9.34 10.02 9 9 C7.3523962 8.28752268 5.68236471 7.62599617 4 7 C1.6875 5.625 1.6875 5.625 0 4 C0 2.68 0 1.36 0 0 Z " fill="#FFFFFF" transform="translate(141,663)"/>
<path d="M0 0 C1.03543945 -0.0299707 1.03543945 -0.0299707 2.09179688 -0.06054688 C7.23729959 -0.05566962 10.16951316 1.1225112 14.0625 4.4375 C17.36706218 8.49341527 17.4413696 11.85890841 17.375 17 C17.37113281 18.30066406 17.36726562 19.60132813 17.36328125 20.94140625 C17.0911523 24.10446352 16.87665047 25.88035276 15.0625 28.4375 C12.4375 29.6875 12.4375 29.6875 10.0625 30.4375 C10.0625 31.0975 10.0625 31.7575 10.0625 32.4375 C3.4625 32.4375 -3.1375 32.4375 -9.9375 32.4375 C-9.9375 31.7775 -9.9375 31.1175 -9.9375 30.4375 C-10.72125 30.19 -11.505 29.9425 -12.3125 29.6875 C-15.44460259 28.19602258 -15.78310908 27.63831119 -16.9375 24.4375 C-17.2734375 20.9765625 -17.2734375 20.9765625 -17.3125 17.0625 C-17.34085937 15.77601563 -17.36921875 14.48953125 -17.3984375 13.1640625 C-16.74541401 7.88453358 -14.76661757 4.9369326 -10.68359375 1.58984375 C-7.10415082 0.08780155 -3.81793487 -0.03899469 0 0 Z " fill="#FFFFFF" transform="translate(499.9375,646.5625)"/>
<path d="M0 0 C5.63630194 0.02010571 5.63630194 0.02010571 8.12109375 1.45703125 C9.4375 2.8125 9.4375 2.8125 11.25 5.375 C11.58 5.705 11.91 6.035 12.25 6.375 C12.97090507 11.81372682 13.22493396 15.99384356 10 20.5625 C5.29126387 23.62317848 -0.40750909 23.2435197 -5.75 22.375 C-9.10991989 21.18658389 -9.55657578 20.48235099 -11.75 17.375 C-12.52279121 13.55683899 -12.54074851 10.19122107 -11.75 6.375 C-9.3125 3.25 -9.3125 3.25 -6.75 1.375 C-4.95690039 -0.41809961 -2.42624022 0.07692957 0 0 Z " fill="#FFFFFF" transform="translate(499.75,593.625)"/>
<path d="M0 0 C1.5778125 -0.01546875 1.5778125 -0.01546875 3.1875 -0.03125 C6 0.5 6 0.5 7.84765625 2.28515625 C9.60030033 5.65379759 9.61606505 8.83984885 9 12.5 C7.625 15.5 7.625 15.5 5 17.5 C1.52895246 18.20343488 -1.52895246 18.20343488 -5 17.5 C-7.79576024 15.36989696 -8.74818035 13.99610498 -9.33203125 10.52734375 C-9.4871544 7.4536072 -9.27504427 5.02864441 -7.84765625 2.28515625 C-5.26345858 -0.2116267 -3.54140349 -0.03471964 0 0 Z " fill="#FFFFFF" transform="translate(500,547.5)"/>
</svg>
